<svg xmlns="http://www.w3.org/2000/svg" width="1180" height="590" viewBox="0 0 1180 590">
  <rect width="1180" height="590" fill="#f7f8fa"/>
  <text x="45" y="42" font-family="Arial, sans-serif" font-size="24" font-weight="700" fill="#17202a">GPS flight path</text>
  <text x="45" y="560" font-family="Arial, sans-serif" font-size="14" fill="#5d6b78">Distance: 4.4 m | Duration: 00:38.5 | Points: 387</text>

  <rect x="45" y="60" width="550" height="470" rx="6" fill="#ffffff" stroke="#d7dde3"/>
  <line x1="70" y1="505" x2="570" y2="505" stroke="#d7dde3"/>
  <line x1="70" y1="75" x2="70" y2="505" stroke="#d7dde3"/>
  <polyline points="116.51,468.79 107.79,473.32 107.79,477.84 101.98,468.79 96.16,459.74 87.44,459.74 84.53,459.74 81.63,459.74 78.72,459.74 78.72,455.21 75.81,450.68 72.91,446.16 72.91,446.16 70.00,446.16 70.00,446.16 72.91,446.16 72.91,450.68 72.91,450.68 75.81,455.21 75.81,455.21 78.72,455.21 81.63,455.21 81.63,455.21 81.63,459.74 84.53,459.74 84.53,459.74 84.53,459.74 84.53,459.74 84.53,464.26 84.53,464.26 87.44,464.26 87.44,464.26 87.44,464.26 90.35,464.26 90.35,468.79 93.26,468.79 93.26,468.79 96.16,473.32 96.16,473.32 96.16,473.32 96.16,473.32 99.07,473.32 99.07,477.84 99.07,477.84 101.98,477.84 101.98,477.84 101.98,482.37 104.88,482.37 104.88,482.37 104.88,486.89 107.79,486.89 110.70,491.42 110.70,491.42 110.70,495.95 113.60,495.95 113.60,500.47 116.51,500.47 116.51,500.47 119.42,505.00 119.42,505.00 119.42,505.00 133.95,495.95 142.67,491.42 154.30,486.89 163.02,482.37 171.74,477.84 183.37,473.32 189.19,468.79 197.91,464.26 206.63,459.74 215.35,455.21 224.07,450.68 229.88,450.68 238.60,446.16 247.33,441.63 253.14,437.11 258.95,437.11 264.77,432.58 273.49,432.58 279.30,428.05 282.21,423.53 288.02,423.53 290.93,419.00 293.84,419.00 299.65,414.47 302.56,414.47 305.47,409.95 311.28,409.95 311.28,409.95 317.09,405.42 320.00,405.42 325.81,405.42 328.72,400.89 334.53,400.89 337.44,400.89 340.35,396.37 343.26,396.37 349.07,396.37 351.98,391.84 354.88,391.84 357.79,391.84 360.70,387.32 363.60,387.32 369.42,387.32 372.33,387.32 375.23,382.79 378.14,382.79 381.05,382.79 383.95,382.79 386.86,378.26 389.77,378.26 392.67,378.26 395.58,378.26 398.49,378.26 401.40,378.26 401.40,373.74 404.30,373.74 407.21,373.74 410.12,373.74 413.02,373.74 415.93,373.74 418.84,369.21 421.74,369.21 424.65,373.74 427.56,369.21 430.47,369.21 433.37,369.21 436.28,364.68 439.19,364.68 442.09,364.68 445.00,364.68 447.91,364.68 450.81,360.16 450.81,360.16 453.72,360.16 456.63,360.16 456.63,360.16 459.53,355.63 462.44,355.63 465.35,355.63 468.26,355.63 468.26,355.63 471.16,351.11 474.07,351.11 476.98,351.11 479.88,351.11 479.88,351.11 482.79,351.11 485.70,346.58 488.60,346.58 488.60,346.58 491.51,346.58 494.42,346.58 497.33,342.05 497.33,342.05 500.23,342.05 500.23,342.05 503.14,342.05 503.14,342.05 506.05,337.53 506.05,337.53 508.95,337.53 508.95,337.53 511.86,337.53 514.77,337.53 517.67,333.00 517.67,333.00 520.58,333.00 523.49,333.00 523.49,333.00 526.40,333.00 526.40,333.00 529.30,333.00 532.21,333.00 532.21,333.00 532.21,333.00 538.02,333.00 538.02,333.00 540.93,333.00 540.93,333.00 543.84,333.00 543.84,333.00 546.74,333.00 546.74,333.00 549.65,333.00 552.56,333.00 552.56,333.00 552.56,333.00 555.47,333.00 555.47,333.00 558.37,333.00 558.37,333.00 558.37,328.47 561.28,333.00 564.19,328.47 564.19,328.47 564.19,328.47 567.09,328.47 567.09,328.47 570.00,328.47 567.09,323.95 564.19,323.95 561.28,319.42 555.47,310.37 552.56,305.84 546.74,301.32 540.93,296.79 538.02,292.26 532.21,287.74 529.30,278.68 523.49,274.16 520.58,269.63 514.77,265.11 511.86,260.58 508.95,256.05 506.05,251.53 500.23,251.53 497.33,247.00 494.42,242.47 491.51,237.95 488.60,237.95 485.70,233.42 479.88,228.89 476.98,224.37 474.07,224.37 468.26,219.84 468.26,215.32 465.35,210.79 462.44,210.79 459.53,206.26 459.53,201.74 456.63,201.74 453.72,197.21 450.81,192.68 447.91,188.16 445.00,188.16 442.09,183.63 439.19,183.63 436.28,179.11 433.37,179.11 430.47,174.58 430.47,174.58 424.65,170.05 424.65,170.05 421.74,170.05 418.84,165.53 415.93,165.53 413.02,165.53 413.02,161.00 410.12,161.00 407.21,156.47 404.30,156.47 404.30,156.47 401.40,151.95 398.49,151.95 398.49,151.95 398.49,147.42 395.58,147.42 395.58,147.42 395.58,142.89 392.67,142.89 389.77,142.89 389.77,138.37 386.86,138.37 383.95,138.37 383.95,138.37 381.05,133.84 381.05,133.84 378.14,133.84 378.14,133.84 375.23,133.84 375.23,129.32 372.33,129.32 372.33,129.32 372.33,129.32 369.42,129.32 369.42,129.32 366.51,124.79 366.51,124.79 363.60,124.79 363.60,124.79 360.70,124.79 360.70,120.26 357.79,120.26 354.88,120.26 354.88,120.26 354.88,120.26 351.98,120.26 351.98,115.74 349.07,115.74 349.07,115.74 346.16,115.74 346.16,115.74 343.26,115.74 340.35,115.74 340.35,111.21 340.35,111.21 337.44,111.21 337.44,111.21 334.53,111.21 334.53,111.21 331.63,111.21 331.63,111.21 331.63,111.21 331.63,111.21 328.72,106.68 328.72,111.21 325.81,106.68 325.81,106.68 325.81,106.68 325.81,106.68 322.91,106.68 322.91,106.68 322.91,106.68 320.00,106.68 320.00,106.68 320.00,106.68 317.09,106.68 317.09,106.68 317.09,106.68 314.19,106.68 317.09,102.16 314.19,102.16 314.19,102.16 314.19,102.16 314.19,102.16 311.28,102.16 311.28,102.16 308.37,102.16 308.37,97.63 308.37,102.16 308.37,97.63 305.47,97.63 305.47,97.63 305.47,102.16 305.47,97.63 305.47,97.63 302.56,97.63 302.56,97.63 302.56,97.63 299.65,97.63 299.65,97.63 299.65,97.63 299.65,97.63 299.65,93.11 296.74,97.63 296.74,93.11 293.84,93.11 293.84,93.11 293.84,93.11 293.84,93.11 293.84,93.11 290.93,93.11 290.93,93.11 288.02,88.58 290.93,88.58 285.12,88.58 288.02,88.58 285.12,88.58 285.12,88.58 285.12,84.05 282.21,84.05 282.21,84.05 282.21,84.05 282.21,84.05 279.30,84.05 279.30,84.05 279.30,84.05 279.30,84.05 279.30,84.05 279.30,79.53 279.30,79.53 276.40,79.53 276.40,79.53 273.49,79.53 276.40,79.53 276.40,79.53 273.49,75.00 273.49,79.53 273.49,75.00 270.58,75.00 273.49,75.00 273.49,75.00 273.49,75.00 270.58,75.00 267.67,75.00 267.67,75.00" fill="none" stroke="#1f77b4" stroke-width="3" stroke-linejoin="round" stroke-linecap="round"/>
  <circle cx="116.51" cy="468.79" r="7" fill="#2ca02c" stroke="#ffffff" stroke-width="2"/>
  <circle cx="267.67" cy="75.00" r="7" fill="#d62728" stroke="#ffffff" stroke-width="2"/>
  <text x="75" y="525" font-family="Arial, sans-serif" font-size="13" fill="#5d6b78">East/North, meters from first GPS point</text>

  <rect x="650" y="60" width="485" height="225" rx="6" fill="#ffffff" stroke="#d7dde3"/>
  <text x="680" y="88" font-family="Arial, sans-serif" font-size="17" font-weight="700" fill="#17202a">Relative altitude</text>
  <line x1="680" y1="260" x2="1100" y2="260" stroke="#d7dde3"/>
  <polyline points="680.00,106.38 680.45,106.38 681.43,106.38 682.54,100.69 683.63,100.69 684.72,95.00 685.79,95.00 686.90,95.00 687.99,100.69 689.07,100.69 690.17,106.38 691.27,106.38 692.34,106.38 693.45,112.07 694.52,112.07 695.62,117.76 696.70,117.76 697.80,123.45 698.88,123.45 699.94,123.45 701.05,129.14 702.14,129.14 703.22,129.14 704.32,129.14 705.40,134.83 706.50,134.83 707.59,134.83 708.70,134.83 709.79,134.83 710.87,134.83 711.95,134.83 713.05,134.83 714.10,134.83 715.23,134.83 716.30,134.83 717.41,140.52 718.48,140.52 719.58,140.52 720.66,140.52 721.75,140.52 722.86,140.52 723.93,140.52 725.02,140.52 726.12,140.52 727.21,140.52 728.26,140.52 729.39,140.52 730.47,146.21 731.56,146.21 732.65,146.21 733.73,146.21 734.82,151.90 735.91,151.90 737.01,151.90 738.10,151.90 739.21,151.90 740.30,157.59 741.38,157.59 742.42,157.59 743.54,157.59 744.67,157.59 745.79,163.28 746.86,163.28 747.96,163.28 749.04,168.97 750.14,168.97 751.21,168.97 752.32,174.66 753.39,174.66 754.49,180.34 755.57,180.34 756.65,180.34 757.75,186.03 758.85,186.03 759.93,186.03 761.03,191.72 762.12,191.72 763.21,191.72 764.29,191.72 765.39,197.41 766.47,197.41 767.57,197.41 768.65,197.41 769.77,197.41 770.83,197.41 771.94,203.10 773.01,203.10 774.11,203.10 775.19,203.10 776.29,203.10 777.36,203.10 778.45,203.10 779.54,208.79 780.63,208.79 781.72,208.79 782.81,208.79 783.90,208.79 784.97,214.48 786.08,214.48 787.17,214.48 788.26,214.48 789.35,214.48 790.44,214.48 791.53,214.48 792.62,220.17 793.71,220.17 794.81,220.17 795.89,220.17 796.98,220.17 798.07,220.17 799.15,220.17 800.25,225.86 801.35,225.86 802.44,225.86 803.56,225.86 804.60,225.86 805.70,225.86 806.78,225.86 807.88,231.55 808.96,231.55 810.06,231.55 811.14,231.55 812.24,231.55 813.30,231.55 814.42,231.55 815.50,237.24 816.60,237.24 817.68,237.24 818.78,237.24 819.86,237.24 820.96,237.24 822.04,237.24 823.14,237.24 824.22,237.24 825.32,242.93 826.40,242.93 827.49,242.93 828.57,242.93 829.68,242.93 830.75,242.93 831.84,242.93 832.94,242.93 834.03,242.93 835.16,242.93 836.22,242.93 837.31,242.93 838.38,242.93 839.47,242.93 840.56,242.93 841.64,242.93 842.74,248.62 843.83,248.62 844.92,248.62 846.01,248.62 847.10,248.62 848.19,248.62 849.28,248.62 850.37,248.62 851.48,248.62 852.55,248.62 853.65,248.62 854.74,248.62 855.81,248.62 856.91,248.62 858.02,248.62 859.08,248.62 860.21,248.62 861.27,248.62 862.37,254.31 863.45,254.31 864.55,254.31 865.62,254.31 866.74,254.31 867.82,254.31 868.94,254.31 869.98,254.31 871.09,254.31 872.17,254.31 873.27,254.31 874.35,254.31 875.46,254.31 876.53,254.31 877.63,254.31 878.71,254.31 879.81,254.31 880.89,254.31 881.99,254.31 883.06,254.31 884.14,254.31 885.24,254.31 886.34,260.00 887.42,254.31 888.51,260.00 889.60,260.00 890.69,260.00 891.77,260.00 892.88,260.00 893.96,260.00 895.04,260.00 896.13,260.00 897.74,254.31 898.40,254.31 899.53,254.31 900.61,254.31 901.70,254.31 902.79,248.62 903.88,248.62 904.97,248.62 906.05,242.93 907.16,242.93 908.23,242.93 909.31,237.24 910.40,237.24 911.49,237.24 912.56,237.24 913.68,231.55 914.77,231.55 915.86,231.55 916.95,231.55 918.04,225.86 919.13,225.86 920.22,225.86 921.31,225.86 922.41,225.86 923.48,220.17 924.58,220.17 925.67,220.17 926.75,220.17 927.84,214.48 928.94,214.48 930.01,214.48 931.13,214.48 932.20,214.48 933.29,208.79 934.37,208.79 935.47,208.79 936.55,208.79 937.69,208.79 938.74,208.79 939.84,203.10 940.92,203.10 942.01,203.10 943.12,203.10 944.20,203.10 945.32,203.10 946.36,197.41 947.47,197.41 948.54,197.41 949.65,197.41 950.73,197.41 951.82,197.41 952.91,191.72 954.00,191.72 955.05,191.72 956.18,191.72 957.27,191.72 958.34,191.72 959.43,191.72 960.53,191.72 961.62,186.03 962.72,186.03 963.80,186.03 964.89,186.03 965.98,186.03 967.07,186.03 968.15,186.03 969.22,180.34 970.34,180.34 971.43,180.34 972.51,180.34 973.60,180.34 974.70,180.34 975.78,180.34 976.89,174.66 977.97,174.66 979.07,174.66 980.16,174.66 981.25,174.66 982.33,174.66 983.42,174.66 984.50,174.66 985.63,168.97 986.68,168.97 987.77,168.97 988.86,168.97 989.95,168.97 991.04,168.97 992.14,168.97 993.22,163.28 994.32,163.28 995.40,163.28 996.51,163.28 997.55,163.28 998.68,163.28 999.76,163.28 1000.86,157.59 1001.94,157.59 1003.03,157.59 1004.11,157.59 1005.22,157.59 1006.31,157.59 1007.40,157.59 1008.46,157.59 1009.56,157.59 1010.65,157.59 1011.73,151.90 1012.82,151.90 1013.92,151.90 1015.00,151.90 1016.10,151.90 1017.19,151.90 1018.29,151.90 1019.37,151.90 1020.48,151.90 1021.55,151.90 1022.64,151.90 1023.73,151.90 1024.82,146.21 1025.88,146.21 1027.01,146.21 1028.08,146.21 1029.18,146.21 1030.27,146.21 1031.36,146.21 1032.45,146.21 1033.54,146.21 1034.63,146.21 1035.71,146.21 1036.80,146.21 1037.89,146.21 1038.98,146.21 1040.04,146.21 1041.16,146.21 1042.25,146.21 1043.34,146.21 1044.43,146.21 1045.53,146.21 1046.61,146.21 1047.73,146.21 1048.79,146.21 1049.90,146.21 1050.98,146.21 1052.10,146.21 1053.16,146.21 1054.24,146.21 1055.34,140.52 1056.45,140.52 1057.52,140.52 1058.64,140.52 1059.71,140.52 1060.81,140.52 1061.91,140.52 1062.98,140.52 1064.08,140.52 1065.14,140.52 1066.26,140.52 1067.33,140.52 1068.40,140.52 1069.52,140.52 1070.60,140.52 1071.68,140.52 1072.78,140.52 1073.86,140.52 1074.96,140.52 1076.04,140.52 1077.14,140.52 1078.22,140.52 1079.33,140.52 1080.40,140.52 1081.51,140.52 1082.56,140.52 1083.68,140.52 1084.76,140.52 1085.86,134.83 1086.94,140.52 1088.04,134.83 1089.12,134.83 1090.22,134.83 1091.29,134.83 1092.39,134.83 1093.48,134.83 1094.58,134.83 1095.65,134.83 1096.72,134.83 1097.82,134.83 1098.91,134.83 1100.00,134.83" fill="none" stroke="#9467bd" stroke-width="2.5" stroke-linejoin="round" stroke-linecap="round"/>
  <text x="680" y="277" font-family="Arial, sans-serif" font-size="13" fill="#5d6b78">-2.7..0.2 m relative to start</text>

  <rect x="650" y="305" width="485" height="200" rx="6" fill="#ffffff" stroke="#d7dde3"/>
  <text x="680" y="333" font-family="Arial, sans-serif" font-size="17" font-weight="700" fill="#17202a">Speed</text>
  <line x1="680" y1="475" x2="1100" y2="475" stroke="#d7dde3"/>
  <polyline points="680.00,475.00 680.45,475.00 681.43,423.32 682.54,372.94 683.63,370.90 684.72,404.89 685.79,451.15 686.90,452.09 687.99,451.63 689.07,428.02 690.17,423.47 691.27,423.47 692.34,475.00 693.45,451.86 694.52,475.00 695.62,451.86 696.70,428.02 697.80,475.00 698.88,422.42 699.94,475.00 701.05,452.09 702.14,451.63 703.22,475.00 704.32,428.95 705.40,451.39 706.50,475.00 707.59,475.00 708.70,475.00 709.79,428.49 710.87,475.00 711.95,451.39 713.05,475.00 714.10,475.00 715.23,452.31 716.30,428.02 717.41,451.86 718.48,475.00 719.58,423.47 720.66,475.00 721.75,475.00 722.86,475.00 723.93,451.15 725.02,428.49 726.12,475.00 727.21,451.63 728.26,475.00 729.39,430.28 730.47,451.39 731.56,475.00 732.65,428.49 733.73,451.39 734.82,422.95 735.91,475.00 737.01,428.95 738.10,451.63 739.21,429.40 740.30,451.63 741.38,475.00 742.42,420.78 743.54,475.00 744.67,475.00 745.79,330.00 746.86,389.15 747.96,371.63 749.04,390.02 750.14,391.70 751.21,369.54 752.32,409.72 753.39,390.02 754.49,391.70 755.57,390.02 756.65,390.02 757.75,428.72 758.85,391.70 759.93,390.02 761.03,409.72 762.12,428.26 763.21,409.06 764.29,404.18 765.39,409.72 766.47,422.42 767.57,428.72 768.65,422.42 769.77,452.31 770.83,407.02 771.94,452.09 773.01,421.89 774.11,428.72 775.19,475.00 776.29,409.72 777.36,451.39 778.45,428.26 779.54,422.95 780.63,428.26 781.72,451.63 782.81,422.95 783.90,451.63 784.97,427.31 786.08,423.97 787.17,451.63 788.26,451.63 789.35,422.95 790.44,451.63 791.53,428.26 792.62,451.63 793.71,422.95 794.81,451.86 795.89,451.39 796.98,451.63 798.07,422.95 799.15,451.39 800.25,451.86 801.35,451.86 802.44,451.63 803.56,452.31 804.60,426.55 805.70,451.86 806.78,451.39 807.88,451.86 808.96,451.39 810.06,451.86 811.14,422.42 812.24,451.86 813.30,421.34 814.42,424.47 815.50,451.39 816.60,451.86 817.68,422.42 818.78,451.86 819.86,451.39 820.96,451.86 822.04,451.39 823.14,423.47 824.22,475.00 825.32,451.86 826.40,451.39 827.49,475.00 828.57,422.95 829.68,451.86 830.75,451.39 831.84,451.63 832.94,475.00 834.03,422.95 835.16,452.31 836.22,451.15 837.31,451.63 838.38,475.00 839.47,451.63 840.56,422.95 841.64,451.39 842.74,475.00 843.83,451.63 844.92,451.63 846.01,422.95 847.10,475.00 848.19,451.63 849.28,475.00 850.37,451.63 851.48,475.00 852.55,421.89 853.65,475.00 854.74,451.63 855.81,475.00 856.91,451.86 858.02,451.86 859.08,421.89 860.21,475.00 861.27,451.15 862.37,451.86 863.45,475.00 864.55,451.86 865.62,475.00 866.74,452.31 867.82,451.39 868.94,475.00 869.98,475.00 871.09,429.18 872.17,475.00 873.27,451.86 874.35,475.00 875.46,452.09 876.53,475.00 877.63,451.86 878.71,475.00 879.81,451.86 880.89,451.39 881.99,475.00 883.06,475.00 884.14,451.39 885.24,475.00 886.34,451.86 887.42,475.00 888.51,428.49 889.60,422.95 890.69,422.95 891.77,475.00 892.88,475.00 893.96,451.39 895.04,475.00 896.13,451.63 897.74,439.83 898.40,436.05 899.53,424.95 900.61,369.85 901.70,422.95 902.79,409.06 903.88,409.06 904.97,422.95 906.05,409.06 907.16,380.04 908.23,408.40 909.31,422.42 910.40,409.06 911.49,422.95 912.56,421.89 913.68,424.47 914.77,428.26 915.86,422.95 916.95,422.95 918.04,422.95 919.13,451.63 920.22,422.95 921.31,409.06 922.41,423.47 923.48,451.15 924.58,409.72 925.67,428.49 926.75,422.42 927.84,451.63 928.94,423.47 930.01,428.02 931.13,452.09 932.20,422.42 933.29,422.95 934.37,422.42 935.47,451.86 936.55,422.42 937.69,452.53 938.74,421.34 939.84,451.86 940.92,422.42 942.01,475.00 943.12,410.36 944.20,475.00 945.32,452.31 946.36,420.21 947.47,452.09 948.54,451.15 949.65,429.40 950.73,451.39 951.82,422.95 952.91,451.63 954.00,475.00 955.05,421.34 956.18,452.31 957.27,475.00 958.34,428.02 959.43,451.63 960.53,475.00 961.62,428.49 962.72,451.86 963.80,451.39 964.89,428.49 965.98,451.63 967.07,451.63 968.15,475.00 969.22,421.89 970.34,475.00 971.43,451.63 972.51,475.00 973.60,451.63 974.70,428.95 975.78,451.39 976.89,475.00 977.97,475.00 979.07,451.86 980.16,475.00 981.25,422.95 982.33,475.00 983.42,451.63 984.50,475.00 985.63,452.31 986.68,427.05 987.77,451.63 988.86,451.63 989.95,475.00 991.04,475.00 992.14,451.86 993.22,428.02 994.32,451.86 995.40,475.00 996.51,452.09 997.55,475.00 998.68,452.53 999.76,451.39 1000.86,428.95 1001.94,475.00 1003.03,451.63 1004.11,475.00 1005.22,452.09 1006.31,475.00 1007.40,451.63 1008.46,475.00 1009.56,475.00 1010.65,475.00 1011.73,422.42 1012.82,428.49 1013.92,423.47 1015.00,475.00 1016.10,475.00 1017.19,475.00 1018.29,451.86 1019.37,475.00 1020.48,475.00 1021.55,451.15 1022.64,475.00 1023.73,475.00 1024.82,451.63 1025.88,475.00 1027.01,475.00 1028.08,451.15 1029.18,423.47 1030.27,451.63 1031.36,475.00 1032.45,475.00 1033.54,475.00 1034.63,451.63 1035.71,475.00 1036.80,451.63 1037.89,428.49 1038.98,428.49 1040.04,427.05 1041.16,452.31 1042.25,475.00 1043.34,428.49 1044.43,428.49 1045.53,475.00 1046.61,451.39 1047.73,475.00 1048.79,475.00 1049.90,452.09 1050.98,475.00 1052.10,475.00 1053.16,475.00 1054.24,428.02 1055.34,423.47 1056.45,429.40 1057.52,451.15 1058.64,475.00 1059.71,475.00 1060.81,475.00 1061.91,475.00 1062.98,451.15 1064.08,475.00 1065.14,421.89 1066.26,452.09 1067.33,427.79 1068.40,451.15 1069.52,452.31 1070.60,475.00 1071.68,428.02 1072.78,451.86 1073.86,475.00 1074.96,475.00 1076.04,475.00 1077.14,451.86 1078.22,475.00 1079.33,475.00 1080.40,475.00 1081.51,475.00 1082.56,426.55 1083.68,475.00 1084.76,451.39 1085.86,475.00 1086.94,451.39 1088.04,451.86 1089.12,475.00 1090.22,423.47 1091.29,428.02 1092.39,428.95 1093.48,451.63 1094.58,451.86 1095.65,475.00 1096.72,475.00 1097.82,451.86 1098.91,451.63 1100.00,475.00" fill="none" stroke="#ff7f0e" stroke-width="2.5" stroke-linejoin="round" stroke-linecap="round"/>
  <text x="680" y="492" font-family="Arial, sans-serif" font-size="13" fill="#5d6b78">max 0.58 m/s</text>
</svg>
