<svg xmlns="http://www.w3.org/2000/svg" width="1180" height="590" viewBox="0 0 1180 590">
  <rect width="1180" height="590" fill="#f7f8fa"/>
  <text x="45" y="42" font-family="Arial, sans-serif" font-size="24" font-weight="700" fill="#17202a">GPS flight path</text>
  <text x="45" y="560" font-family="Arial, sans-serif" font-size="14" fill="#5d6b78">Distance: 39.4 m | Duration: 03:33.8 | Points: 2141</text>

  <rect x="45" y="60" width="550" height="470" rx="6" fill="#ffffff" stroke="#d7dde3"/>
  <line x1="70" y1="505" x2="570" y2="505" stroke="#d7dde3"/>
  <line x1="70" y1="75" x2="70" y2="505" stroke="#d7dde3"/>
  <polyline points="570.00,505.00 450.76,425.86 437.56,395.35 416.09,371.52 396.44,341.96 385.83,322.89 383.50,297.15 380.66,259.01 380.66,259.01 374.97,226.60 368.50,198.95 363.07,192.27 353.24,192.27 341.34,199.90 332.29,201.81 320.39,197.99 315.73,190.37 312.37,171.30 304.09,150.32 291.93,135.07 282.88,120.76 277.71,111.23 272.79,102.65 267.62,97.88 264.77,94.07 262.71,91.21 261.67,85.49 259.08,80.72 257.53,76.91 257.02,75.00 257.27,75.00 257.27,75.00 258.83,76.91 260.89,78.81 262.96,82.63 264.00,84.53 265.03,86.44 266.07,88.35 267.10,90.25 267.62,92.16 267.88,94.07 268.14,96.93 267.62,100.74 267.10,103.60 266.84,107.42 266.33,111.23 265.81,115.04 265.55,117.90 265.55,119.81 265.03,122.67 264.52,124.58 263.74,126.49 263.48,128.39 262.96,130.30 262.19,132.21 262.19,133.16 262.45,133.16 262.71,133.16 262.96,133.16 262.96,133.16 263.74,133.16 264.00,133.16 264.26,133.16 264.00,133.16 263.74,132.21 263.48,132.21 263.48,132.21 263.22,132.21 263.22,132.21 262.96,132.21 262.96,133.16 262.96,134.11 262.71,134.11 262.71,135.07 262.19,136.02 261.93,136.02 261.67,136.97 261.41,136.97 261.15,137.93 260.89,137.93 260.64,137.93 260.38,138.88 260.38,138.88 260.38,139.83 260.12,139.83 260.12,140.79 259.60,141.74 259.34,142.69 259.08,142.69 258.57,143.65 258.57,144.60 258.05,145.55 257.53,146.51 257.02,147.46 256.76,148.41 257.02,147.46 257.27,147.46 257.27,146.51 257.27,146.51 257.53,145.55 257.53,145.55 257.53,145.55 257.79,145.55 257.53,145.55 257.53,145.55 257.53,145.55 257.53,146.51 257.53,146.51 257.53,146.51 257.02,147.46 257.02,147.46 256.76,147.46 256.76,147.46 256.76,147.46 256.76,147.46 256.50,148.41 256.50,148.41 256.50,148.41 256.24,148.41 256.24,149.37 256.24,149.37 255.98,149.37 255.98,150.32 255.72,150.32 255.72,151.27 255.72,151.27 255.20,152.23 255.20,153.18 254.95,153.18 254.95,154.14 254.43,155.09 254.43,155.09 254.17,156.04 253.91,157.00 253.65,157.95 253.39,158.90 253.39,158.90 253.65,158.90 253.91,157.95 253.91,157.95 253.91,157.95 253.91,157.00 254.17,157.00 254.17,157.00 254.17,157.00 254.17,157.00 254.17,157.00 254.17,157.00 254.17,157.00 254.17,157.00 254.17,157.00 254.17,157.00 254.17,157.00 254.17,157.00 254.17,157.00 254.17,157.00 254.17,157.00 254.17,157.00 254.17,157.00 254.17,157.00 254.17,157.00 254.17,157.00 254.17,157.00 254.17,157.00 254.17,157.00 254.17,157.95 254.17,157.95 254.17,157.95 254.17,157.95 253.91,158.90 253.91,158.90 253.65,158.90 253.65,159.86 253.39,159.86 253.14,160.81 253.14,161.76 252.88,161.76 252.36,162.72 252.62,162.72 252.62,162.72 252.62,161.76 252.88,161.76 252.88,161.76 252.88,161.76 252.88,160.81 252.88,160.81 252.88,160.81 253.14,160.81 253.14,160.81 252.88,160.81 252.88,159.86 253.14,159.86 252.88,159.86 252.88,159.86 252.88,159.86 252.62,159.86 252.62,159.86 252.62,159.86 252.36,158.90 252.36,158.90 252.36,158.90 252.36,158.90 252.10,158.90 251.84,158.90 251.84,158.90 251.58,158.90 251.32,158.90 251.32,158.90 251.07,159.86 251.07,159.86 250.81,159.86 250.55,160.81 250.29,160.81 250.29,160.81 250.03,161.76 249.77,161.76 249.51,162.72 249.26,162.72 249.00,163.67 248.74,164.62 248.74,164.62 248.74,163.67 249.00,163.67 248.74,163.67 248.74,163.67 249.00,163.67 249.00,163.67 249.00,163.67 249.00,163.67 248.74,163.67 248.74,163.67 249.00,163.67 248.74,163.67 249.00,162.72 249.00,163.67 249.00,163.67 249.00,162.72 249.00,162.72 249.00,162.72 249.00,162.72 249.00,162.72 249.00,162.72 248.74,162.72 248.74,162.72 248.74,162.72 248.74,162.72 248.74,162.72 248.74,162.72 248.74,163.67 248.74,163.67 248.74,163.67 248.74,163.67 248.48,163.67 248.48,163.67 248.48,163.67 248.48,163.67 248.48,164.62 248.22,164.62 248.22,164.62 247.96,165.58 247.96,165.58 247.70,166.53 247.44,166.53 247.70,166.53 247.70,166.53 247.70,166.53 247.70,166.53 247.96,166.53 247.96,166.53 248.22,165.58 248.22,165.58 248.22,165.58 248.22,165.58 248.22,165.58 248.22,165.58 248.48,165.58 248.48,165.58 248.48,165.58 248.48,165.58 248.74,165.58 248.74,165.58 248.74,165.58 249.00,165.58 249.00,165.58 249.00,165.58 249.00,165.58 249.00,165.58 249.00,165.58 249.26,165.58 249.26,165.58 249.26,165.58 249.26,165.58 249.26,165.58 249.26,165.58 249.26,165.58 249.00,165.58 249.00,165.58 249.00,165.58 248.74,166.53 248.74,166.53 248.74,166.53 248.48,166.53 248.48,166.53 248.48,167.48 248.48,167.48 248.22,167.48 247.96,168.44 247.96,168.44 247.96,168.44 247.96,167.48 248.22,167.48 248.22,167.48 248.22,167.48 248.48,167.48 248.22,167.48 248.48,167.48 248.48,167.48 248.48,167.48 248.48,167.48 248.48,167.48 248.48,167.48 248.74,166.53 248.48,166.53 248.74,166.53 248.74,166.53 248.74,166.53 248.74,166.53 248.74,166.53 248.74,166.53 248.74,165.58 248.74,166.53 248.74,166.53 248.74,166.53 248.74,166.53 248.74,166.53 248.74,166.53 248.74,166.53 248.74,166.53 248.74,166.53 248.74,166.53 248.74,166.53 248.74,167.48 248.74,167.48 248.48,167.48 248.48,167.48 248.48,168.44 248.22,168.44 248.22,168.44 247.96,168.44 247.96,168.44 247.70,169.39 247.96,169.39 247.70,169.39 247.70,168.44 247.96,168.44 247.96,168.44 247.96,168.44 247.96,168.44 247.96,168.44 247.96,168.44 247.96,168.44 247.96,168.44 247.96,168.44 247.70,168.44 247.96,167.48 247.70,167.48 247.96,167.48 247.96,167.48 247.70,167.48 247.96,167.48 247.70,167.48 247.70,166.53 247.70,166.53 247.70,166.53 247.70,166.53 247.70,166.53 247.70,166.53 247.70,166.53 247.70,166.53 247.70,166.53 247.44,166.53 247.70,166.53 247.44,166.53 247.44,166.53 247.44,166.53 247.44,166.53 247.19,166.53 247.19,166.53 247.19,166.53 247.19,166.53 247.19,166.53 246.93,166.53 246.67,167.48 246.67,167.48 246.67,167.48 246.67,167.48 246.67,166.53 246.67,166.53 246.67,166.53 246.67,166.53 246.67,166.53 246.93,165.58 246.93,165.58 246.93,165.58 246.67,165.58 246.93,164.62 246.93,165.58 246.93,164.62 246.93,164.62 246.93,164.62 246.67,164.62 246.93,164.62 246.67,164.62 246.67,163.67 246.67,164.62 246.67,163.67 246.67,163.67 246.67,163.67 246.67,163.67 246.67,163.67 246.67,163.67 246.67,163.67 246.67,163.67 246.67,163.67 246.41,163.67 246.41,163.67 246.15,162.72 245.63,162.72 245.89,162.72 246.15,163.67 246.15,163.67 246.15,163.67 246.15,163.67 245.89,164.62 246.15,163.67 246.15,163.67 246.15,163.67 246.15,163.67 246.15,162.72 246.15,162.72 246.15,162.72 246.15,161.76 246.41,161.76 246.41,161.76 246.41,161.76 246.41,161.76 246.41,160.81 246.41,160.81 246.41,160.81 246.41,160.81 246.41,159.86 246.67,159.86 246.41,159.86 246.41,159.86 246.41,159.86 246.41,158.90 246.41,158.90 246.41,158.90 246.67,157.95 246.67,157.95 246.67,157.95 246.67,157.00 246.93,157.95 247.19,157.95 247.44,158.90 247.44,158.90 247.70,160.81 248.22,160.81 248.48,161.76 249.26,162.72 250.03,164.62 250.81,165.58 251.58,168.44 253.39,170.34 255.46,172.25 257.53,175.11 260.38,177.97 263.22,181.78 265.29,183.69 266.84,183.69 266.84,188.46 266.84,191.32 266.59,190.37 266.59,187.51 266.33,185.60 265.55,183.69 264.77,184.65 263.22,185.60 261.41,183.69 258.31,182.74 254.17,183.69 254.43,184.65 255.20,183.69 257.53,183.69 260.12,184.65 258.83,185.60 257.79,184.65 257.27,185.60 259.34,186.55 259.60,186.55 259.34,186.55 258.57,187.51 258.83,187.51 259.60,187.51 259.34,187.51 259.08,187.51 259.86,187.51 259.60,188.46 259.60,188.46 260.12,188.46 260.12,188.46 260.12,189.41 260.38,189.41 260.38,189.41 260.38,190.37 260.38,190.37 260.38,191.32 260.38,191.32 260.38,192.27 260.38,193.23 260.38,194.18 260.38,195.13 260.38,196.09 260.38,196.09 260.64,197.04 260.64,197.99 260.64,198.95 260.64,198.95 260.64,199.90 260.64,200.85 260.64,200.85 260.64,200.85 260.64,201.81 260.38,201.81 260.38,202.76 260.12,202.76 260.12,202.76 259.86,203.71 259.60,203.71 259.34,203.71 259.34,203.71 259.34,204.67 259.34,204.67 259.34,204.67 259.08,205.62 259.08,205.62 259.08,205.62 259.08,205.62 258.83,206.57 258.83,206.57 258.83,207.53 258.83,207.53 258.83,207.53 258.57,208.48 258.57,208.48 258.57,208.48 258.57,209.43 258.31,209.43 258.31,210.39 258.31,210.39 258.05,211.34 258.05,211.34 258.05,212.29 258.05,212.29 257.79,212.29 258.05,213.25 258.05,213.25 257.79,214.20 257.79,214.20 257.79,214.20 257.53,215.16 257.53,215.16 257.27,216.11 257.27,216.11 257.27,216.11 257.02,217.06 257.02,217.06 257.02,217.06 256.76,218.02 256.76,218.02 256.50,218.97 256.24,218.97 256.24,218.97 255.72,218.97 255.46,218.97 255.46,218.97 255.46,218.97 255.46,218.97 255.20,218.97 254.95,218.97 254.95,218.97 254.95,218.97 254.95,218.97 255.46,218.97 255.20,218.97 254.95,218.02 255.20,218.02 255.20,218.02 254.95,218.02 254.95,218.02 255.20,217.06 254.95,217.06 255.20,217.06 255.20,217.06 255.20,217.06 255.20,216.11 254.95,216.11 255.20,216.11 255.20,216.11 254.95,216.11 254.95,216.11 254.95,215.16 254.69,215.16 254.95,215.16 254.69,215.16 254.43,214.20 254.69,214.20 254.43,213.25 254.43,213.25 254.43,212.29 254.17,212.29 253.65,212.29 253.91,211.34 253.39,211.34 253.14,211.34 252.62,211.34 252.36,211.34 251.84,210.39 251.84,210.39 251.58,210.39 251.32,210.39 251.32,209.43 251.07,209.43 251.07,209.43 250.81,209.43 250.55,209.43 250.29,209.43 250.03,209.43 250.03,209.43 249.77,209.43 249.77,209.43 249.51,209.43 249.51,209.43 249.51,209.43 249.51,209.43 249.51,209.43 249.26,208.48 249.51,208.48 249.26,208.48 249.51,208.48 249.26,208.48 249.26,208.48 249.26,208.48 249.26,208.48 249.00,208.48 249.51,208.48 249.00,208.48 249.00,208.48 249.26,208.48 248.74,208.48 248.74,208.48 248.48,208.48 248.22,208.48 248.22,208.48 247.96,207.53 247.70,207.53 247.70,207.53 247.44,207.53 247.19,207.53 246.93,207.53 246.67,207.53 246.41,207.53 246.15,207.53 245.89,207.53 245.38,207.53 245.12,207.53 244.60,207.53 244.34,207.53 244.08,207.53 243.82,207.53 243.56,207.53 243.31,207.53 242.79,207.53 242.53,207.53 242.53,207.53 242.53,207.53 242.27,207.53 242.27,207.53 242.27,208.48 242.27,207.53 242.01,207.53 242.27,208.48 242.27,208.48 242.01,209.43 242.27,209.43 242.27,209.43 242.27,209.43 242.27,210.39 242.27,210.39 242.53,210.39 242.27,210.39 242.27,210.39 242.01,210.39 242.01,210.39 242.27,209.43 242.27,208.48 242.53,207.53 242.53,207.53 242.27,207.53 242.53,207.53 242.53,206.57 242.01,207.53 242.01,207.53 242.01,206.57 241.75,206.57 241.75,206.57 241.50,205.62 241.75,205.62 241.75,205.62 241.75,204.67 241.50,203.71 241.75,203.71 241.50,202.76 241.75,202.76 241.50,202.76 241.50,201.81 241.50,201.81 241.24,201.81 241.24,200.85 240.98,199.90 240.72,199.90 240.46,199.90 239.94,199.90 240.20,200.85 240.20,200.85 239.68,200.85 239.17,200.85 238.39,200.85 237.62,199.90 236.58,199.90 235.55,198.95 234.77,197.04 234.51,195.13 233.48,194.18 232.96,193.23 232.70,192.27 232.44,191.32 232.18,190.37 232.44,189.41 232.96,189.41 233.48,189.41 233.74,189.41 233.99,189.41 233.99,188.46 233.99,188.46 234.25,189.41 234.51,190.37 234.25,189.41 234.51,190.37 234.77,190.37 234.77,189.41 235.03,189.41 235.29,189.41 235.55,189.41 235.29,188.46 235.03,187.51 234.77,188.46 234.77,187.51 234.25,187.51 233.99,187.51 233.74,187.51 233.99,186.55 233.99,187.51 233.99,186.55 233.99,186.55 233.99,186.55 233.99,186.55 233.99,186.55 233.74,186.55 233.74,186.55 233.74,186.55 233.48,186.55 233.48,187.51 233.48,187.51 233.48,187.51 233.48,187.51 233.22,187.51 233.22,187.51 232.96,187.51 232.96,187.51 233.22,188.46 233.22,188.46 233.22,188.46 233.22,188.46 233.22,189.41 233.22,188.46 233.22,188.46 233.48,189.41 233.22,189.41 233.48,189.41 233.48,189.41 233.48,190.37 233.74,190.37 233.74,190.37 233.74,190.37 233.74,190.37 233.99,191.32 233.99,191.32 233.99,191.32 233.99,192.27 233.99,192.27 233.99,193.23 234.25,193.23 233.99,194.18 233.99,194.18 233.99,195.13 234.25,195.13 234.25,195.13 234.25,195.13 234.25,195.13 234.51,195.13 234.51,195.13 234.51,195.13 234.51,195.13 234.51,195.13 234.51,195.13 234.51,194.18 234.51,194.18 234.51,195.13 234.51,195.13 234.51,195.13 234.51,195.13 234.77,195.13 234.77,195.13 234.51,195.13 234.77,195.13 234.51,194.18 234.51,194.18 234.51,194.18 234.51,194.18 234.51,194.18 234.51,194.18 234.51,194.18 234.51,194.18 234.51,194.18 234.51,193.23 234.25,193.23 234.25,193.23 234.25,193.23 234.25,193.23 234.25,193.23 233.99,192.27 233.99,192.27 233.99,192.27 233.99,192.27 233.74,192.27 233.74,192.27 233.48,192.27 233.48,192.27 233.22,192.27 233.48,192.27 233.22,192.27 233.22,192.27 233.22,192.27 233.48,191.32 233.48,191.32 233.48,191.32 233.48,191.32 233.48,191.32 233.48,190.37 233.48,190.37 233.48,190.37 233.48,190.37 233.48,189.41 233.48,189.41 233.74,189.41 233.74,189.41 233.74,188.46 233.74,188.46 233.74,188.46 233.99,187.51 234.25,187.51 234.51,187.51 234.51,187.51 234.77,187.51 235.29,187.51 235.29,187.51 235.80,187.51 236.06,188.46 236.58,189.41 237.36,190.37 237.62,191.32 236.32,191.32 233.99,189.41 231.41,186.55 231.92,181.78 231.67,180.83 231.41,180.83 231.67,181.78 232.18,183.69 232.70,187.51 232.70,187.51 231.92,184.65 231.67,183.69 232.18,185.60 231.92,185.60 231.41,183.69 231.67,184.65 231.67,184.65 231.41,183.69 231.67,184.65 231.41,183.69 231.41,183.69 231.41,183.69 231.41,183.69 231.15,183.69 231.15,182.74 231.15,182.74 231.15,182.74 231.15,182.74 231.15,182.74 230.89,182.74 231.15,181.78 231.15,181.78 230.89,181.78 231.15,181.78 231.15,181.78 230.89,181.78 230.89,181.78 230.89,181.78 230.89,180.83 230.89,180.83 230.89,180.83 230.89,180.83 230.89,179.88 230.89,179.88 230.89,179.88 230.89,179.88 230.89,179.88 230.89,179.88 230.63,179.88 230.63,179.88 230.63,178.92 230.63,178.92 230.37,178.92 230.37,178.92 230.37,179.88 230.11,178.92 230.11,178.92 230.11,178.92 229.86,179.88 229.86,178.92 229.60,178.92 229.60,179.88 229.60,179.88 229.86,178.92 229.60,178.92 229.60,178.92 229.60,178.92 229.60,178.92 229.60,177.97 229.60,177.97 229.60,177.97 229.60,177.97 229.34,177.97 229.34,177.02 229.34,177.02 229.34,177.02 229.34,176.06 229.08,176.06 229.08,176.06 229.08,176.06 229.08,176.06 229.08,175.11 228.82,175.11 229.08,175.11 228.82,175.11 228.82,175.11 228.82,175.11 228.82,174.16 228.82,174.16 228.56,174.16 228.56,174.16 228.56,174.16 228.56,174.16 228.56,174.16 228.56,174.16 228.30,174.16 228.30,174.16 228.30,174.16 228.04,174.16 228.04,174.16 227.79,174.16 227.79,174.16 227.53,174.16 227.53,174.16 227.53,174.16 227.53,174.16 227.53,174.16 227.53,173.20 227.53,173.20 227.53,173.20 227.53,173.20 227.53,173.20 227.53,173.20 227.53,173.20 227.53,172.25 227.53,172.25 227.53,172.25 227.53,172.25 227.27,172.25 227.27,172.25 227.53,172.25 227.27,172.25 227.27,172.25 227.27,172.25 227.27,171.30 227.27,171.30 227.27,171.30 227.27,171.30 227.01,171.30 227.01,171.30 227.01,171.30 227.01,171.30 227.01,171.30 226.75,171.30 226.75,171.30 226.49,171.30 226.49,171.30 226.49,171.30 226.23,171.30 226.23,171.30 225.98,171.30 225.98,172.25 225.98,171.30 225.72,172.25 225.72,172.25 225.46,172.25 225.20,172.25 225.20,172.25 225.20,172.25 225.20,172.25 224.94,172.25 224.94,172.25 224.94,172.25 224.94,172.25 224.94,172.25 224.94,171.30 224.94,171.30 224.94,171.30 224.68,171.30 224.68,171.30 224.68,171.30 224.68,171.30 224.42,171.30 224.68,171.30 224.42,171.30 224.42,171.30 224.42,171.30 224.42,171.30 224.16,170.34 224.16,170.34 224.16,170.34 223.91,170.34 223.91,170.34 223.91,170.34 223.91,170.34 223.65,170.34 223.65,170.34 223.65,170.34 223.65,170.34 223.39,170.34 223.13,170.34 223.13,170.34 223.13,169.39 222.87,170.34 222.87,170.34 222.61,170.34 222.61,170.34 222.35,170.34 222.10,170.34 221.84,170.34 221.58,171.30 221.58,171.30 221.58,171.30 221.32,171.30 221.32,170.34 221.32,170.34 221.06,170.34 221.06,170.34 221.06,170.34 221.06,170.34 221.06,170.34 220.80,170.34 220.80,169.39 220.80,169.39 220.54,169.39 220.54,169.39 220.54,169.39 220.54,169.39 220.28,169.39 220.28,168.44 220.28,168.44 220.03,168.44 220.03,168.44 220.03,168.44 219.77,168.44 219.77,168.44 219.77,168.44 219.51,168.44 219.51,168.44 219.51,168.44 219.51,168.44 219.25,168.44 219.25,168.44 219.25,168.44 219.25,168.44 218.99,167.48 218.99,167.48 218.99,167.48 218.99,167.48 218.73,167.48 218.73,167.48 218.47,167.48 218.47,168.44 218.47,168.44 218.22,168.44 217.96,168.44 217.96,169.39 217.70,169.39 217.70,169.39 217.70,169.39 217.96,169.39 217.96,170.34 218.22,171.30 218.22,171.30 218.47,171.30 218.47,170.34 218.22,170.34 217.44,170.34 216.92,169.39 216.92,168.44 217.44,169.39 217.44,169.39 217.44,169.39 217.70,169.39 217.44,169.39 217.44,169.39 217.18,169.39 217.18,169.39 217.18,169.39 217.18,169.39 217.18,169.39 217.18,169.39 217.18,169.39 216.92,169.39 216.92,168.44 216.66,168.44 216.66,168.44 216.92,168.44 216.66,168.44 216.40,169.39 216.40,168.44 216.40,168.44 216.40,169.39 216.15,168.44 216.15,168.44 216.15,168.44 215.89,168.44 215.89,169.39 215.89,169.39 215.63,169.39 215.63,169.39 215.37,169.39 215.37,169.39 215.11,170.34 215.11,170.34 215.11,170.34 215.11,169.39 214.85,169.39 215.11,169.39 215.11,169.39 215.11,169.39 214.85,169.39 214.85,169.39 214.85,169.39 214.85,169.39 214.59,169.39 214.85,169.39 214.59,168.44 214.59,168.44 214.59,168.44 214.59,168.44 214.59,168.44 214.59,168.44 214.59,168.44 214.34,168.44 214.34,168.44 214.34,168.44 214.34,168.44 214.34,168.44 214.08,168.44 214.08,168.44 214.08,168.44 214.08,168.44 214.34,168.44 214.08,168.44 213.82,168.44 213.82,168.44 213.82,168.44 213.82,168.44 213.82,168.44 213.56,168.44 213.30,168.44 213.30,168.44 213.04,168.44 213.04,168.44 212.78,168.44 212.52,168.44 212.52,168.44 212.27,169.39 212.01,169.39 211.75,169.39 211.75,169.39 211.49,170.34 211.23,170.34 210.97,170.34 210.71,170.34 210.71,171.30 210.46,171.30 210.20,171.30 209.94,171.30 209.94,172.25 209.68,172.25 209.42,172.25 209.16,172.25 209.16,172.25 208.90,173.20 208.64,173.20 208.64,173.20 208.39,174.16 208.13,174.16 208.13,174.16 207.87,174.16 207.87,174.16 207.61,174.16 207.61,175.11 207.35,175.11 207.09,175.11 207.09,175.11 207.09,175.11 206.83,175.11 206.83,175.11 206.58,176.06 206.58,176.06 206.32,176.06 206.32,176.06 206.06,176.06 206.06,177.02 205.80,177.02 205.80,177.02 205.54,177.02 205.54,177.97 205.28,177.97 205.02,177.97 205.02,177.97 205.02,178.92 204.76,178.92 204.51,178.92 204.51,178.92 204.25,178.92 204.25,179.88 203.99,179.88 203.99,179.88 203.73,180.83 203.47,180.83 203.21,180.83 203.21,180.83 202.95,180.83 202.95,181.78 202.70,181.78 202.44,181.78 202.18,182.74 202.18,182.74 202.18,182.74 201.92,182.74 201.66,183.69 201.66,183.69 201.40,183.69 201.14,183.69 201.14,184.65 201.14,184.65 200.88,184.65 200.88,184.65 200.63,185.60 200.63,185.60 200.37,185.60 200.37,185.60 200.37,185.60 200.11,185.60 200.11,186.55 199.85,186.55 199.85,186.55 199.59,186.55 199.59,186.55 199.59,186.55 199.33,187.51 199.07,187.51 199.07,187.51 198.82,187.51 198.82,187.51 198.56,188.46 198.56,188.46 198.30,188.46 198.30,188.46 198.30,188.46 198.04,189.41 198.04,189.41 198.04,189.41 197.78,189.41 197.52,189.41 197.52,189.41 197.52,189.41 197.26,190.37 197.26,190.37 197.00,190.37 197.00,190.37 196.75,190.37 196.75,191.32 196.49,191.32 196.49,191.32 196.49,191.32 196.49,191.32 196.23,192.27 196.23,192.27 196.23,192.27 195.97,192.27 195.71,192.27 195.71,192.27 195.71,192.27 195.71,192.27 195.45,193.23 195.19,193.23 195.45,193.23 195.19,193.23 195.19,193.23 194.94,193.23 194.94,193.23 194.94,194.18 194.68,194.18 194.68,194.18 194.68,194.18 194.42,194.18 194.42,194.18 194.42,194.18 194.16,194.18 194.16,194.18 194.16,194.18 194.16,195.13 194.16,195.13 193.90,195.13 193.90,195.13 193.90,195.13 193.64,195.13 193.64,196.09 193.64,196.09 193.38,196.09 193.38,196.09 193.38,196.09 193.12,196.09 193.12,196.09 192.87,197.04 192.87,197.04 192.61,197.04 192.61,197.04 192.61,197.04 192.61,197.99 192.35,197.99 192.35,197.99 192.09,197.99 192.09,197.99 192.09,197.99 191.83,198.95 191.83,198.95 191.57,198.95 191.57,198.95 191.57,198.95 191.31,198.95 191.31,198.95 191.31,198.95 191.31,199.90 191.06,199.90 191.06,199.90 191.06,199.90 190.80,199.90 190.80,199.90 190.54,199.90 190.54,200.85 190.28,200.85 190.28,200.85 190.28,200.85 190.28,200.85 190.02,201.81 190.02,201.81 190.02,201.81 190.02,201.81 189.76,201.81 189.76,201.81 189.50,201.81 189.50,201.81 189.50,202.76 189.50,202.76 189.24,202.76 189.24,202.76 188.99,202.76 188.99,202.76 188.99,203.71 188.73,203.71 188.73,203.71 188.73,203.71 188.73,203.71 188.47,204.67 188.21,204.67 188.47,204.67 188.47,203.71 188.73,204.67 188.73,204.67 188.73,203.71 188.99,204.67 188.99,204.67 189.24,204.67 189.24,204.67 189.50,204.67 189.50,204.67 189.76,204.67 189.76,204.67 190.02,205.62 190.02,205.62 190.28,205.62 190.28,205.62 190.54,205.62 190.54,205.62 190.80,205.62 190.80,205.62 190.80,205.62 190.80,205.62 191.06,206.57 191.06,206.57 191.31,206.57 191.57,206.57 191.57,206.57 191.83,206.57 191.83,207.53 191.83,207.53 192.09,207.53 192.35,207.53 192.35,207.53 192.61,207.53 192.61,207.53 192.61,207.53 192.61,207.53 192.61,208.48 192.35,208.48 192.35,208.48 192.35,208.48 192.35,208.48 192.35,208.48 192.35,208.48 192.35,208.48 192.35,209.43 192.35,209.43 192.09,209.43 192.09,210.39 192.35,210.39 192.35,210.39 192.35,210.39 192.61,211.34 192.87,211.34 193.12,211.34 193.38,211.34 193.38,211.34 193.38,211.34 193.12,212.29 192.61,213.25 192.35,213.25 192.87,213.25 192.87,213.25 192.61,213.25 193.12,213.25 192.87,213.25 193.12,214.20 193.12,214.20 193.12,214.20 193.12,214.20 193.38,214.20 193.38,215.16 193.38,215.16 193.38,215.16 193.64,215.16 193.64,215.16 193.64,215.16 193.64,216.11 193.90,216.11 193.90,216.11 193.90,216.11 194.16,216.11 194.16,216.11 194.16,217.06 194.16,217.06 194.16,217.06 193.90,218.02 193.90,218.02 193.90,218.02 194.16,218.02 194.16,218.02 194.16,218.02 194.16,218.97 194.16,218.97 194.16,218.97 194.42,218.97 194.42,218.97 194.68,218.97 194.68,219.92 194.94,219.92 194.68,219.92 194.42,219.92 194.42,220.88 194.42,220.88 194.42,220.88 194.68,220.88 194.68,220.88 194.42,221.83 194.16,221.83 194.42,221.83 194.42,221.83 194.42,222.78 194.42,222.78 194.42,222.78 194.42,222.78 194.42,222.78 194.68,223.74 194.42,223.74 194.42,223.74 194.42,223.74 194.68,223.74 194.42,224.69 194.68,224.69 194.68,224.69 194.68,225.64 194.68,225.64 194.68,225.64 194.68,225.64 194.68,225.64 194.68,226.60 194.68,226.60 194.94,226.60 194.94,226.60 194.94,226.60 194.94,227.55 194.94,227.55 194.94,227.55 194.94,227.55 194.94,227.55 195.19,228.50 195.19,228.50 195.19,228.50 195.19,228.50 195.19,229.46 195.45,229.46 195.45,229.46 195.45,229.46 195.45,230.41 195.45,230.41 195.45,230.41 195.45,230.41 195.45,230.41 195.71,231.36 195.71,231.36 195.71,231.36 195.71,231.36 195.45,231.36 195.71,232.32 195.71,232.32 195.71,232.32 195.71,232.32 195.71,233.27 195.71,233.27 195.71,233.27 195.71,233.27 195.71,234.22 195.97,234.22 195.97,234.22 195.97,234.22 195.71,234.22 195.97,235.18 195.97,235.18 195.71,235.18 195.71,235.18 195.97,236.13 195.97,236.13 195.71,236.13 195.97,236.13 195.71,237.08 195.97,237.08 195.71,237.08 195.97,237.08 195.97,237.08 195.97,238.04 195.97,238.04 195.97,238.04 195.97,238.04 195.97,238.99 195.97,238.99 195.97,238.99 195.97,238.99 196.23,238.99 195.97,239.94 196.23,239.94 196.23,239.94 196.23,239.94 196.23,239.94 196.23,240.90 196.23,240.90 196.23,240.90 196.23,240.90 196.49,240.90 196.49,241.85 196.49,240.90 196.49,241.85 196.49,241.85 196.49,241.85 196.49,242.80 196.49,242.80 196.49,242.80 196.49,242.80 196.75,242.80 196.75,242.80 196.75,243.76 196.75,243.76 196.75,243.76 196.75,244.71 197.00,244.71 196.75,244.71 197.00,244.71 197.00,244.71 197.00,244.71 197.00,245.67 197.00,245.67 197.00,245.67 197.00,246.62 197.00,246.62 197.00,246.62 197.00,246.62 197.26,246.62 197.26,246.62 197.52,247.57 197.26,247.57 197.52,247.57 197.52,247.57 197.52,248.53 197.52,248.53 197.52,248.53 197.52,248.53 197.78,249.48 197.78,249.48 197.78,249.48 197.78,249.48 197.78,249.48 197.78,250.43 198.04,250.43 198.04,250.43 198.04,250.43 198.04,250.43 198.04,250.43 198.04,251.39 198.04,251.39 198.04,251.39 198.04,251.39 198.30,251.39 198.04,252.34 198.30,252.34 198.04,252.34 198.30,252.34 198.30,252.34 198.30,252.34 198.30,253.29 198.30,253.29 198.30,253.29 198.30,253.29 198.30,254.25 198.30,254.25 198.30,254.25 198.30,254.25 198.30,254.25 198.30,254.25 198.30,255.20 198.30,255.20 198.30,255.20 198.56,255.20 198.30,255.20 198.30,256.15 198.30,256.15 198.30,256.15 198.56,256.15 198.30,256.15 198.30,256.15 198.30,257.11 198.30,257.11 198.30,257.11 198.30,257.11 198.30,257.11 198.30,258.06 198.30,258.06 198.30,258.06 198.30,258.06 198.30,258.06 198.30,258.06 198.30,259.01 198.56,259.01 198.56,259.01 198.30,259.01 198.56,259.01 198.56,259.01 198.56,259.97 198.56,259.97 198.56,259.97 198.56,259.97 198.56,259.97 198.56,259.97 198.56,260.92 198.82,260.92 198.56,260.92 198.82,260.92 198.82,260.92 198.82,260.92 198.82,261.87 198.82,261.87 198.82,261.87 198.82,261.87 198.82,261.87 199.07,261.87 198.82,262.83 199.07,262.83 199.07,262.83 199.07,262.83 199.07,262.83 199.07,262.83 199.07,263.78 199.07,263.78 199.07,263.78 199.07,263.78 199.07,263.78 199.07,264.73 199.33,264.73 199.07,264.73 199.07,264.73 199.07,264.73 199.07,264.73 199.07,265.69 199.33,265.69 199.33,265.69 199.33,265.69 199.33,265.69 199.33,266.64 199.33,266.64 199.33,266.64 199.33,266.64 199.33,266.64 199.59,267.59 199.33,267.59 199.59,267.59 199.59,267.59 199.59,267.59 199.59,267.59 199.59,268.55 199.59,268.55 199.59,268.55 199.59,268.55 199.59,269.50 199.85,269.50 199.59,269.50 199.59,269.50 199.85,269.50 199.85,269.50 199.85,270.45 199.85,270.45 199.85,270.45 199.85,270.45 199.85,270.45 199.59,271.41 199.85,271.41 199.85,271.41 199.85,271.41 200.11,271.41 200.11,271.41 200.37,271.41 200.11,272.36 200.11,272.36 200.37,272.36 200.37,272.36 200.37,272.36 200.11,273.31 200.11,273.31 199.85,273.31 199.59,274.27 199.85,273.31 200.11,274.27 200.11,274.27 200.11,274.27 200.11,273.31 199.85,273.31 199.59,272.36 199.07,272.36 198.56,271.41 197.78,270.45 198.04,272.36 197.78,273.31 197.52,273.31 197.78,273.31 197.52,273.31 197.78,273.31 197.78,273.31 197.78,273.31 197.78,274.27 197.52,274.27 197.52,274.27 197.78,274.27 197.78,274.27 197.78,274.27 197.78,274.27 197.78,274.27 197.78,275.22 197.78,275.22 197.78,275.22 197.78,275.22 197.78,275.22 197.78,275.22 197.78,275.22 197.78,275.22 197.78,275.22 198.04,275.22 197.78,276.18 197.78,276.18 198.04,276.18 197.78,276.18 197.78,276.18 197.78,277.13 197.78,276.18 197.78,277.13 197.78,277.13 197.78,277.13 197.78,277.13 197.78,277.13 197.78,278.08 197.78,278.08 197.78,278.08 197.78,278.08 197.78,278.08 197.78,278.08 197.78,278.08 197.78,278.08 198.04,279.04 198.04,279.04 197.78,279.04 198.04,279.04 197.78,279.04 197.78,279.04 197.78,279.04 198.04,279.99 198.04,279.99 198.04,279.99 197.78,279.99 198.04,279.99 198.04,280.94 198.04,280.94 197.78,280.94 197.78,280.94 198.04,280.94 197.78,280.94 197.78,280.94 197.78,281.90 197.78,281.90 197.78,281.90 197.78,281.90 197.78,281.90 197.78,281.90 197.78,281.90 197.78,282.85 197.78,282.85 197.78,282.85 197.78,282.85 197.78,282.85 197.78,282.85 197.78,282.85 197.78,283.80 197.78,283.80 197.78,282.85 197.78,283.80 197.52,283.80 197.78,283.80 197.78,283.80 197.78,283.80 197.78,284.76 197.78,284.76 197.52,284.76 197.52,284.76 197.52,285.71 197.52,285.71 197.26,285.71 197.26,286.66 197.26,286.66 197.26,286.66 197.26,286.66 197.26,286.66 197.26,287.62 197.00,287.62 197.26,287.62 197.00,288.57 197.26,288.57 197.26,288.57 197.00,288.57 197.00,288.57 197.00,289.52 196.75,289.52 197.00,289.52 196.75,290.48 196.75,290.48 197.00,291.43 197.52,291.43 197.00,291.43 197.00,292.38 197.00,292.38 197.00,293.34 197.26,293.34 197.26,293.34 197.26,293.34 197.00,294.29 197.00,294.29 197.00,295.24 197.00,295.24 196.75,295.24 196.75,296.20 196.75,295.24 196.75,296.20 196.75,296.20 196.49,297.15 196.49,297.15 196.49,297.15 196.49,297.15 196.49,297.15 196.23,298.10 196.23,298.10 196.23,298.10 196.23,298.10 195.97,299.06 195.45,299.06 194.94,299.06 194.68,299.06 193.90,299.06 193.90,299.06 193.38,300.01 192.87,300.96 192.09,300.01 191.06,300.96 190.54,300.96 189.50,300.96 188.21,300.96 187.43,300.01 186.40,300.96 185.62,300.01 184.85,299.06 184.33,299.06 183.81,299.06 183.30,299.06 183.04,299.06 182.78,298.10 182.52,298.10 182.52,298.10 182.26,298.10 182.52,298.10 182.52,298.10 182.78,298.10 183.04,298.10 183.04,297.15 183.30,296.20 183.30,295.24 183.55,293.34 183.55,290.48 183.81,288.57 183.81,286.66 183.55,283.80 183.04,281.90 182.52,279.99 181.48,278.08 180.71,276.18 179.42,275.22 178.38,274.27 177.60,273.31 176.83,273.31 176.05,272.36 175.02,272.36 173.98,273.31 173.21,274.27 171.91,276.18 170.62,279.04 169.33,281.90 168.03,283.80 166.48,285.71 164.93,288.57 163.38,290.48 161.31,292.38 158.98,294.29 156.91,296.20 154.32,298.10 152.26,300.96 150.19,301.92 148.38,303.82 147.08,304.78 145.53,306.69 144.50,308.59 143.46,310.50 141.91,311.45 140.62,313.36 139.06,314.31 137.51,316.22 135.44,318.13 133.37,319.08 131.30,320.03 128.72,320.99 126.39,322.89 124.32,324.80 121.73,325.75 119.41,327.66 116.82,329.57 114.23,331.47 111.90,333.38 109.06,335.29 106.47,337.20 103.37,339.10 100.52,342.92 97.68,344.82 95.09,347.68 91.99,351.50 89.40,355.31 86.81,358.17 84.49,361.98 82.42,365.80 80.35,369.61 78.54,373.43 76.73,376.29 75.43,379.15 74.14,381.05 73.10,382.96 72.07,384.87 71.29,385.82 70.52,387.73 70.26,388.68 70.00,389.63 70.00,389.63 70.00,389.63 70.26,390.59 70.52,391.54 70.00,391.54 70.00,392.49 70.52,391.54 70.52,391.54 70.52,392.49 70.78,392.49 70.78,392.49 70.78,392.49 70.52,392.49 70.52,392.49 70.52,392.49 70.78,392.49 70.78,392.49 70.78,392.49 70.78,392.49 70.78,392.49 70.78,392.49 70.78,392.49 70.78,392.49 70.78,392.49 70.78,392.49 70.78,392.49 70.78,392.49 70.78,393.45 70.78,393.45 70.78,393.45 70.78,393.45 70.52,393.45 70.78,392.49 70.78,393.45 70.78,393.45 70.78,393.45 70.78,393.45 70.52,393.45 70.52,393.45 70.78,393.45 70.78,393.45 70.52,393.45 70.52,393.45 70.78,393.45 70.52,393.45 70.52,393.45 70.52,393.45 70.52,393.45 70.78,394.40 70.78,394.40 70.78,394.40 70.78,394.40 70.52,394.40 70.52,394.40 70.52,394.40 70.52,394.40 70.52,395.35 70.52,394.40 70.52,395.35 70.52,395.35 70.26,395.35 70.26,395.35 70.26,395.35 70.26,395.35 70.26,395.35 70.26,396.31 70.26,395.35 70.26,396.31 70.26,396.31 70.52,396.31 70.52,396.31 70.52,396.31 70.52,396.31 70.52,396.31 70.78,397.26 70.78,397.26 70.52,397.26 70.78,397.26 70.52,397.26 70.78,397.26 70.52,396.31 70.52,397.26 70.52,397.26" fill="none" stroke="#1f77b4" stroke-width="3" stroke-linejoin="round" stroke-linecap="round"/>
  <circle cx="570.00" cy="505.00" r="7" fill="#2ca02c" stroke="#ffffff" stroke-width="2"/>
  <circle cx="70.52" cy="397.26" r="7" fill="#d62728" stroke="#ffffff" stroke-width="2"/>
  <text x="75" y="525" font-family="Arial, sans-serif" font-size="13" fill="#5d6b78">East/North, meters from first GPS point</text>

  <rect x="650" y="60" width="485" height="225" rx="6" fill="#ffffff" stroke="#d7dde3"/>
  <text x="680" y="88" font-family="Arial, sans-serif" font-size="17" font-weight="700" fill="#17202a">Relative altitude</text>
  <line x1="680" y1="260" x2="1100" y2="260" stroke="#d7dde3"/>
  <polyline points="680.00,260.00 680.04,144.58 680.25,143.80 680.47,142.25 680.63,144.58 680.83,136.06 681.03,135.28 681.24,127.54 681.37,127.54 681.43,126.76 681.63,122.11 681.82,121.34 682.03,121.34 682.21,117.46 682.41,118.24 682.60,116.69 682.79,117.46 682.98,116.69 683.18,117.46 683.38,119.79 683.57,120.56 683.77,122.11 683.97,124.44 684.16,124.44 684.40,125.99 684.56,126.76 684.75,128.31 684.95,129.08 685.14,130.63 685.34,130.63 685.54,129.86 685.74,129.86 685.93,129.08 686.13,127.54 686.33,125.99 686.53,125.99 686.72,124.44 686.92,123.66 687.11,122.89 687.31,122.11 687.50,121.34 687.70,119.79 687.90,119.79 688.10,119.01 688.33,119.01 688.49,118.24 688.68,118.24 688.88,118.24 689.07,117.46 689.27,117.46 689.47,117.46 689.67,116.69 689.86,116.69 690.06,116.69 690.25,117.46 690.45,117.46 690.65,117.46 690.84,116.69 691.04,116.69 691.24,116.69 691.43,116.69 691.63,116.69 691.82,116.69 692.02,116.69 692.25,116.69 692.42,116.69 692.61,116.69 692.80,116.69 693.00,116.69 693.20,115.92 693.40,116.69 693.60,116.69 693.79,115.92 693.99,116.69 694.18,116.69 694.38,116.69 694.57,116.69 694.78,116.69 694.97,116.69 695.17,115.92 695.35,115.92 695.56,115.92 695.76,115.92 695.95,115.14 696.18,115.14 696.34,115.14 696.55,114.37 696.74,114.37 696.93,113.59 697.13,113.59 697.33,113.59 697.53,113.59 697.73,113.59 697.91,113.59 698.11,113.59 698.31,112.82 698.51,112.82 698.71,112.82 698.90,112.82 699.09,112.82 699.29,112.82 699.49,112.82 699.68,112.82 699.88,112.82 700.11,112.82 700.27,112.82 700.46,112.82 700.67,112.82 700.86,112.82 701.06,112.82 701.26,112.04 701.45,112.04 701.65,112.04 701.85,112.04 702.04,112.04 702.24,111.27 702.43,111.27 702.63,111.27 702.83,111.27 703.02,111.27 703.22,110.49 703.42,110.49 703.61,110.49 703.81,110.49 704.04,110.49 704.20,110.49 704.40,109.72 704.60,109.72 704.79,109.72 704.99,109.72 705.18,109.72 705.38,109.72 705.57,109.72 705.77,108.94 705.97,108.94 706.17,108.94 706.36,108.94 706.56,108.94 706.75,108.94 706.95,108.17 707.15,108.17 707.35,108.17 707.54,108.17 707.74,108.17 707.97,108.17 708.12,108.17 708.33,108.17 708.52,107.39 708.72,107.39 708.91,107.39 709.11,107.39 709.31,107.39 709.50,107.39 709.70,106.62 709.90,106.62 710.09,106.62 710.29,106.62 710.49,106.62 710.67,106.62 710.88,106.62 711.07,106.62 711.27,106.62 711.47,106.62 711.67,106.62 711.90,106.62 712.06,105.85 712.25,105.85 712.45,105.85 712.65,105.85 712.84,105.85 713.04,105.85 713.23,105.85 713.44,105.07 713.63,105.07 713.83,105.07 714.02,105.07 714.22,105.07 714.42,105.07 714.61,105.07 714.81,105.07 715.01,105.07 715.20,105.07 715.40,105.07 715.59,105.07 715.82,105.07 715.98,105.07 716.19,105.07 716.38,104.30 716.58,104.30 716.77,104.30 716.97,104.30 717.17,104.30 717.36,104.30 717.56,104.30 717.76,104.30 717.95,104.30 718.15,104.30 718.34,104.30 718.54,104.30 718.74,104.30 718.94,104.30 719.13,104.30 719.33,104.30 719.52,104.30 719.76,104.30 719.92,104.30 720.11,104.30 720.31,104.30 720.50,104.30 720.70,104.30 720.89,104.30 721.10,104.30 721.29,104.30 721.49,104.30 721.69,104.30 721.88,104.30 722.08,104.30 722.27,104.30 722.47,104.30 722.67,104.30 722.87,104.30 723.06,104.30 723.26,104.30 723.44,104.30 723.69,104.30 723.84,104.30 724.04,104.30 724.24,104.30 724.44,104.30 724.63,104.30 724.83,104.30 725.02,104.30 725.22,104.30 725.42,104.30 725.62,104.30 725.81,104.30 726.00,104.30 726.20,104.30 726.40,104.30 726.59,104.30 726.79,104.30 726.99,104.30 727.19,104.30 727.38,104.30 727.62,104.30 727.77,103.52 727.97,103.52 728.17,103.52 728.36,103.52 728.55,104.30 728.75,103.52 728.95,104.30 729.15,103.52 729.34,103.52 729.54,103.52 729.74,103.52 729.93,104.30 730.13,104.30 730.33,104.30 730.52,104.30 730.72,104.30 730.92,104.30 731.10,104.30 731.31,104.30 731.54,104.30 731.70,104.30 731.90,104.30 732.10,104.30 732.29,103.52 732.49,104.30 732.68,103.52 732.88,103.52 733.07,103.52 733.28,103.52 733.47,103.52 733.66,103.52 733.86,103.52 734.06,103.52 734.25,103.52 734.45,103.52 734.65,103.52 734.85,103.52 735.04,103.52 735.24,103.52 735.47,103.52 735.64,103.52 735.82,103.52 736.02,103.52 736.22,103.52 736.41,103.52 736.61,103.52 736.81,103.52 737.00,103.52 737.20,103.52 737.40,103.52 737.59,103.52 737.79,104.30 737.99,103.52 738.18,104.30 738.38,104.30 738.58,104.30 738.76,104.30 738.97,104.30 739.17,104.30 739.40,104.30 739.56,104.30 739.76,104.30 739.95,104.30 740.15,104.30 740.34,104.30 740.54,104.30 740.73,104.30 740.93,104.30 741.13,104.30 741.32,104.30 741.52,104.30 741.72,104.30 741.92,104.30 742.12,104.30 742.31,104.30 742.51,104.30 742.70,104.30 742.90,104.30 743.09,104.30 743.33,104.30 743.48,104.30 743.68,104.30 743.87,104.30 744.08,104.30 744.27,104.30 744.47,104.30 744.66,104.30 744.86,104.30 745.06,104.30 745.26,104.30 745.45,104.30 745.65,103.52 745.84,103.52 746.04,103.52 746.24,103.52 746.43,103.52 746.63,103.52 746.83,103.52 747.02,103.52 747.26,103.52 747.42,103.52 747.61,103.52 747.81,103.52 748.00,103.52 748.20,103.52 748.39,103.52 748.59,103.52 748.79,103.52 748.98,103.52 749.18,103.52 749.38,103.52 749.58,103.52 749.77,103.52 749.97,103.52 750.16,103.52 750.36,103.52 750.56,103.52 750.75,103.52 750.95,103.52 751.18,103.52 751.35,103.52 751.53,103.52 751.74,103.52 751.93,103.52 752.13,103.52 752.33,103.52 752.52,103.52 752.72,102.75 752.92,102.75 753.11,102.75 753.31,102.75 753.50,102.75 753.70,102.75 753.90,102.75 754.09,102.75 754.29,102.75 754.49,102.75 754.68,102.75 754.88,102.75 755.11,102.75 755.28,102.75 755.47,102.75 755.66,102.75 755.86,102.75 756.06,102.75 756.26,102.75 756.45,102.75 756.64,102.75 756.84,102.75 757.04,102.75 757.24,102.75 757.43,101.97 757.63,101.97 757.83,101.97 758.02,101.97 758.22,101.97 758.41,101.97 758.61,101.97 758.81,101.97 759.04,101.97 759.19,101.97 759.40,101.97 759.59,101.97 759.79,101.97 759.99,101.97 760.18,101.97 760.38,101.97 760.58,101.97 760.77,101.97 760.97,101.97 761.17,101.97 761.36,101.97 761.56,101.97 761.75,101.97 761.95,101.97 762.15,101.97 762.34,101.97 762.54,101.97 762.74,101.97 762.97,101.97 763.13,101.97 763.33,101.97 763.52,101.97 763.72,101.97 763.91,101.97 764.11,101.97 764.30,101.97 764.51,101.97 764.70,101.97 764.90,101.97 765.09,101.97 765.29,101.97 765.48,101.97 765.68,101.97 765.88,101.97 766.08,101.97 766.27,101.97 766.47,101.97 766.67,101.97 766.89,101.97 767.06,101.97 767.26,101.97 767.45,101.97 767.64,102.75 767.84,102.75 768.04,102.75 768.24,101.97 768.43,101.97 768.63,102.75 768.82,102.75 769.02,101.97 769.22,102.75 769.41,101.97 769.61,102.75 769.81,102.75 770.00,101.97 770.20,102.75 770.40,102.75 770.60,102.75 770.83,102.75 770.99,102.75 771.18,102.75 771.38,102.75 771.58,102.75 771.77,102.75 771.96,102.75 772.17,101.97 772.36,102.75 772.56,102.75 772.75,101.97 772.95,102.75 773.15,102.75 773.34,102.75 773.54,102.75 773.74,102.75 773.93,102.75 774.13,102.75 774.32,102.75 774.52,102.75 774.76,101.97 774.92,101.97 775.11,101.97 775.31,101.97 775.50,101.20 775.70,101.20 775.90,101.20 776.09,101.20 776.29,101.20 776.49,101.20 776.68,101.20 776.88,101.20 777.07,101.20 777.27,101.20 777.47,101.20 777.67,101.20 777.86,101.20 778.06,101.20 778.25,101.20 778.46,101.20 778.69,101.20 778.84,101.20 779.04,101.20 779.24,101.20 779.44,101.20 779.62,101.20 779.83,101.20 780.02,101.20 780.22,101.20 780.41,101.20 780.61,101.20 780.81,101.20 781.01,101.97 781.20,101.97 781.40,101.97 781.59,101.97 781.79,101.97 781.99,101.97 782.18,101.97 782.38,101.97 782.62,101.97 782.77,101.97 782.97,101.97 783.16,101.97 783.36,101.97 783.56,101.97 783.76,101.97 783.95,101.97 784.15,101.97 784.34,101.97 784.54,101.97 784.73,101.97 784.94,101.97 785.13,101.97 785.33,101.97 785.52,101.97 785.72,101.97 785.91,101.97 786.11,101.97 786.31,101.97 786.54,102.75 786.70,102.75 786.90,102.75 787.09,102.75 787.28,102.75 787.49,102.75 787.68,102.75 787.88,102.75 788.08,102.75 788.27,102.75 788.47,102.75 788.67,102.75 788.86,102.75 789.06,102.75 789.25,102.75 789.45,103.52 789.65,103.52 789.83,103.52 790.04,103.52 790.24,103.52 790.47,103.52 790.63,103.52 790.83,103.52 791.03,103.52 791.22,103.52 791.42,103.52 791.61,103.52 791.81,103.52 792.00,103.52 792.20,103.52 792.39,103.52 792.60,103.52 792.79,103.52 792.99,103.52 793.18,104.30 793.38,103.52 793.57,104.30 793.77,103.52 793.97,103.52 794.18,103.52 794.40,103.52 794.56,103.52 794.75,103.52 794.95,103.52 795.15,103.52 795.34,103.52 795.54,103.52 795.74,103.52 795.94,103.52 796.13,103.52 796.33,102.75 796.52,102.75 796.72,102.75 796.92,102.75 797.11,102.75 797.31,102.75 797.50,102.75 797.70,102.75 797.90,101.97 798.10,101.97 798.29,101.97 798.49,101.97 798.68,101.97 798.88,101.97 799.08,101.97 799.27,101.97 799.47,101.97 799.67,101.97 799.86,101.97 800.05,101.97 800.26,101.20 800.45,101.20 800.65,101.97 800.85,101.20 801.04,101.20 801.24,101.20 801.43,101.20 801.63,101.20 801.83,101.20 802.03,101.20 802.22,101.20 802.42,101.20 802.60,100.42 802.81,100.42 803.00,100.42 803.20,100.42 803.40,100.42 803.60,101.20 803.79,101.20 803.99,101.20 804.18,101.20 804.38,101.20 804.58,101.20 804.77,101.20 804.97,101.20 805.16,101.20 805.36,101.20 805.56,101.20 805.75,101.20 805.95,101.20 806.15,101.20 806.35,101.20 806.54,101.20 806.74,101.20 806.94,101.20 807.13,101.97 807.32,101.97 807.52,101.97 807.71,101.97 807.91,101.97 808.11,101.97 808.31,101.97 808.50,101.97 808.70,101.97 808.90,101.97 809.10,101.97 809.29,101.97 809.49,101.97 809.68,101.97 809.88,101.97 810.08,101.97 810.26,101.97 810.47,101.97 810.67,101.97 810.86,101.97 811.06,101.97 811.26,101.20 811.45,101.20 811.65,101.20 811.85,101.20 812.04,101.20 812.24,101.20 812.44,100.42 812.63,100.42 812.82,100.42 813.02,100.42 813.22,100.42 813.41,100.42 813.61,100.42 813.81,100.42 814.01,100.42 814.20,100.42 814.40,100.42 814.59,100.42 814.80,100.42 814.99,100.42 815.18,100.42 815.37,100.42 815.57,100.42 815.77,100.42 815.97,100.42 816.16,100.42 816.36,100.42 816.56,101.20 816.75,101.20 816.95,101.20 817.15,101.20 817.34,101.20 817.54,101.20 817.74,101.20 817.92,101.20 818.13,101.97 818.32,101.97 818.52,101.97 818.72,101.97 818.92,101.97 819.11,101.97 819.31,101.97 819.50,101.97 819.70,101.97 819.90,101.97 820.10,101.97 820.29,101.97 820.48,101.97 820.68,101.97 820.88,101.97 821.07,101.97 821.27,101.97 821.47,101.97 821.67,101.97 821.86,101.20 822.06,101.20 822.25,101.20 822.45,100.42 822.65,100.42 822.85,100.42 823.03,99.65 823.24,99.65 823.43,98.87 823.63,98.10 823.83,98.10 824.03,97.32 824.22,97.32 824.42,96.55 824.61,96.55 824.81,95.77 825.00,95.77 825.20,95.00 825.40,95.00 825.59,95.00 825.79,95.00 825.99,95.00 826.18,95.00 826.38,95.77 826.58,95.77 826.77,96.55 826.97,96.55 827.16,96.55 827.37,97.32 827.56,97.32 827.76,97.32 827.95,97.32 828.14,98.10 828.34,98.10 828.54,98.10 828.74,98.10 828.94,98.10 829.13,98.10 829.33,98.10 829.52,98.10 829.72,98.10 829.91,98.10 830.12,98.10 830.31,98.10 830.51,98.10 830.69,98.10 830.90,98.10 831.09,98.10 831.29,98.10 831.49,98.10 831.68,98.10 831.88,98.87 832.08,98.87 832.27,98.87 832.47,98.87 832.67,98.87 832.86,98.87 833.06,98.87 833.25,98.10 833.45,98.10 833.65,98.10 833.84,98.10 834.04,98.10 834.24,98.10 834.44,98.10 834.63,98.10 834.83,98.10 835.02,98.10 835.22,98.10 835.42,98.10 835.61,98.10 835.80,98.10 836.01,98.10 836.20,98.10 836.40,98.10 836.59,98.10 836.79,98.10 836.99,98.10 837.18,98.10 837.38,98.10 837.58,98.10 837.77,98.10 837.97,98.10 838.16,98.10 838.36,98.10 838.56,98.10 838.76,98.10 838.95,98.10 839.15,98.10 839.35,98.10 839.55,98.10 839.74,98.10 839.94,98.10 840.13,98.10 840.33,98.10 840.52,98.10 840.72,98.10 840.90,98.10 841.12,98.10 841.31,98.10 841.51,98.10 841.70,98.10 841.90,98.10 842.10,98.10 842.29,98.10 842.49,98.10 842.69,98.10 842.88,98.10 843.08,98.10 843.27,98.10 843.46,98.10 843.66,98.10 843.86,98.87 844.06,98.87 844.26,98.87 844.45,98.87 844.65,98.87 844.84,98.87 845.04,98.87 845.24,98.87 845.43,98.87 845.63,98.87 845.83,98.87 846.01,98.87 846.22,98.87 846.41,98.87 846.61,98.87 846.81,98.87 847.01,98.87 847.20,98.87 847.40,98.87 847.59,98.87 847.80,98.87 847.99,99.65 848.18,99.65 848.38,99.65 848.57,99.65 848.77,99.65 848.97,99.65 849.16,99.65 849.36,99.65 849.56,99.65 849.76,99.65 849.95,99.65 850.15,99.65 850.34,99.65 850.54,99.65 850.74,99.65 850.93,99.65 851.12,99.65 851.33,99.65 851.52,99.65 851.72,99.65 851.92,99.65 852.11,99.65 852.31,99.65 852.51,99.65 852.70,99.65 852.90,99.65 853.10,99.65 853.29,99.65 853.49,99.65 853.67,99.65 853.88,99.65 854.08,99.65 854.28,99.65 854.47,99.65 854.67,99.65 854.86,99.65 855.06,99.65 855.26,100.42 855.46,100.42 855.65,100.42 855.84,100.42 856.04,100.42 856.23,100.42 856.43,100.42 856.63,100.42 856.83,100.42 857.03,100.42 857.22,100.42 857.42,100.42 857.61,100.42 857.81,100.42 858.00,100.42 858.21,101.20 858.40,100.42 858.60,101.20 858.78,101.20 858.99,101.20 859.18,101.20 859.38,101.20 859.58,101.20 859.77,101.20 859.96,101.20 860.17,101.20 860.36,101.20 860.56,101.20 860.75,101.20 860.95,101.20 861.14,101.20 861.34,101.20 861.53,101.20 861.74,101.20 861.93,101.20 862.13,101.20 862.32,101.20 862.52,101.20 862.72,101.20 862.92,101.20 863.11,101.20 863.31,101.20 863.50,101.20 863.70,101.20 863.89,101.20 864.09,101.20 864.29,101.20 864.49,101.20 864.68,101.20 864.88,101.20 865.07,101.20 865.27,101.20 865.46,101.20 865.66,101.20 865.86,101.20 866.05,101.20 866.25,101.20 866.45,101.20 866.64,101.20 866.84,101.20 867.03,101.20 867.23,101.20 867.43,101.20 867.62,101.20 867.81,101.20 868.02,101.20 868.21,101.20 868.41,101.20 868.61,101.97 868.80,101.20 869.00,101.20 869.20,101.20 869.39,101.20 869.59,101.97 869.79,101.97 869.98,101.97 870.18,101.97 870.37,101.97 870.57,101.97 870.77,101.97 870.97,101.97 871.16,101.97 871.36,101.97 871.55,101.97 871.75,101.97 871.95,101.97 872.15,101.97 872.34,101.97 872.54,101.97 872.73,101.97 872.93,101.97 873.12,101.97 873.32,101.97 873.52,101.97 873.72,101.97 873.91,101.97 874.11,101.97 874.30,101.97 874.50,102.75 874.70,102.75 874.89,102.75 875.09,102.75 875.29,102.75 875.49,102.75 875.68,102.75 875.87,102.75 876.07,102.75 876.27,102.75 876.47,102.75 876.66,102.75 876.85,102.75 877.05,102.75 877.25,102.75 877.44,102.75 877.64,102.75 877.84,102.75 878.04,102.75 878.23,102.75 878.43,102.75 878.62,102.75 878.82,102.75 879.02,102.75 879.22,102.75 879.41,102.75 879.61,102.75 879.80,102.75 880.00,102.75 880.20,102.75 880.40,102.75 880.59,102.75 880.79,102.75 880.98,102.75 881.18,102.75 881.37,102.75 881.57,102.75 881.77,102.75 881.97,102.75 882.16,102.75 882.36,102.75 882.55,102.75 882.75,102.75 882.95,102.75 883.15,102.75 883.34,102.75 883.54,102.75 883.73,102.75 883.93,102.75 884.12,102.75 884.33,102.75 884.52,102.75 884.72,102.75 884.91,102.75 885.11,102.75 885.30,102.75 885.50,102.75 885.70,102.75 885.90,102.75 886.09,102.75 886.29,102.75 886.48,102.75 886.68,102.75 886.87,102.75 887.07,102.75 887.27,102.75 887.46,102.75 887.66,103.52 887.86,102.75 888.05,103.52 888.25,103.52 888.45,103.52 888.64,103.52 888.84,103.52 889.03,103.52 889.23,103.52 889.43,103.52 889.62,103.52 889.82,103.52 890.02,103.52 890.22,103.52 890.41,103.52 890.61,103.52 890.80,103.52 891.00,103.52 891.20,103.52 891.40,103.52 891.59,103.52 891.79,103.52 891.98,103.52 892.18,103.52 892.37,103.52 892.57,103.52 892.77,103.52 892.97,104.30 893.17,104.30 893.36,104.30 893.56,104.30 893.75,104.30 893.96,104.30 894.14,104.30 894.35,104.30 894.54,104.30 894.73,104.30 894.93,104.30 895.13,104.30 895.33,104.30 895.52,104.30 895.72,104.30 895.92,104.30 896.11,104.30 896.31,104.30 896.50,104.30 896.70,104.30 896.90,104.30 897.09,104.30 897.29,104.30 897.48,104.30 897.68,104.30 897.88,104.30 898.07,104.30 898.27,104.30 898.46,104.30 898.66,104.30 898.86,105.07 899.06,105.07 899.25,105.07 899.45,105.07 899.64,105.07 899.84,105.07 900.03,105.07 900.23,105.07 900.42,105.07 900.63,105.07 900.82,105.07 901.02,105.07 901.22,105.07 901.42,105.07 901.61,105.07 901.81,105.85 902.00,105.07 902.20,105.07 902.39,105.85 902.59,105.07 902.79,105.85 902.98,105.85 903.18,105.85 903.38,105.85 903.57,105.85 903.77,105.85 903.97,105.85 904.17,105.85 904.36,105.85 904.56,105.85 904.75,105.85 904.95,105.85 905.15,105.85 905.34,105.85 905.53,105.85 905.73,105.85 905.93,105.85 906.13,106.62 906.32,105.85 906.52,106.62 906.72,105.85 906.92,106.62 907.11,106.62 907.31,106.62 907.50,106.62 907.70,106.62 907.89,106.62 908.09,106.62 908.29,106.62 908.48,106.62 908.68,106.62 908.87,106.62 909.07,106.62 909.27,106.62 909.46,106.62 909.66,106.62 909.86,106.62 910.05,106.62 910.25,106.62 910.44,106.62 910.64,106.62 910.84,106.62 911.03,106.62 911.23,106.62 911.43,106.62 911.63,107.39 911.83,107.39 912.03,107.39 912.22,107.39 912.41,107.39 912.61,107.39 912.81,107.39 913.00,107.39 913.20,107.39 913.40,107.39 913.59,107.39 913.79,107.39 913.98,107.39 914.18,107.39 914.38,107.39 914.57,107.39 914.77,107.39 914.97,107.39 915.17,107.39 915.36,107.39 915.56,107.39 915.75,107.39 915.95,107.39 916.14,107.39 916.34,107.39 916.53,107.39 916.73,107.39 916.93,107.39 917.13,107.39 917.32,107.39 917.52,107.39 917.72,107.39 917.91,107.39 918.11,107.39 918.31,107.39 918.50,107.39 918.70,107.39 918.89,107.39 919.09,107.39 919.28,108.17 919.48,108.17 919.68,108.17 919.88,108.17 920.07,108.17 920.27,108.17 920.46,108.17 920.66,108.17 920.86,108.17 921.06,108.17 921.25,108.17 921.45,108.17 921.64,108.17 921.84,108.94 922.03,108.94 922.23,108.94 922.43,108.94 922.63,108.94 922.82,108.94 923.02,108.94 923.22,108.94 923.42,108.94 923.61,108.94 923.81,108.94 924.00,108.94 924.20,108.94 924.39,108.94 924.59,108.94 924.78,109.72 924.99,109.72 925.18,109.72 925.38,109.72 925.57,109.72 925.77,109.72 925.96,109.72 926.16,109.72 926.36,109.72 926.56,109.72 926.75,109.72 926.95,109.72 927.14,109.72 927.34,109.72 927.53,109.72 927.74,109.72 927.93,110.49 928.13,110.49 928.32,110.49 928.52,110.49 928.71,110.49 928.91,110.49 929.11,110.49 929.30,110.49 929.50,110.49 929.70,110.49 929.89,110.49 930.09,110.49 930.28,110.49 930.48,110.49 930.68,110.49 930.87,110.49 931.08,111.27 931.27,111.27 931.47,111.27 931.66,111.27 931.86,111.27 932.05,111.27 932.25,111.27 932.44,111.27 932.64,111.27 932.84,111.27 933.04,111.27 933.23,111.27 933.44,111.27 933.63,111.27 933.83,111.27 934.02,112.04 934.22,112.04 934.41,112.04 934.61,112.04 934.81,112.04 935.01,112.04 935.20,112.04 935.40,112.04 935.59,112.04 935.79,112.04 935.98,112.04 936.18,112.04 936.37,112.04 936.57,112.82 936.77,112.82 936.96,112.82 937.17,112.82 937.35,112.82 937.56,112.82 937.75,112.82 937.95,112.82 938.14,112.82 938.34,112.82 938.54,112.82 938.74,112.82 938.93,112.82 939.13,112.82 939.32,113.59 939.52,113.59 939.71,113.59 939.91,113.59 940.11,113.59 940.31,113.59 940.50,113.59 940.70,113.59 940.89,113.59 941.09,113.59 941.28,113.59 941.49,114.37 941.68,114.37 941.88,114.37 942.07,114.37 942.27,114.37 942.47,114.37 942.66,114.37 942.85,114.37 943.06,114.37 943.25,114.37 943.45,114.37 943.64,114.37 943.84,114.37 944.04,115.14 944.24,115.14 944.43,115.14 944.63,115.14 944.82,115.14 945.02,115.14 945.21,115.14 945.41,115.14 945.61,115.14 945.81,115.14 946.00,115.14 946.20,115.14 946.39,115.14 946.59,115.14 946.79,115.14 946.99,115.14 947.18,115.14 947.38,115.14 947.57,115.14 947.77,115.92 947.97,115.14 948.16,115.92 948.35,115.92 948.55,115.92 948.75,115.92 948.94,115.92 949.14,115.92 949.34,115.92 949.54,115.92 949.73,115.92 949.93,115.92 950.13,115.92 950.32,115.92 950.52,115.92 950.71,115.92 950.91,115.92 951.11,115.92 951.30,115.92 951.50,115.92 951.70,115.92 951.89,115.92 952.09,115.92 952.28,115.92 952.48,116.69 952.68,116.69 952.87,116.69 953.07,116.69 953.27,116.69 953.47,116.69 953.66,116.69 953.86,116.69 954.05,116.69 954.25,116.69 954.44,116.69 954.64,116.69 954.84,116.69 955.04,116.69 955.24,116.69 955.43,116.69 955.63,116.69 955.82,116.69 956.02,117.46 956.22,117.46 956.41,117.46 956.61,117.46 956.80,117.46 957.00,117.46 957.19,117.46 957.39,117.46 957.59,117.46 957.78,117.46 957.99,117.46 958.18,117.46 958.38,117.46 958.57,117.46 958.77,117.46 958.96,118.24 959.16,117.46 959.35,118.24 959.55,118.24 959.74,118.24 959.94,118.24 960.14,118.24 960.34,118.24 960.53,118.24 960.73,118.24 960.93,118.24 961.12,118.24 961.32,118.24 961.52,118.24 961.71,119.01 961.91,119.01 962.10,119.01 962.30,119.01 962.50,119.01 962.69,119.01 962.89,119.01 963.09,119.01 963.28,119.01 963.48,119.01 963.67,119.79 963.87,119.79 964.07,119.79 964.27,119.79 964.46,119.79 964.66,119.79 964.85,119.79 965.05,119.79 965.24,119.79 965.44,119.79 965.64,120.56 965.84,120.56 966.03,120.56 966.23,120.56 966.43,120.56 966.63,120.56 966.82,120.56 967.02,121.34 967.21,121.34 967.41,121.34 967.60,121.34 967.80,121.34 967.99,121.34 968.19,121.34 968.39,121.34 968.59,122.11 968.78,122.11 968.98,122.11 969.17,122.11 969.37,122.11 969.57,122.11 969.76,122.11 969.96,122.11 970.16,122.11 970.35,122.11 970.55,122.89 970.74,122.89 970.94,122.89 971.14,122.89 971.34,122.89 971.53,122.89 971.73,123.66 971.93,123.66 972.12,123.66 972.32,123.66 972.51,123.66 972.72,123.66 972.91,123.66 973.11,123.66 973.30,123.66 973.49,124.44 973.69,124.44 973.89,124.44 974.08,124.44 974.28,124.44 974.48,124.44 974.67,124.44 974.88,125.21 975.07,125.21 975.27,125.21 975.46,125.21 975.66,125.21 975.86,125.21 976.04,125.21 976.24,125.99 976.44,125.99 976.64,125.99 976.84,125.99 977.04,125.99 977.23,125.99 977.43,125.99 977.62,126.76 977.82,126.76 978.01,126.76 978.21,126.76 978.41,126.76 978.60,126.76 978.80,126.76 978.99,126.76 979.19,127.54 979.39,127.54 979.59,127.54 979.78,127.54 979.98,127.54 980.18,127.54 980.37,127.54 980.57,128.31 980.76,128.31 980.96,128.31 981.16,128.31 981.35,128.31 981.55,128.31 981.74,128.31 981.95,129.08 982.14,129.08 982.34,129.08 982.53,129.08 982.73,129.08 982.93,129.08 983.13,129.08 983.32,129.08 983.52,129.86 983.71,129.86 983.91,129.86 984.10,129.86 984.30,129.86 984.49,129.86 984.69,129.86 984.89,130.63 985.09,130.63 985.28,130.63 985.48,130.63 985.67,130.63 985.87,130.63 986.07,130.63 986.27,130.63 986.46,130.63 986.66,131.41 986.85,131.41 987.05,131.41 987.24,131.41 987.45,131.41 987.64,131.41 987.84,131.41 988.03,131.41 988.23,132.18 988.43,132.18 988.63,132.18 988.82,132.18 989.02,132.18 989.21,132.18 989.41,132.18 989.60,132.18 989.80,132.18 990.00,132.96 990.19,132.96 990.39,132.96 990.59,132.96 990.78,132.96 990.98,132.96 991.18,132.96 991.38,132.96 991.57,132.96 991.76,133.73 991.96,133.73 992.16,133.73 992.35,133.73 992.54,133.73 992.75,133.73 992.94,133.73 993.14,133.73 993.34,134.51 993.53,134.51 993.73,134.51 993.93,134.51 994.12,134.51 994.32,134.51 994.52,134.51 994.71,135.28 994.91,135.28 995.11,135.28 995.30,135.28 995.49,135.28 995.69,135.28 995.89,135.28 996.08,135.28 996.28,136.06 996.48,136.06 996.68,136.06 996.87,136.06 997.07,136.06 997.26,136.06 997.46,136.83 997.66,136.83 997.85,136.83 998.04,136.83 998.25,136.83 998.45,136.83 998.64,136.83 998.84,137.61 999.04,137.61 999.23,137.61 999.43,137.61 999.62,137.61 999.82,137.61 1000.02,137.61 1000.21,138.38 1000.41,138.38 1000.60,138.38 1000.80,138.38 1001.00,138.38 1001.19,138.38 1001.39,138.38 1001.59,138.38 1001.78,139.15 1001.98,139.15 1002.18,139.15 1002.37,139.15 1002.57,139.15 1002.76,139.15 1002.96,139.15 1003.15,139.93 1003.35,139.93 1003.55,139.93 1003.75,139.93 1003.94,139.93 1004.14,139.93 1004.34,139.93 1004.53,139.93 1004.73,140.70 1004.93,140.70 1005.12,140.70 1005.32,140.70 1005.51,140.70 1005.71,140.70 1005.90,140.70 1006.10,141.48 1006.30,141.48 1006.50,141.48 1006.69,141.48 1006.89,141.48 1007.08,141.48 1007.28,141.48 1007.48,141.48 1007.67,142.25 1007.87,142.25 1008.07,142.25 1008.26,142.25 1008.46,142.25 1008.65,142.25 1008.85,142.25 1009.05,142.25 1009.24,143.03 1009.44,143.03 1009.64,143.03 1009.83,143.03 1010.03,143.03 1010.23,143.03 1010.42,143.03 1010.62,143.80 1010.82,143.80 1011.02,143.80 1011.21,143.80 1011.40,143.80 1011.60,143.80 1011.80,143.80 1011.99,143.80 1012.19,144.58 1012.39,144.58 1012.59,144.58 1012.78,144.58 1012.98,144.58 1013.18,144.58 1013.38,144.58 1013.57,144.58 1013.77,145.35 1013.97,145.35 1014.16,145.35 1014.36,145.35 1014.56,145.35 1014.76,145.35 1014.95,145.35 1015.14,145.35 1015.34,145.35 1015.53,146.13 1015.73,146.13 1015.93,146.13 1016.13,146.13 1016.32,146.13 1016.52,146.13 1016.71,146.13 1016.91,146.13 1017.11,146.13 1017.31,146.90 1017.50,146.90 1017.70,146.90 1017.89,146.90 1018.09,146.90 1018.28,146.90 1018.49,146.90 1018.68,146.90 1018.88,147.68 1019.07,147.68 1019.27,147.68 1019.47,147.68 1019.66,147.68 1019.86,147.68 1020.06,147.68 1020.25,147.68 1020.45,147.68 1020.64,148.45 1020.84,148.45 1021.04,148.45 1021.23,148.45 1021.43,148.45 1021.62,148.45 1021.82,148.45 1022.02,148.45 1022.21,148.45 1022.41,148.45 1022.61,148.45 1022.81,149.23 1023.00,149.23 1023.20,149.23 1023.39,149.23 1023.59,149.23 1023.79,149.23 1023.98,149.23 1024.18,149.23 1024.38,149.23 1024.58,150.00 1024.77,150.00 1024.97,150.00 1025.16,150.00 1025.36,150.00 1025.55,150.00 1025.75,150.00 1025.95,150.00 1026.15,150.77 1026.34,150.77 1026.54,150.77 1026.73,150.77 1026.93,150.77 1027.12,150.77 1027.32,150.77 1027.52,150.77 1027.72,150.77 1027.91,151.55 1028.11,151.55 1028.30,151.55 1028.50,151.55 1028.70,151.55 1028.90,151.55 1029.09,151.55 1029.29,151.55 1029.48,152.32 1029.68,152.32 1029.89,152.32 1030.12,152.32 1030.27,152.32 1030.47,152.32 1030.66,152.32 1030.86,152.32 1031.05,152.32 1031.25,152.32 1031.45,152.32 1031.65,152.32 1031.84,152.32 1032.04,152.32 1032.23,152.32 1032.43,152.32 1032.63,152.32 1032.82,152.32 1033.01,152.32 1033.21,152.32 1033.40,152.32 1033.61,152.32 1033.80,152.32 1034.00,152.32 1034.19,152.32 1034.39,152.32 1034.58,152.32 1034.78,153.10 1034.98,153.10 1035.17,153.10 1035.37,153.10 1035.56,153.10 1035.76,153.10 1035.96,153.10 1036.16,153.10 1036.35,153.10 1036.55,153.10 1036.75,153.10 1036.94,153.10 1037.14,153.10 1037.33,153.10 1037.54,153.10 1037.73,153.10 1037.93,153.10 1038.12,153.10 1038.32,153.10 1038.52,153.10 1038.71,153.10 1038.91,153.10 1039.10,153.10 1039.30,153.10 1039.50,153.10 1039.69,153.10 1039.89,153.10 1040.08,153.10 1040.29,153.10 1040.48,153.87 1040.68,153.87 1040.87,153.10 1041.06,153.87 1041.26,153.87 1041.46,153.87 1041.66,153.87 1041.86,153.87 1042.05,153.87 1042.25,153.87 1042.44,153.87 1042.64,153.87 1042.84,153.87 1043.04,153.87 1043.23,153.87 1043.43,153.87 1043.62,153.87 1043.82,153.87 1044.01,153.87 1044.21,153.87 1044.40,153.87 1044.61,153.87 1044.80,153.87 1045.00,153.87 1045.19,153.87 1045.39,153.87 1045.58,153.87 1045.78,153.87 1045.98,153.87 1046.18,153.87 1046.37,153.87 1046.56,153.87 1046.77,153.87 1046.96,153.87 1047.16,153.87 1047.35,154.65 1047.55,154.65 1047.75,154.65 1047.94,154.65 1048.14,154.65 1048.34,154.65 1048.53,154.65 1048.73,154.65 1048.93,154.65 1049.12,154.65 1049.32,154.65 1049.51,154.65 1049.71,154.65 1049.91,154.65 1050.10,154.65 1050.30,154.65 1050.50,154.65 1050.70,154.65 1050.89,154.65 1051.09,155.42 1051.28,155.42 1051.49,155.42 1051.67,155.42 1051.87,155.42 1052.07,155.42 1052.26,155.42 1052.47,155.42 1052.66,155.42 1052.85,155.42 1053.05,155.42 1053.25,155.42 1053.45,155.42 1053.64,155.42 1053.84,155.42 1054.03,156.20 1054.23,156.20 1054.43,156.20 1054.62,156.20 1054.82,156.20 1055.01,156.20 1055.21,156.20 1055.40,156.20 1055.60,156.20 1055.80,156.20 1056.00,156.20 1056.19,156.20 1056.39,156.97 1056.58,156.97 1056.79,156.97 1056.98,156.97 1057.17,156.97 1057.36,156.97 1057.57,156.97 1057.76,156.97 1057.96,156.97 1058.16,156.97 1058.36,156.97 1058.55,156.97 1058.75,156.97 1058.94,156.97 1059.14,156.97 1059.34,156.97 1059.53,156.97 1059.73,156.97 1059.92,156.97 1060.12,156.97 1060.32,157.75 1060.51,157.75 1060.71,157.75 1060.91,157.75 1061.11,157.75 1061.30,157.75 1061.50,157.75 1061.70,157.75 1061.90,157.75 1062.09,157.75 1062.29,157.75 1062.48,157.75 1062.68,157.75 1062.88,157.75 1063.07,157.75 1063.27,157.75 1063.47,157.75 1063.66,157.75 1063.86,157.75 1064.05,157.75 1064.25,156.97 1064.45,156.97 1064.64,156.20 1064.84,156.20 1065.04,155.42 1065.23,154.65 1065.43,154.65 1065.63,153.87 1065.82,153.10 1066.02,153.10 1066.21,153.10 1066.41,153.10 1066.61,153.10 1066.80,152.32 1067.00,152.32 1067.20,152.32 1067.39,152.32 1067.59,152.32 1067.79,152.32 1067.98,152.32 1068.18,152.32 1068.38,152.32 1068.57,152.32 1068.77,151.55 1068.96,151.55 1069.17,151.55 1069.36,151.55 1069.56,151.55 1069.75,151.55 1069.95,151.55 1070.14,151.55 1070.34,151.55 1070.54,151.55 1070.73,151.55 1070.93,152.32 1071.13,152.32 1071.32,152.32 1071.52,152.32 1071.72,152.32 1071.91,152.32 1072.11,152.32 1072.30,152.32 1072.50,152.32 1072.70,152.32 1072.90,152.32 1073.09,152.32 1073.29,153.10 1073.49,153.10 1073.68,153.10 1073.87,153.10 1074.07,153.10 1074.27,153.10 1074.46,153.10 1074.67,153.87 1074.86,153.87 1075.06,153.87 1075.25,153.87 1075.45,153.87 1075.64,154.65 1075.84,154.65 1076.04,153.87 1076.23,153.87 1076.43,153.87 1076.63,153.87 1076.82,153.87 1077.02,154.65 1077.21,154.65 1077.41,154.65 1077.61,154.65 1077.81,154.65 1078.00,155.42 1078.20,155.42 1078.39,155.42 1078.59,155.42 1078.79,155.42 1078.98,155.42 1079.18,155.42 1079.38,155.42 1079.57,155.42 1079.77,155.42 1079.96,155.42 1080.16,156.20 1080.36,156.20 1080.55,156.20 1080.75,156.20 1080.95,156.20 1081.15,156.20 1081.34,156.97 1081.53,156.97 1081.72,156.97 1081.92,157.75 1082.12,157.75 1082.32,158.52 1082.51,159.30 1082.71,159.30 1082.90,160.07 1083.11,160.85 1083.30,160.85 1083.50,161.62 1083.69,162.39 1083.89,162.39 1084.08,162.39 1084.28,162.39 1084.48,163.17 1084.68,163.17 1084.87,163.17 1085.14,163.17 1085.26,163.17 1085.46,163.17 1085.66,163.17 1085.86,163.17 1086.05,163.17 1086.25,163.94 1086.44,163.94 1086.64,163.94 1086.83,163.94 1087.03,163.94 1087.23,163.94 1087.42,163.94 1087.62,163.94 1087.82,163.94 1088.01,163.94 1088.21,163.94 1088.40,164.72 1088.61,164.72 1088.80,164.72 1089.00,164.72 1089.19,164.72 1089.39,164.72 1089.58,164.72 1089.78,164.72 1089.98,164.72 1090.18,164.72 1090.37,164.72 1090.57,165.49 1090.76,165.49 1090.96,165.49 1091.16,165.49 1091.35,165.49 1091.55,165.49 1091.75,165.49 1091.94,165.49 1092.14,165.49 1092.33,165.49 1092.53,165.49 1092.72,165.49 1092.93,165.49 1093.12,166.27 1093.32,166.27 1093.51,166.27 1093.71,166.27 1093.91,166.27 1094.10,166.27 1094.30,166.27 1094.50,166.27 1094.69,166.27 1094.88,166.27 1095.08,166.27 1095.28,166.27 1095.48,166.27 1095.67,167.04 1095.87,167.04 1096.07,167.04 1096.26,167.04 1096.46,167.04 1096.65,167.04 1096.86,167.04 1097.05,167.04 1097.25,167.04 1097.44,167.04 1097.64,167.04 1097.83,167.04 1098.03,167.82 1098.22,167.82 1098.43,167.82 1098.62,167.82 1098.82,167.82 1099.02,167.82 1099.22,167.82 1099.41,167.82 1099.61,167.82 1099.80,167.82 1100.00,167.82" fill="none" stroke="#9467bd" stroke-width="2.5" stroke-linejoin="round" stroke-linecap="round"/>
  <text x="680" y="277" font-family="Arial, sans-serif" font-size="13" fill="#5d6b78">0.0..21.3 m relative to start</text>

  <rect x="650" y="305" width="485" height="200" rx="6" fill="#ffffff" stroke="#d7dde3"/>
  <text x="680" y="333" font-family="Arial, sans-serif" font-size="17" font-weight="700" fill="#17202a">Speed</text>
  <line x1="680" y1="475" x2="1100" y2="475" stroke="#d7dde3"/>
  <polyline points="680.00,475.00 680.04,475.00 680.25,383.51 680.47,374.91 680.63,330.00 680.83,407.78 681.03,408.30 681.24,385.72 681.37,475.00 681.43,475.00 681.63,400.28 681.82,444.15 682.03,430.30 682.21,412.20 682.41,433.97 682.60,416.04 682.79,445.88 682.98,423.74 683.18,409.93 683.38,406.88 683.57,420.35 683.77,440.81 683.97,443.67 684.16,448.46 684.40,461.54 684.56,459.84 684.75,459.89 684.95,457.90 685.14,462.67 685.34,469.86 685.54,473.80 685.74,475.00 685.93,466.45 686.13,464.17 686.33,461.59 686.53,468.30 686.72,468.16 686.92,468.23 687.11,468.23 687.31,469.66 687.50,470.03 687.70,467.59 687.90,465.34 688.10,467.59 688.33,466.77 688.49,462.99 688.68,465.05 688.88,467.88 689.07,470.13 689.27,467.52 689.47,469.60 689.67,469.08 689.86,470.03 690.06,469.76 690.25,468.64 690.45,472.75 690.65,473.78 690.84,473.81 691.04,473.78 691.24,475.00 691.43,471.36 691.63,473.82 691.82,473.78 692.02,473.81 692.25,472.74 692.42,473.54 692.61,475.00 692.80,473.78 693.00,475.00 693.20,473.82 693.40,472.59 693.60,472.66 693.79,473.78 693.99,472.64 694.18,471.55 694.38,473.82 694.57,472.27 694.78,473.82 694.97,472.27 695.17,473.84 695.35,473.71 695.56,472.50 695.76,475.00 695.95,472.64 696.18,473.97 696.34,472.09 696.55,471.71 696.74,472.22 696.93,473.81 697.13,471.68 697.33,472.56 697.53,471.68 697.73,471.65 697.91,471.36 698.11,472.45 698.31,472.30 698.51,473.80 698.71,472.66 698.90,475.00 699.09,472.27 699.29,475.00 699.49,475.00 699.68,473.78 699.88,473.84 700.11,475.00 700.27,475.00 700.46,472.49 700.67,475.00 700.86,475.00 701.06,471.61 701.26,475.00 701.45,473.81 701.65,475.00 701.85,475.00 702.04,475.00 702.24,472.38 702.43,475.00 702.63,475.00 702.83,473.78 703.02,472.54 703.22,475.00 703.42,473.81 703.61,472.56 703.81,473.82 704.04,472.98 704.20,475.00 704.40,471.58 704.60,472.64 704.79,473.80 704.99,472.64 705.18,471.55 705.38,475.00 705.57,472.19 705.77,472.45 705.97,472.30 706.17,472.35 706.36,475.00 706.56,473.84 706.75,472.25 706.95,475.00 707.15,475.00 707.35,472.66 707.54,473.78 707.74,475.00 707.97,475.00 708.12,475.00 708.33,475.00 708.52,475.00 708.72,475.00 708.91,475.00 709.11,475.00 709.31,475.00 709.50,475.00 709.70,475.00 709.90,475.00 710.09,475.00 710.29,475.00 710.49,475.00 710.67,475.00 710.88,475.00 711.07,475.00 711.27,475.00 711.47,475.00 711.67,475.00 711.90,475.00 712.06,472.02 712.25,475.00 712.45,475.00 712.65,475.00 712.84,472.33 713.04,475.00 713.23,473.75 713.44,472.73 713.63,473.79 713.83,472.35 714.02,472.61 714.22,473.81 714.42,471.58 714.61,473.80 714.81,475.00 715.01,472.61 715.20,473.78 715.40,475.00 715.59,475.00 715.82,472.94 715.98,475.00 716.19,475.00 716.38,473.75 716.58,475.00 716.77,473.81 716.97,472.59 717.17,473.80 717.36,473.81 717.56,475.00 717.76,475.00 717.95,473.78 718.15,475.00 718.34,475.00 718.54,472.43 718.74,475.00 718.94,475.00 719.13,475.00 719.33,473.81 719.52,473.80 719.76,475.00 719.92,473.55 720.11,473.76 720.31,475.00 720.50,472.35 720.70,475.00 720.89,473.75 721.10,472.45 721.29,473.81 721.49,475.00 721.69,472.35 721.88,473.78 722.08,472.35 722.27,473.79 722.47,472.35 722.67,472.30 722.87,475.00 723.06,472.54 723.26,473.84 723.44,473.72 723.69,475.00 723.84,473.48 724.04,475.00 724.24,475.00 724.44,475.00 724.63,473.78 724.83,475.00 725.02,473.79 725.22,473.82 725.42,472.30 725.62,472.64 725.81,475.00 726.00,472.54 726.20,475.00 726.40,475.00 726.59,475.00 726.79,475.00 726.99,475.00 727.19,473.81 727.38,475.00 727.62,475.00 727.77,475.00 727.97,475.00 728.17,475.00 728.36,472.61 728.55,475.00 728.75,475.00 728.95,475.00 729.15,473.80 729.34,475.00 729.54,475.00 729.74,475.00 729.93,472.59 730.13,473.80 730.33,475.00 730.52,472.30 730.72,475.00 730.92,472.33 731.10,473.75 731.31,473.85 731.54,475.00 731.70,475.00 731.90,475.00 732.10,473.84 732.29,475.00 732.49,472.41 732.68,475.00 732.88,475.00 733.07,475.00 733.28,475.00 733.47,475.00 733.66,473.78 733.86,475.00 734.06,475.00 734.25,475.00 734.45,473.81 734.65,475.00 734.85,475.00 735.04,473.80 735.24,475.00 735.47,475.00 735.64,475.00 735.82,475.00 736.02,475.00 736.22,473.79 736.41,475.00 736.61,475.00 736.81,475.00 737.00,475.00 737.20,475.00 737.40,475.00 737.59,473.78 737.79,475.00 737.99,475.00 738.18,472.25 738.38,475.00 738.58,475.00 738.76,473.72 738.97,475.00 739.17,472.59 739.40,475.00 739.56,473.50 739.76,472.38 739.95,475.00 740.15,475.00 740.34,472.54 740.54,473.82 740.73,475.00 740.93,475.00 741.13,473.78 741.32,473.79 741.52,473.82 741.72,475.00 741.92,475.00 742.12,475.00 742.31,475.00 742.51,475.00 742.70,472.33 742.90,473.80 743.09,473.78 743.33,475.00 743.48,475.00 743.68,475.00 743.87,475.00 744.08,475.00 744.27,472.59 744.47,472.64 744.66,475.00 744.86,475.00 745.06,475.00 745.26,475.00 745.45,475.00 745.65,475.00 745.84,475.00 746.04,475.00 746.24,475.00 746.43,475.00 746.63,472.66 746.83,475.00 747.02,473.80 747.26,475.00 747.42,472.02 747.61,473.79 747.81,475.00 748.00,473.80 748.20,475.00 748.39,472.30 748.59,473.81 748.79,473.80 748.98,472.51 749.18,473.85 749.38,475.00 749.58,475.00 749.77,475.00 749.97,475.00 750.16,475.00 750.36,475.00 750.56,475.00 750.75,475.00 750.95,473.82 751.18,472.72 751.35,473.54 751.53,473.75 751.74,475.00 751.93,473.79 752.13,473.80 752.33,473.80 752.52,472.61 752.72,475.00 752.92,475.00 753.11,475.00 753.31,475.00 753.50,475.00 753.70,475.00 753.90,475.00 754.09,475.00 754.29,473.84 754.49,473.81 754.68,473.78 754.88,475.00 755.11,475.00 755.28,475.00 755.47,473.76 755.66,475.00 755.86,475.00 756.06,475.00 756.26,475.00 756.45,473.76 756.64,472.22 756.84,475.00 757.04,475.00 757.24,475.00 757.43,472.64 757.63,475.00 757.83,475.00 758.02,475.00 758.22,475.00 758.41,472.27 758.61,475.00 758.81,475.00 759.04,473.97 759.19,471.48 759.40,472.75 759.59,472.56 759.79,475.00 759.99,475.00 760.18,473.81 760.38,473.79 760.58,473.82 760.77,472.56 760.97,472.64 761.17,472.61 761.36,475.00 761.56,475.00 761.75,475.00 761.95,475.00 762.15,475.00 762.34,475.00 762.54,475.00 762.74,475.00 762.97,474.00 763.13,475.00 763.33,472.41 763.52,472.55 763.72,473.81 763.91,472.30 764.11,475.00 764.30,475.00 764.51,475.00 764.70,472.27 764.90,472.35 765.09,475.00 765.29,475.00 765.48,475.00 765.68,472.66 765.88,475.00 766.08,475.00 766.27,472.56 766.47,473.82 766.67,475.00 766.89,475.00 767.06,475.00 767.26,472.64 767.45,475.00 767.64,475.00 767.84,475.00 768.04,472.61 768.24,473.80 768.43,473.81 768.63,475.00 768.82,475.00 769.02,472.64 769.22,475.00 769.41,475.00 769.61,472.43 769.81,475.00 770.00,475.00 770.20,472.68 770.40,472.27 770.60,473.82 770.83,472.77 770.99,475.00 771.18,470.08 771.38,472.60 771.58,472.33 771.77,470.64 771.96,468.83 772.17,470.85 772.36,466.90 772.56,465.43 772.75,464.06 772.95,463.26 773.15,459.83 773.34,458.87 773.54,464.17 773.74,467.87 773.93,462.82 774.13,467.98 774.32,472.27 774.52,467.69 774.76,470.96 774.92,467.71 775.11,470.59 775.31,467.78 775.50,464.83 775.70,460.69 775.90,455.46 776.09,472.33 776.29,470.77 776.49,464.20 776.68,462.64 776.88,468.61 777.07,469.30 777.27,471.74 777.47,465.11 777.67,473.82 777.86,473.80 778.06,470.68 778.25,473.78 778.46,471.51 778.69,473.98 778.84,473.50 779.04,471.47 779.24,472.27 779.44,475.00 779.62,472.45 779.83,475.00 780.02,472.59 780.22,473.82 780.41,475.00 780.61,472.66 780.81,475.00 781.01,472.64 781.20,475.00 781.40,472.64 781.59,472.56 781.79,472.64 781.99,472.61 782.18,472.51 782.38,475.00 782.62,472.77 782.77,471.98 782.97,472.66 783.16,475.00 783.36,472.66 783.56,472.59 783.76,475.00 783.95,475.00 784.15,472.66 784.34,473.78 784.54,472.66 784.73,473.72 784.94,475.00 785.13,472.30 785.33,473.81 785.52,473.78 785.72,475.00 785.91,472.56 786.11,475.00 786.31,475.00 786.54,472.79 786.70,475.00 786.90,475.00 787.09,475.00 787.28,472.22 787.49,475.00 787.68,472.61 787.88,475.00 788.08,475.00 788.27,472.30 788.47,475.00 788.67,475.00 788.86,472.61 789.06,473.80 789.25,472.59 789.45,475.00 789.65,472.33 789.83,475.00 790.04,472.73 790.24,475.00 790.47,473.97 790.63,471.74 790.83,475.00 791.03,472.38 791.22,475.00 791.42,475.00 791.61,472.30 791.81,475.00 792.00,472.30 792.20,475.00 792.39,475.00 792.60,472.48 792.79,475.00 792.99,475.00 793.18,472.27 793.38,475.00 793.57,472.27 793.77,473.81 793.97,475.00 794.18,472.74 794.40,473.93 794.56,475.00 794.75,475.00 794.95,475.00 795.15,473.81 795.34,473.79 795.54,475.00 795.74,475.00 795.94,475.00 796.13,472.55 796.33,473.82 796.52,472.27 796.72,473.81 796.92,475.00 797.11,473.78 797.31,475.00 797.50,472.19 797.70,473.86 797.90,473.79 798.10,475.00 798.29,475.00 798.49,472.68 798.68,473.78 798.88,473.82 799.08,475.00 799.27,473.81 799.47,475.00 799.67,472.64 799.86,473.79 800.05,473.76 800.26,473.85 800.45,472.33 800.65,473.78 800.85,472.38 801.04,475.00 801.24,472.68 801.43,473.76 801.63,472.65 801.83,472.27 802.03,472.65 802.22,473.76 802.42,472.65 802.60,473.72 802.81,471.81 803.00,475.00 803.20,473.81 803.40,473.78 803.60,472.66 803.79,473.79 803.99,475.00 804.18,473.78 804.38,473.82 804.58,473.79 804.77,473.81 804.97,475.00 805.16,473.78 805.36,475.00 805.56,473.81 805.75,475.00 805.95,475.00 806.15,475.00 806.35,475.00 806.54,472.27 806.74,473.82 806.94,473.80 807.13,473.80 807.32,473.78 807.52,475.00 807.71,475.00 807.91,475.00 808.11,473.81 808.31,472.60 808.50,472.60 808.70,475.00 808.90,473.80 809.10,472.60 809.29,475.00 809.49,473.79 809.68,473.80 809.88,475.00 810.08,472.33 810.26,473.74 810.47,475.00 810.67,473.79 810.86,473.80 811.06,473.81 811.26,473.81 811.45,473.79 811.65,473.81 811.85,473.79 812.04,472.60 812.24,473.80 812.44,472.60 812.63,473.79 812.82,473.75 813.02,473.85 813.22,473.81 813.41,473.78 813.61,472.65 813.81,473.79 814.01,475.00 814.20,475.00 814.40,473.82 814.59,475.00 814.80,472.70 814.99,472.54 815.18,473.81 815.37,472.16 815.57,475.00 815.77,472.33 815.97,473.81 816.16,475.00 816.36,475.00 816.56,472.61 816.75,475.00 816.95,473.82 817.15,473.79 817.34,475.00 817.54,473.80 817.74,475.00 817.92,472.16 818.13,472.73 818.32,472.30 818.52,475.00 818.72,473.80 818.92,473.82 819.11,472.59 819.31,471.65 819.50,475.00 819.70,472.66 819.90,473.76 820.10,475.00 820.29,472.27 820.48,473.76 820.68,475.00 820.88,472.64 821.07,472.27 821.27,473.82 821.47,472.30 821.67,473.84 821.86,473.76 822.06,472.64 822.25,475.00 822.45,473.84 822.65,472.54 822.85,472.38 823.03,473.72 823.24,473.87 823.43,472.58 823.63,472.35 823.83,475.00 824.03,472.65 824.22,472.55 824.42,471.44 824.61,470.64 824.81,470.25 825.00,469.59 825.20,469.14 825.40,469.98 825.59,469.42 825.79,471.74 825.99,472.35 826.18,472.30 826.38,472.35 826.58,472.33 826.77,472.58 826.97,472.62 827.16,473.79 827.37,473.82 827.56,472.56 827.76,475.00 827.95,472.30 828.14,472.25 828.34,472.38 828.54,472.41 828.74,473.79 828.94,472.64 829.13,473.79 829.33,473.81 829.52,473.79 829.72,472.35 829.91,472.27 830.12,472.38 830.31,472.56 830.51,472.62 830.69,473.74 830.90,473.88 831.09,472.22 831.29,472.66 831.49,472.59 831.68,475.00 831.88,475.00 832.08,475.00 832.27,475.00 832.47,473.81 832.67,475.00 832.86,475.00 833.06,473.79 833.25,472.51 833.45,475.00 833.65,475.00 833.84,475.00 834.04,473.84 834.24,475.00 834.44,473.82 834.63,475.00 834.83,472.33 835.02,475.00 835.22,475.00 835.42,475.00 835.61,472.54 835.80,472.49 836.01,475.00 836.20,472.27 836.40,473.80 836.59,473.80 836.79,475.00 836.99,472.61 837.18,473.78 837.38,475.00 837.58,475.00 837.77,475.00 837.97,472.35 838.16,475.00 838.36,475.00 838.56,472.68 838.76,475.00 838.95,472.56 839.15,473.81 839.35,472.33 839.55,475.00 839.74,472.56 839.94,473.81 840.13,475.00 840.33,475.00 840.52,475.00 840.72,473.81 840.90,475.00 841.12,475.00 841.31,475.00 841.51,475.00 841.70,475.00 841.90,472.64 842.10,475.00 842.29,472.64 842.49,475.00 842.69,475.00 842.88,475.00 843.08,473.80 843.27,475.00 843.46,473.76 843.66,473.84 843.86,472.38 844.06,475.00 844.26,475.00 844.45,475.00 844.65,475.00 844.84,475.00 845.04,475.00 845.24,475.00 845.43,475.00 845.63,472.59 845.83,473.81 846.01,475.00 846.22,475.00 846.41,475.00 846.61,475.00 846.81,472.30 847.01,475.00 847.20,475.00 847.40,475.00 847.59,473.78 847.80,475.00 847.99,473.76 848.18,475.00 848.38,473.79 848.57,473.74 848.77,473.86 848.97,475.00 849.16,475.00 849.36,472.33 849.56,475.00 849.76,475.00 849.95,475.00 850.15,475.00 850.34,472.59 850.54,475.00 850.74,475.00 850.93,475.00 851.12,472.51 851.33,475.00 851.52,473.79 851.72,475.00 851.92,472.64 852.11,475.00 852.31,475.00 852.51,472.30 852.70,473.81 852.90,473.78 853.10,475.00 853.29,473.75 853.49,472.65 853.67,475.00 853.88,472.74 854.08,472.30 854.28,471.74 854.47,470.50 854.67,472.33 854.86,469.00 855.06,463.31 855.26,460.88 855.46,463.06 855.65,472.30 855.84,473.79 856.04,472.35 856.23,469.43 856.43,465.44 856.63,475.00 856.83,466.98 857.03,472.33 857.22,469.71 857.42,473.80 857.61,469.55 857.81,472.35 858.00,475.00 858.21,472.41 858.40,472.25 858.60,472.38 858.78,475.00 858.99,475.00 859.18,475.00 859.38,473.82 859.58,472.59 859.77,475.00 859.96,475.00 860.17,475.00 860.36,475.00 860.56,473.82 860.75,472.25 860.95,475.00 861.14,473.79 861.34,473.82 861.53,475.00 861.74,473.85 861.93,475.00 862.13,475.00 862.32,472.54 862.52,475.00 862.72,475.00 862.92,475.00 863.11,472.56 863.31,475.00 863.50,475.00 863.70,475.00 863.89,475.00 864.09,475.00 864.29,473.78 864.49,475.00 864.68,472.56 864.88,475.00 865.07,473.74 865.27,475.00 865.46,472.56 865.66,472.38 865.86,475.00 866.05,475.00 866.25,472.27 866.45,472.66 866.64,473.78 866.84,472.61 867.03,475.00 867.23,472.33 867.43,473.80 867.62,475.00 867.81,475.00 868.02,475.00 868.21,472.64 868.41,475.00 868.61,475.00 868.80,475.00 869.00,473.80 869.20,472.61 869.39,475.00 869.59,475.00 869.79,472.61 869.98,473.80 870.18,475.00 870.37,475.00 870.57,475.00 870.77,472.66 870.97,473.84 871.16,473.75 871.36,473.82 871.55,475.00 871.75,475.00 871.95,472.59 872.15,475.00 872.34,473.76 872.54,475.00 872.73,475.00 872.93,475.00 873.12,475.00 873.32,475.00 873.52,473.81 873.72,475.00 873.91,475.00 874.11,473.82 874.30,475.00 874.50,473.82 874.70,475.00 874.89,473.81 875.09,475.00 875.29,475.00 875.49,475.00 875.68,475.00 875.87,472.54 876.07,475.00 876.27,475.00 876.47,475.00 876.66,475.00 876.85,475.00 877.05,475.00 877.25,472.56 877.44,475.00 877.64,475.00 877.84,475.00 878.04,473.82 878.23,475.00 878.43,473.81 878.62,473.76 878.82,475.00 879.02,475.00 879.22,472.61 879.41,475.00 879.61,475.00 879.80,475.00 880.00,473.81 880.20,475.00 880.40,475.00 880.59,475.00 880.79,475.00 880.98,473.79 881.18,475.00 881.37,473.76 881.57,475.00 881.77,475.00 881.97,473.81 882.16,475.00 882.36,473.82 882.55,472.61 882.75,472.61 882.95,472.30 883.15,475.00 883.34,473.78 883.54,473.82 883.73,475.00 883.93,475.00 884.12,475.00 884.33,473.86 884.52,475.00 884.72,475.00 884.91,475.00 885.11,475.00 885.30,472.56 885.50,475.00 885.70,475.00 885.90,473.82 886.09,475.00 886.29,475.00 886.48,475.00 886.68,473.80 886.87,473.78 887.07,473.84 887.27,475.00 887.46,475.00 887.66,475.00 887.86,472.35 888.05,475.00 888.25,475.00 888.45,473.85 888.64,475.00 888.84,475.00 889.03,475.00 889.23,473.80 889.43,475.00 889.62,475.00 889.82,475.00 890.02,473.80 890.22,473.80 890.41,475.00 890.61,472.64 890.80,472.30 891.00,475.00 891.20,473.80 891.40,475.00 891.59,473.80 891.79,473.80 891.98,473.79 892.18,472.27 892.37,475.00 892.57,475.00 892.77,473.82 892.97,472.61 893.17,475.00 893.36,473.76 893.56,475.00 893.75,475.00 893.96,475.00 894.14,475.00 894.35,473.84 894.54,472.54 894.73,475.00 894.93,473.76 895.13,475.00 895.33,475.00 895.52,475.00 895.72,473.79 895.92,472.64 896.11,475.00 896.31,473.79 896.50,475.00 896.70,475.00 896.90,473.81 897.09,475.00 897.29,475.00 897.48,473.79 897.68,475.00 897.88,475.00 898.07,475.00 898.27,473.84 898.46,475.00 898.66,475.00 898.86,475.00 899.06,472.38 899.25,475.00 899.45,475.00 899.64,475.00 899.84,473.84 900.03,475.00 900.23,473.80 900.42,472.56 900.63,475.00 900.82,473.79 901.02,473.82 901.22,472.59 901.42,473.81 901.61,475.00 901.81,475.00 902.00,473.79 902.20,472.64 902.39,472.27 902.59,475.00 902.79,473.78 902.98,472.59 903.18,473.81 903.38,471.51 903.57,471.51 903.77,472.66 903.97,471.58 904.17,475.00 904.36,475.00 904.56,473.82 904.75,473.78 904.95,475.00 905.15,473.79 905.34,475.00 905.53,475.00 905.73,475.00 905.93,475.00 906.13,475.00 906.32,475.00 906.52,473.82 906.72,472.59 906.92,473.81 907.11,475.00 907.31,473.82 907.50,473.78 907.70,472.38 907.89,472.56 908.09,475.00 908.29,472.59 908.48,472.27 908.68,475.00 908.87,475.00 909.07,473.80 909.27,472.61 909.46,475.00 909.66,473.80 909.86,475.00 910.05,473.81 910.25,475.00 910.44,472.30 910.64,475.00 910.84,475.00 911.03,472.56 911.23,473.80 911.43,473.86 911.63,475.00 911.83,475.00 912.03,473.86 912.22,475.00 912.41,475.00 912.61,475.00 912.81,473.79 913.00,473.81 913.20,472.30 913.40,475.00 913.59,475.00 913.79,475.00 913.98,475.00 914.18,475.00 914.38,475.00 914.57,473.81 914.77,475.00 914.97,475.00 915.17,475.00 915.36,475.00 915.56,473.85 915.75,475.00 915.95,475.00 916.14,475.00 916.34,473.84 916.53,473.75 916.73,473.80 916.93,475.00 917.13,475.00 917.32,475.00 917.52,475.00 917.72,473.79 917.91,473.81 918.11,475.00 918.31,473.82 918.50,475.00 918.70,473.82 918.89,473.78 919.09,475.00 919.28,472.22 919.48,473.84 919.68,473.78 919.88,475.00 920.07,472.25 920.27,473.84 920.46,473.76 920.66,473.84 920.86,472.59 921.06,473.81 921.25,473.76 921.45,473.82 921.64,472.56 921.84,473.80 922.03,473.79 922.23,473.84 922.43,475.00 922.63,472.35 922.82,473.79 923.02,475.00 923.22,472.30 923.42,473.81 923.61,475.00 923.81,473.81 924.00,475.00 924.20,473.81 924.39,472.59 924.59,473.81 924.78,473.74 924.99,475.00 925.18,475.00 925.38,473.82 925.57,475.00 925.77,472.38 925.96,475.00 926.16,473.82 926.36,475.00 926.56,473.80 926.75,472.56 926.95,473.84 927.14,475.00 927.34,473.80 927.53,472.56 927.74,473.86 927.93,473.79 928.13,475.00 928.32,472.59 928.52,473.81 928.71,473.79 928.91,475.00 929.11,473.80 929.30,472.61 929.50,473.81 929.70,475.00 929.89,472.33 930.09,473.78 930.28,473.81 930.48,475.00 930.68,473.80 930.87,472.61 931.08,473.84 931.27,473.76 931.47,472.41 931.66,475.00 931.86,475.00 932.05,473.76 932.25,472.38 932.44,475.00 932.64,473.80 932.84,473.79 933.04,472.66 933.23,475.00 933.44,473.85 933.63,475.00 933.83,472.38 934.02,475.00 934.22,473.82 934.41,475.00 934.61,475.00 934.81,473.81 935.01,472.64 935.20,473.76 935.40,475.00 935.59,473.76 935.79,475.00 935.98,475.00 936.18,472.38 936.37,473.78 936.57,475.00 936.77,473.84 936.96,475.00 937.17,472.43 937.35,475.00 937.56,473.84 937.75,475.00 937.95,475.00 938.14,472.25 938.34,475.00 938.54,475.00 938.74,473.81 938.93,473.79 939.13,475.00 939.32,475.00 939.52,472.35 939.71,475.00 939.91,473.82 940.11,475.00 940.31,473.82 940.50,472.56 940.70,473.82 940.89,475.00 941.09,475.00 941.28,475.00 941.49,472.41 941.68,475.00 941.88,475.00 942.07,473.76 942.27,473.84 942.47,475.00 942.66,475.00 942.85,475.00 943.06,472.38 943.25,473.78 943.45,473.82 943.64,473.76 943.84,475.00 944.04,473.80 944.24,475.00 944.43,472.59 944.63,473.81 944.82,475.00 945.02,475.00 945.21,473.78 945.41,475.00 945.61,475.00 945.81,473.82 946.00,475.00 946.20,475.00 946.39,472.49 946.59,475.00 946.79,473.78 946.99,475.00 947.18,475.00 947.38,473.85 947.57,472.51 947.77,475.00 947.97,473.79 948.16,475.00 948.35,475.00 948.55,473.80 948.75,475.00 948.94,472.30 949.14,475.00 949.34,473.82 949.54,475.00 949.73,475.00 949.93,472.59 950.13,473.81 950.32,475.00 950.52,473.81 950.71,475.00 950.91,475.00 951.11,472.35 951.30,475.00 951.50,473.80 951.70,475.00 951.89,475.00 952.09,473.82 952.28,475.00 952.48,475.00 952.68,472.66 952.87,473.76 953.07,475.00 953.27,475.00 953.47,473.84 953.66,475.00 953.86,473.84 954.05,472.54 954.25,473.82 954.44,475.00 954.64,475.00 954.84,475.00 955.04,472.33 955.24,475.00 955.43,475.00 955.63,475.00 955.82,473.79 956.02,475.00 956.22,473.82 956.41,475.00 956.61,472.61 956.80,475.00 957.00,473.82 957.19,475.00 957.39,473.81 957.59,475.00 957.78,472.56 957.99,473.82 958.18,475.00 958.38,475.00 958.57,475.00 958.77,472.41 958.96,473.76 959.16,473.84 959.35,472.49 959.55,472.38 959.74,475.00 959.94,472.61 960.14,472.33 960.34,475.00 960.53,473.78 960.73,475.00 960.93,473.79 961.12,475.00 961.32,473.79 961.52,475.00 961.71,472.30 961.91,475.00 962.10,473.78 962.30,475.00 962.50,473.78 962.69,475.00 962.89,473.80 963.09,475.00 963.28,475.00 963.48,475.00 963.67,472.30 963.87,475.00 964.07,473.80 964.27,473.80 964.46,475.00 964.66,473.81 964.85,472.59 965.05,475.00 965.24,473.78 965.44,473.81 965.64,475.00 965.84,473.81 966.03,475.00 966.23,475.00 966.43,475.00 966.63,472.66 966.82,473.78 967.02,475.00 967.21,475.00 967.41,475.00 967.60,475.00 967.80,475.00 967.99,475.00 968.19,472.61 968.39,475.00 968.59,473.81 968.78,472.56 968.98,473.80 969.17,475.00 969.37,475.00 969.57,472.33 969.76,473.80 969.96,473.80 970.16,473.80 970.35,475.00 970.55,475.00 970.74,472.27 970.94,471.68 971.14,473.81 971.34,472.60 971.53,475.00 971.73,473.80 971.93,472.60 972.12,473.80 972.32,472.33 972.51,475.00 972.72,475.00 972.91,475.00 973.11,473.82 973.30,472.56 973.49,475.00 973.69,475.00 973.89,473.82 974.08,475.00 974.28,475.00 974.48,472.61 974.67,473.80 974.88,475.00 975.07,475.00 975.27,473.82 975.46,475.00 975.66,472.61 975.86,475.00 976.04,475.00 976.24,472.38 976.44,475.00 976.64,475.00 976.84,473.78 977.04,475.00 977.23,475.00 977.43,472.64 977.62,475.00 977.82,475.00 978.01,473.79 978.21,475.00 978.41,473.80 978.60,472.61 978.80,473.80 978.99,473.78 979.19,473.81 979.39,472.64 979.59,475.00 979.78,475.00 979.98,473.80 980.18,475.00 980.37,472.30 980.57,473.81 980.76,473.79 980.96,475.00 981.16,472.61 981.35,475.00 981.55,475.00 981.74,475.00 981.95,475.00 982.14,472.27 982.34,473.82 982.53,475.00 982.73,475.00 982.93,473.76 983.13,472.38 983.32,473.78 983.52,475.00 983.71,472.56 983.91,475.00 984.10,475.00 984.30,475.00 984.49,475.00 984.69,472.64 984.89,475.00 985.09,473.82 985.28,475.00 985.48,475.00 985.67,472.56 985.87,475.00 986.07,475.00 986.27,475.00 986.46,475.00 986.66,472.35 986.85,475.00 987.05,475.00 987.24,475.00 987.45,472.70 987.64,473.78 987.84,475.00 988.03,475.00 988.23,472.66 988.43,475.00 988.63,475.00 988.82,475.00 989.02,475.00 989.21,472.30 989.41,475.00 989.60,475.00 989.80,475.00 990.00,473.81 990.19,472.35 990.39,475.00 990.59,475.00 990.78,475.00 990.98,472.66 991.18,475.00 991.38,475.00 991.57,475.00 991.76,472.64 991.96,473.79 992.16,475.00 992.35,475.00 992.54,473.79 992.75,472.43 992.94,475.00 993.14,473.81 993.34,475.00 993.53,472.27 993.73,475.00 993.93,473.81 994.12,473.76 994.32,472.38 994.52,473.79 994.71,473.80 994.91,473.79 995.11,475.00 995.30,472.59 995.49,475.00 995.69,475.00 995.89,475.00 996.08,472.61 996.28,475.00 996.48,475.00 996.68,475.00 996.87,473.79 997.07,472.35 997.26,473.80 997.46,475.00 997.66,475.00 997.85,475.00 998.04,472.59 998.25,475.00 998.45,475.00 998.64,475.00 998.84,473.78 999.04,472.66 999.23,472.59 999.43,472.64 999.62,475.00 999.82,475.00 1000.02,472.59 1000.21,475.00 1000.41,475.00 1000.60,475.00 1000.80,473.80 1001.00,475.00 1001.19,472.56 1001.39,475.00 1001.59,475.00 1001.78,472.64 1001.98,473.78 1002.18,473.85 1002.37,473.76 1002.57,475.00 1002.76,475.00 1002.96,472.66 1003.15,475.00 1003.35,475.00 1003.55,472.61 1003.75,475.00 1003.94,475.00 1004.14,475.00 1004.34,473.79 1004.53,475.00 1004.73,472.30 1004.93,473.82 1005.12,473.78 1005.32,475.00 1005.51,472.56 1005.71,475.00 1005.90,475.00 1006.10,475.00 1006.30,472.38 1006.50,475.00 1006.69,475.00 1006.89,475.00 1007.08,475.00 1007.28,472.61 1007.48,473.80 1007.67,475.00 1007.87,475.00 1008.07,475.00 1008.26,475.00 1008.46,472.61 1008.65,475.00 1008.85,475.00 1009.05,475.00 1009.24,473.79 1009.44,472.33 1009.64,473.80 1009.83,473.80 1010.03,473.81 1010.23,475.00 1010.42,475.00 1010.62,472.64 1010.82,475.00 1011.02,475.00 1011.21,475.00 1011.40,472.56 1011.60,475.00 1011.80,475.00 1011.99,475.00 1012.19,475.00 1012.39,475.00 1012.59,472.73 1012.78,475.00 1012.98,475.00 1013.18,473.80 1013.38,473.81 1013.57,472.59 1013.77,475.00 1013.97,475.00 1014.16,473.80 1014.36,473.81 1014.56,475.00 1014.76,472.66 1014.95,475.00 1015.14,475.00 1015.34,475.00 1015.53,475.00 1015.73,472.70 1015.93,475.00 1016.13,475.00 1016.32,475.00 1016.52,475.00 1016.71,475.00 1016.91,472.66 1017.11,473.79 1017.31,475.00 1017.50,473.78 1017.70,473.82 1017.89,475.00 1018.09,472.61 1018.28,475.00 1018.49,475.00 1018.68,475.00 1018.88,475.00 1019.07,475.00 1019.27,472.66 1019.47,473.79 1019.66,473.81 1019.86,473.78 1020.06,475.00 1020.25,475.00 1020.45,472.61 1020.64,475.00 1020.84,475.00 1021.04,475.00 1021.23,475.00 1021.43,473.80 1021.62,472.33 1021.82,473.81 1022.02,475.00 1022.21,475.00 1022.41,475.00 1022.61,475.00 1022.81,472.61 1023.00,475.00 1023.20,475.00 1023.39,475.00 1023.59,475.00 1023.79,472.64 1023.98,473.79 1024.18,473.81 1024.38,475.00 1024.58,475.00 1024.77,475.00 1024.97,472.64 1025.16,473.79 1025.36,475.00 1025.55,475.00 1025.75,475.00 1025.95,472.61 1026.15,475.00 1026.34,475.00 1026.54,475.00 1026.73,475.00 1026.93,472.38 1027.12,473.78 1027.32,473.81 1027.52,475.00 1027.72,475.00 1027.91,475.00 1028.11,472.61 1028.30,475.00 1028.50,475.00 1028.70,475.00 1028.90,472.64 1029.09,473.79 1029.29,473.81 1029.48,475.00 1029.68,473.82 1029.89,475.00 1030.12,472.99 1030.27,475.00 1030.47,475.00 1030.66,475.00 1030.86,475.00 1031.05,472.33 1031.25,473.82 1031.45,475.00 1031.65,475.00 1031.84,473.78 1032.04,475.00 1032.23,473.80 1032.43,472.35 1032.63,475.00 1032.82,473.80 1033.01,475.00 1033.21,475.00 1033.40,472.27 1033.61,475.00 1033.80,473.75 1034.00,472.38 1034.19,472.27 1034.39,472.30 1034.58,475.00 1034.78,475.00 1034.98,472.61 1035.17,473.80 1035.37,472.30 1035.56,472.58 1035.76,471.61 1035.96,470.77 1036.16,470.08 1036.35,472.35 1036.55,473.80 1036.75,473.80 1036.94,473.80 1037.14,473.81 1037.33,475.00 1037.54,475.00 1037.73,472.59 1037.93,473.81 1038.12,475.00 1038.32,473.79 1038.52,475.00 1038.71,475.00 1038.91,475.00 1039.10,475.00 1039.30,472.56 1039.50,475.00 1039.69,475.00 1039.89,475.00 1040.08,475.00 1040.29,475.00 1040.48,475.00 1040.68,475.00 1040.87,475.00 1041.06,473.81 1041.26,472.35 1041.46,475.00 1041.66,473.79 1041.86,473.81 1042.05,475.00 1042.25,472.66 1042.44,472.59 1042.64,472.64 1042.84,475.00 1043.04,475.00 1043.23,475.00 1043.43,475.00 1043.62,472.56 1043.82,475.00 1044.01,475.00 1044.21,475.00 1044.40,475.00 1044.61,475.00 1044.80,475.00 1045.00,475.00 1045.19,472.27 1045.39,475.00 1045.58,473.78 1045.78,473.84 1045.98,473.78 1046.18,475.00 1046.37,475.00 1046.56,472.35 1046.77,475.00 1046.96,475.00 1047.16,473.79 1047.35,473.80 1047.55,472.61 1047.75,475.00 1047.94,473.80 1048.14,475.00 1048.34,473.80 1048.53,473.80 1048.73,475.00 1048.93,472.61 1049.12,475.00 1049.32,475.00 1049.51,475.00 1049.71,475.00 1049.91,475.00 1050.10,475.00 1050.30,472.64 1050.50,475.00 1050.70,475.00 1050.89,475.00 1051.09,475.00 1051.28,475.00 1051.49,475.00 1051.67,472.46 1051.87,475.00 1052.07,472.61 1052.26,472.61 1052.47,473.84 1052.66,473.79 1052.85,475.00 1053.05,475.00 1053.25,472.64 1053.45,475.00 1053.64,473.80 1053.84,475.00 1054.03,472.64 1054.23,475.00 1054.43,473.81 1054.62,472.51 1054.82,475.00 1055.01,475.00 1055.21,475.00 1055.40,475.00 1055.60,472.66 1055.80,473.79 1056.00,473.82 1056.19,472.25 1056.39,473.82 1056.58,475.00 1056.79,473.85 1056.98,475.00 1057.17,472.61 1057.36,473.78 1057.57,473.86 1057.76,472.27 1057.96,475.00 1058.16,472.27 1058.36,472.65 1058.55,472.55 1058.75,472.64 1058.94,475.00 1059.14,472.64 1059.34,473.79 1059.53,475.00 1059.73,475.00 1059.92,472.33 1060.12,475.00 1060.32,472.66 1060.51,475.00 1060.71,473.84 1060.91,472.56 1061.11,472.68 1061.30,472.61 1061.50,475.00 1061.70,472.27 1061.90,475.00 1062.09,475.00 1062.29,475.00 1062.48,475.00 1062.68,472.35 1062.88,475.00 1063.07,475.00 1063.27,475.00 1063.47,472.35 1063.66,472.50 1063.86,472.65 1064.05,473.80 1064.25,471.40 1064.45,475.00 1064.64,471.61 1064.84,471.61 1065.04,470.72 1065.23,469.59 1065.43,472.60 1065.63,470.20 1065.82,469.00 1066.02,470.68 1066.21,469.53 1066.41,470.77 1066.61,470.68 1066.80,472.60 1067.00,472.60 1067.20,472.60 1067.39,473.80 1067.59,472.33 1067.79,473.80 1067.98,475.00 1068.18,473.79 1068.38,473.81 1068.57,475.00 1068.77,473.79 1068.96,473.81 1069.17,472.66 1069.36,472.27 1069.56,472.64 1069.75,470.03 1069.95,467.91 1070.14,470.03 1070.34,470.32 1070.54,467.59 1070.73,469.71 1070.93,469.60 1071.13,468.49 1071.32,468.77 1071.52,468.54 1071.72,469.69 1071.91,470.59 1072.11,471.44 1072.30,470.64 1072.50,470.29 1072.70,469.59 1072.90,470.77 1073.09,467.18 1073.29,466.02 1073.49,465.47 1073.68,467.25 1073.87,466.18 1074.07,464.84 1074.27,466.61 1074.46,464.06 1074.67,463.42 1074.86,464.06 1075.06,462.34 1075.25,462.78 1075.45,465.30 1075.64,465.14 1075.84,468.61 1076.04,466.27 1076.23,468.30 1076.43,468.02 1076.63,467.64 1076.82,467.25 1077.02,467.56 1077.21,466.18 1077.41,464.39 1077.61,465.01 1077.81,465.30 1078.00,462.52 1078.20,463.31 1078.39,464.17 1078.59,462.77 1078.79,463.19 1078.98,461.82 1079.18,462.21 1079.38,463.31 1079.57,460.96 1079.77,462.09 1079.96,459.83 1080.16,458.71 1080.36,460.96 1080.55,461.03 1080.75,457.72 1080.95,459.66 1081.15,461.16 1081.34,460.14 1081.53,461.18 1081.72,461.46 1081.92,462.41 1082.12,463.85 1082.32,465.93 1082.51,467.18 1082.71,468.36 1082.90,468.02 1083.11,470.81 1083.30,468.90 1083.50,472.38 1083.69,472.25 1083.89,475.00 1084.08,475.00 1084.28,472.43 1084.48,472.27 1084.68,472.65 1084.87,472.56 1085.14,472.55 1085.26,475.00 1085.46,472.66 1085.66,473.78 1085.86,475.00 1086.05,475.00 1086.25,473.82 1086.44,475.00 1086.64,475.00 1086.83,473.80 1087.03,475.00 1087.23,475.00 1087.42,475.00 1087.62,475.00 1087.82,475.00 1088.01,475.00 1088.21,475.00 1088.40,475.00 1088.61,475.00 1088.80,475.00 1089.00,475.00 1089.19,472.51 1089.39,475.00 1089.58,475.00 1089.78,475.00 1089.98,473.78 1090.18,472.38 1090.37,472.56 1090.57,475.00 1090.76,475.00 1090.96,475.00 1091.16,473.79 1091.35,475.00 1091.55,473.80 1091.75,475.00 1091.94,473.79 1092.14,475.00 1092.33,473.79 1092.53,473.84 1092.72,475.00 1092.93,475.00 1093.12,475.00 1093.32,472.45 1093.51,475.00 1093.71,475.00 1093.91,475.00 1094.10,473.76 1094.30,475.00 1094.50,475.00 1094.69,475.00 1094.88,472.61 1095.08,472.66 1095.28,472.61 1095.48,475.00 1095.67,473.80 1095.87,475.00 1096.07,475.00 1096.26,475.00 1096.46,475.00 1096.65,472.56 1096.86,472.66 1097.05,472.56 1097.25,475.00 1097.44,473.75 1097.64,475.00 1097.83,475.00 1098.03,475.00 1098.22,475.00 1098.43,472.41 1098.62,475.00 1098.82,473.82 1099.02,473.80 1099.22,473.84 1099.41,473.78 1099.61,472.35 1099.80,472.59 1100.00,475.00" fill="none" stroke="#ff7f0e" stroke-width="2.5" stroke-linejoin="round" stroke-linecap="round"/>
  <text x="680" y="492" font-family="Arial, sans-serif" font-size="13" fill="#5d6b78">max 11.25 m/s</text>
</svg>
