<svg xmlns="http://www.w3.org/2000/svg" width="1180" height="590" viewBox="0 0 1180 590">
  <rect width="1180" height="590" fill="#f7f8fa"/>
  <text x="45" y="42" font-family="Arial, sans-serif" font-size="24" font-weight="700" fill="#17202a">GPS flight path</text>
  <text x="45" y="560" font-family="Arial, sans-serif" font-size="14" fill="#5d6b78">Distance: 39.2 m | Duration: 01:50.3 | Points: 1104</text>

  <rect x="45" y="60" width="550" height="470" rx="6" fill="#ffffff" stroke="#d7dde3"/>
  <line x1="70" y1="505" x2="570" y2="505" stroke="#d7dde3"/>
  <line x1="70" y1="75" x2="70" y2="505" stroke="#d7dde3"/>
  <polyline points="558.69,505.00 570.00,503.82 569.65,502.64 569.13,502.24 569.13,502.24 568.96,502.64 569.65,503.03 569.83,503.03 570.00,503.42 570.00,503.03 570.00,503.03 570.00,503.03 569.83,502.64 569.65,502.64 569.65,502.64 569.65,502.24 569.65,502.24 569.48,502.24 569.30,502.24 569.13,501.85 568.96,501.85 568.78,501.85 568.78,501.85 568.78,501.85 568.78,501.85 568.78,501.85 568.78,501.85 568.61,501.85 568.61,501.85 568.61,501.85 568.61,501.85 568.43,501.45 568.43,501.45 568.43,501.45 568.26,501.45 568.43,501.45 568.43,501.06 568.26,501.06 568.43,501.06 568.26,501.06 568.26,500.66 568.43,500.66 568.09,500.66 568.26,500.66 568.09,500.27 568.09,500.27 568.09,500.27 568.09,500.27 568.09,500.27 567.91,500.27 567.91,500.27 567.91,500.27 567.91,500.27 567.74,500.27 567.74,500.27 567.74,500.27 567.74,500.27 567.56,500.27 567.74,500.27 567.74,500.27 565.48,497.51 563.22,494.75 560.95,491.99 559.04,489.23 556.95,486.87 555.21,484.51 553.12,482.14 551.04,480.17 549.12,478.20 547.04,475.83 544.95,473.86 543.03,471.89 541.29,469.92 539.38,468.35 537.64,466.37 535.90,464.40 534.34,462.83 532.60,461.25 531.03,459.28 529.81,457.31 528.42,455.34 527.03,453.37 525.64,451.40 524.24,449.43 523.03,447.85 521.64,446.27 520.42,444.30 519.03,442.73 517.46,441.15 516.07,439.57 514.68,438.00 513.28,436.42 512.07,434.84 510.50,433.27 509.46,432.09 508.24,430.90 507.02,429.33 505.98,428.54 504.59,426.96 503.19,426.17 501.63,424.60 500.41,423.81 498.67,422.23 498.15,421.44 497.45,420.66 497.11,420.26 496.58,419.47 496.24,419.08 495.71,418.29 495.19,417.90 494.67,417.11 494.15,416.71 493.45,415.93 492.93,415.53 492.41,414.74 491.89,413.96 491.54,413.56 491.02,412.77 490.49,412.38 489.97,411.59 489.28,411.20 488.58,410.41 488.06,409.62 487.54,409.23 487.01,408.44 486.32,408.04 485.80,407.25 485.27,406.86 484.58,406.07 483.88,405.28 483.19,404.89 482.67,404.10 481.80,403.71 481.27,402.92 480.58,402.13 479.88,401.34 479.19,400.55 478.49,399.77 477.79,398.98 476.92,398.19 476.05,397.40 475.36,396.61 474.49,395.82 473.44,395.04 472.75,394.25 471.70,393.07 470.66,392.28 469.62,391.10 468.75,390.31 467.70,389.12 467.36,388.73 466.83,388.34 466.66,387.94 466.49,387.55 466.14,386.76 465.96,386.76 465.79,386.37 465.62,385.58 465.27,385.18 465.09,384.79 464.57,384.40 464.40,384.00 464.05,383.61 463.70,383.21 463.35,382.82 463.01,382.42 462.48,382.03 462.14,381.64 461.79,381.24 461.44,380.85 461.09,380.45 460.74,380.06 460.40,379.27 460.05,379.27 459.53,378.88 459.18,378.48 458.66,378.09 458.31,377.69 457.79,377.30 457.27,376.51 456.40,376.12 455.53,375.72 454.66,375.33 453.79,374.54 453.09,374.15 452.22,373.36 451.52,372.97 450.65,372.18 449.61,371.39 448.74,370.99 447.87,370.21 447.00,369.42 446.13,369.02 445.09,368.24 444.39,367.45 443.35,367.05 442.48,366.26 441.61,365.48 440.74,365.08 439.87,364.29 439.00,363.51 438.13,363.11 437.26,362.32 436.56,361.93 435.69,361.54 435.00,360.75 434.30,360.35 433.43,359.56 432.56,359.17 431.86,358.78 431.17,358.38 430.30,357.99 429.60,357.59 428.91,357.20 427.86,356.81 427.34,356.41 426.47,356.02 425.60,355.62 424.91,354.84 424.04,354.84 423.17,354.05 422.30,353.65 421.60,353.26 420.73,352.86 419.86,352.08 418.99,351.68 418.12,351.29 417.25,350.50 416.38,350.11 415.69,350.11 414.99,349.71 414.29,349.32 413.42,348.92 412.73,348.53 412.03,348.13 411.34,347.74 410.47,347.35 409.60,346.95 408.90,346.56 407.86,346.16 407.16,345.77 406.12,345.38 405.25,344.98 404.55,344.19 403.86,343.80 402.99,343.01 402.29,342.62 401.59,341.83 400.72,341.43 400.03,341.04 399.16,339.86 398.29,339.46 397.42,338.28 396.55,337.49 395.68,337.10 394.46,335.92 393.76,335.52 392.89,334.73 392.20,334.34 391.50,333.55 390.81,333.16 390.11,332.37 389.42,331.98 388.72,331.58 387.85,330.79 387.33,330.00 386.46,329.61 385.76,328.82 384.89,328.43 384.20,327.64 383.33,327.25 382.63,326.85 381.93,326.46 381.24,325.67 380.37,325.27 379.50,324.88 378.80,324.49 377.93,323.70 377.06,323.30 376.19,322.91 375.15,322.52 374.28,321.73 373.41,321.33 372.54,320.94 371.50,320.15 370.80,319.76 370.10,319.36 369.58,318.97 368.89,318.57 368.36,318.57 367.84,317.79 367.15,317.39 366.80,317.00 366.28,316.60 365.76,315.82 365.06,315.42 364.54,314.63 363.84,314.24 363.15,313.85 362.62,313.06 361.75,312.66 360.88,312.27 360.19,311.48 359.32,311.09 358.62,310.69 357.75,310.30 356.88,309.51 356.01,309.12 355.32,308.72 354.45,307.93 353.58,307.54 352.71,306.75 352.01,306.36 351.32,305.96 350.62,305.17 349.92,304.78 349.23,304.39 348.71,303.99 348.18,303.60 347.49,303.20 346.97,302.81 346.27,302.42 345.57,302.02 344.88,302.02 344.36,301.23 343.66,300.84 342.96,300.44 342.09,300.05 341.57,300.05 340.88,299.26 340.18,299.26 339.49,298.87 338.79,298.47 338.27,298.08 337.57,297.69 336.88,297.29 336.18,296.90 335.31,296.50 334.61,296.11 333.92,295.71 333.57,295.32 332.70,295.32 332.18,294.93 331.48,294.53 330.79,294.14 330.09,293.74 329.57,293.35 328.87,292.96 328.18,292.96 327.65,292.56 327.31,292.17 326.96,292.17 326.44,291.77 326.09,291.77 325.74,291.38 325.39,290.99 324.87,290.99 324.52,290.59 324.18,290.20 323.65,290.20 322.96,289.41 322.44,289.01 321.74,288.62 321.22,288.23 320.52,287.83 320.00,287.44 319.30,287.04 318.61,286.26 317.91,285.86 317.39,285.07 316.87,284.68 316.17,283.89 315.82,283.50 315.30,283.10 314.95,283.10 314.61,282.31 314.08,282.31 313.74,281.92 313.22,281.53 312.69,281.13 312.35,280.74 312.00,280.34 311.48,280.34 311.13,279.95 310.78,279.95 310.43,279.95 309.91,279.56 309.39,279.56 309.04,279.16 308.69,278.77 308.17,278.37 307.65,278.37 307.30,278.37 306.95,277.98 306.43,277.58 306.08,277.58 305.56,277.19 305.04,277.19 304.52,276.80 304.17,276.80 303.82,276.40 303.30,276.40 303.12,276.40 302.78,276.01 302.43,276.01 301.91,275.61 301.73,275.61 301.38,275.61 300.86,275.22 300.51,275.22 299.99,274.83 299.65,274.43 299.47,274.43 299.12,274.43 298.78,274.43 298.43,274.43 298.08,274.43 297.91,274.04 297.56,274.04 297.21,274.04 296.69,273.64 296.17,273.64 295.82,273.25 295.30,272.86 294.95,272.86 294.60,272.86 294.08,272.46 293.73,272.07 293.21,272.07 293.03,272.07 292.86,271.67 292.86,271.28 293.03,271.28 293.21,270.88 293.73,270.49 294.25,269.70 293.90,269.70 293.56,269.70 292.34,269.31 290.08,269.31 287.12,270.49 286.08,270.49 284.51,270.10 283.64,270.10 283.12,270.10 282.77,269.70 282.42,269.70 282.60,269.31 282.77,268.52 284.16,267.73 285.21,266.94 283.81,267.34 282.07,267.73 282.07,267.34 282.94,266.55 282.60,266.15 280.86,266.55 280.86,266.15 280.68,265.37 279.81,265.37 279.81,264.97 279.29,264.58 278.94,264.58 278.42,264.18 278.07,264.18 277.90,263.79 277.38,263.40 277.03,263.40 276.68,263.00 275.98,262.61 275.46,262.21 275.11,261.82 274.59,261.82 274.24,261.43 273.72,261.43 273.03,261.03 272.68,260.64 272.33,260.64 271.81,260.24 271.46,260.24 270.94,259.85 270.59,259.85 269.90,259.45 269.55,259.45 269.03,259.06 268.50,259.06 267.98,258.67 267.63,258.27 267.11,258.27 266.42,257.88 265.89,257.48 265.55,257.48 265.02,257.48 264.68,257.09 264.33,257.09 263.81,256.70 263.46,256.70 262.94,256.30 262.59,256.30 262.07,255.91 261.72,255.91 261.20,255.51 260.85,255.51 260.50,255.12 259.98,254.73 259.46,254.73 259.11,254.33 258.59,253.94 258.07,253.54 257.54,253.15 257.37,253.15 257.02,252.75 256.50,252.75 256.15,252.75 255.63,252.36 255.28,252.36 254.93,251.97 254.59,251.57 254.06,251.57 253.54,251.18 253.19,250.78 252.67,250.78 252.15,250.78 251.63,250.39 251.63,250.39 250.93,250.00 250.58,249.60 250.24,249.60 249.89,249.60 249.71,249.21 249.37,249.21 248.67,248.81 248.32,248.81 248.15,248.42 247.80,248.02 247.28,247.63 246.76,246.84 246.24,246.45 246.24,246.84 245.71,246.45 245.02,246.05 244.84,245.66 244.50,245.27 244.32,244.87 243.97,244.87 243.97,244.48 243.63,244.08 243.10,244.08 242.93,243.69 242.58,243.30 242.41,242.90 242.06,242.90 241.71,242.90 241.54,242.11 241.19,241.72 240.84,240.93 241.19,240.93 241.19,241.32 241.89,241.72 242.23,242.51 242.58,243.30 242.76,244.48 242.76,245.66 243.10,246.84 243.28,247.63 243.10,248.81 243.45,249.60 243.45,250.78 243.63,250.78 243.80,251.18 243.80,250.78 243.97,250.00 243.80,249.21 243.97,248.42 243.97,247.63 243.80,246.84 243.45,246.45 243.10,245.66 242.93,244.87 242.93,244.08 242.93,243.69 242.58,243.30 242.41,242.51 242.06,242.11 241.71,241.72 241.54,241.32 241.19,240.93 240.84,240.54 240.67,240.54 240.49,240.14 240.15,240.14 239.80,239.75 239.62,238.96 239.45,238.96 239.10,238.57 238.75,238.17 238.58,237.78 238.23,237.38 237.88,236.99 237.54,236.59 237.19,236.20 236.67,235.81 236.14,235.41 235.80,235.02 235.27,234.23 234.58,233.84 234.23,233.44 233.71,232.65 233.01,231.87 232.49,231.47 231.97,230.68 231.45,230.29 230.93,229.89 230.58,229.89 230.06,229.11 229.53,229.11 229.19,228.32 228.66,227.92 228.14,227.53 227.79,227.14 227.45,226.74 226.92,225.95 226.58,225.56 226.05,225.16 225.71,224.38 225.18,223.98 224.84,223.19 224.31,222.80 223.79,222.01 223.27,221.62 222.75,220.83 222.23,220.44 221.70,219.65 221.18,219.25 220.66,218.46 220.14,217.68 219.62,217.28 218.92,216.49 218.57,216.10 217.88,215.31 217.18,214.92 216.66,214.13 215.96,213.34 215.44,212.95 214.75,212.16 214.22,211.37 213.53,210.19 213.01,209.79 212.48,209.01 211.96,208.22 211.44,207.43 210.92,207.03 210.22,206.25 209.87,205.46 209.18,205.06 208.48,204.28 207.96,203.49 207.27,202.70 206.74,202.31 206.22,201.52 205.53,200.73 205.00,199.94 204.48,199.15 203.96,198.36 203.44,197.58 202.92,196.39 202.22,195.60 201.35,194.82 200.65,194.03 199.96,193.24 199.26,192.06 198.57,190.88 197.87,190.09 197.17,189.30 196.30,188.12 195.61,187.33 195.09,186.15 194.39,185.36 193.70,184.57 193.17,183.78 192.48,182.60 191.96,181.81 191.26,181.02 190.56,180.23 190.04,179.05 189.35,178.26 188.82,177.87 188.13,177.08 187.43,176.29 186.91,175.50 186.21,175.11 185.69,174.32 185.17,173.53 184.65,172.75 183.95,172.35 183.43,171.56 182.91,171.17 182.04,170.38 181.69,169.99 181.17,169.20 180.65,168.80 180.47,168.02 179.95,167.62 179.43,166.83 179.08,166.44 178.56,165.65 178.04,164.86 177.52,164.07 176.82,163.68 176.47,162.50 175.78,161.71 175.25,160.53 174.56,159.74 174.04,158.95 173.51,158.16 172.82,156.98 172.12,156.19 171.43,155.40 170.73,154.62 170.03,153.43 169.34,152.64 168.82,151.86 168.12,151.07 167.60,150.28 166.90,149.49 166.38,149.10 165.69,147.91 165.16,147.52 164.47,146.73 163.95,145.94 163.25,145.55 162.73,144.76 162.21,143.97 161.51,143.19 160.99,142.79 160.29,142.00 159.77,141.21 159.07,140.82 158.38,140.03 157.68,139.24 157.16,138.85 156.64,137.67 155.94,137.27 155.42,136.48 155.07,135.70 154.90,135.30 154.20,134.51 153.68,133.73 153.16,132.94 152.81,132.54 152.29,131.76 151.77,130.97 151.25,130.18 150.55,129.39 150.03,128.60 149.33,127.81 148.64,127.03 148.11,126.63 147.77,125.84 147.24,125.45 146.90,125.05 146.55,124.27 146.20,123.87 145.85,123.48 145.50,123.08 144.98,122.30 144.46,121.90 144.11,121.51 143.59,120.72 143.24,120.33 142.89,119.54 142.55,119.54 142.20,119.14 141.50,118.75 140.98,118.35 139.94,118.35 139.07,118.35 139.07,117.57 138.55,117.17 138.02,117.17 137.85,116.78 137.68,116.38 137.33,115.99 137.15,115.60 136.98,115.60 136.63,115.20 135.94,115.20 135.24,115.20 135.07,114.81 134.89,114.41 134.54,114.02 134.02,114.02 133.67,113.63 133.50,113.23 132.98,113.23 132.63,112.84 132.28,112.44 131.93,112.05 131.76,111.65 131.41,111.26 131.76,110.47 132.28,109.68 132.11,109.29 131.76,108.90 130.72,109.29 128.98,109.29 126.37,110.08 125.32,111.65 124.63,111.65 123.76,111.65 123.24,111.65 123.41,111.65 123.41,111.26 124.11,110.87 125.15,110.47 124.98,109.29 124.45,110.08 124.11,110.47 124.45,109.68 124.45,109.68 123.93,110.08 123.93,109.68 123.76,109.68 123.41,109.68 123.41,109.68 123.06,109.68 123.06,109.68 122.71,109.68 122.54,109.68 122.37,109.68 122.02,109.68 121.84,109.68 121.50,109.68 121.32,109.29 121.15,109.29 120.80,109.29 120.63,109.29 120.28,109.29 120.10,109.29 119.76,109.29 119.58,109.29 119.41,109.29 119.23,109.29 119.06,109.29 118.89,109.29 118.54,109.29 118.54,109.29 118.36,109.29 118.19,109.68 118.19,109.68 118.19,109.68 118.02,109.68 118.02,109.68 117.84,109.68 117.84,109.68 117.67,109.68 117.49,110.08 117.49,110.08 117.32,109.68 116.97,109.29 116.80,109.29 116.62,108.90 116.28,108.90 116.10,108.50 115.93,108.11 115.58,108.11 115.41,107.71 115.23,107.71 114.89,107.32 114.71,106.92 114.36,106.92 114.19,106.53 114.02,106.53 113.49,106.14 113.32,105.74 112.97,105.74 112.62,105.35 112.28,104.95 111.93,104.56 111.58,104.17 111.41,103.77 111.23,103.38 111.06,102.98 110.71,102.98 110.36,102.98 110.01,103.38 109.49,102.98 109.67,102.98 109.14,102.59 108.80,102.59 108.80,102.20 108.80,101.80 108.62,101.41 108.27,101.41 107.93,101.41 107.58,101.01 107.40,101.01 107.40,100.62 107.23,100.62 107.40,100.22 107.40,100.22 107.40,99.83 107.23,99.44 107.06,99.04 106.36,99.44 104.97,99.83 103.58,101.41 103.75,100.22 103.92,99.83 104.10,99.04 103.23,99.04 102.88,99.04 103.05,98.25 102.71,98.25 102.36,97.86 102.19,97.47 101.84,97.47 101.66,97.07 101.66,97.07 101.32,96.68 101.14,96.28 101.14,96.28 100.97,95.89 100.79,95.89 100.79,95.49 100.62,95.49 100.45,95.10 100.27,95.10 100.10,94.71 99.92,94.71 99.58,94.31 99.40,94.31 99.05,93.92 98.88,93.52 98.71,93.52 98.36,93.13 98.18,93.13 97.84,93.13 97.66,92.74 97.31,92.74 97.14,92.34 96.97,92.34 96.62,91.95 96.44,91.95 96.27,91.95 95.92,91.55 95.75,91.16 95.40,91.16 94.88,90.77 94.70,90.37 94.18,90.37 94.18,89.98 93.83,89.58 93.49,89.58 93.31,89.19 93.14,88.79 92.79,88.79 92.44,88.40 92.27,88.40 91.92,88.01 91.57,87.61 91.22,87.22 91.05,87.22 90.88,87.22 90.53,86.82 90.35,86.82 90.18,86.82 89.83,86.43 89.66,86.43 89.49,86.43 89.14,86.04 88.79,86.04 88.62,86.04 88.44,85.64 88.09,85.64 87.75,85.25 87.57,85.25 87.40,85.25 87.05,84.85 86.70,84.85 86.53,84.85 86.35,84.46 86.01,84.46 85.66,84.46 85.31,84.07 85.14,84.07 84.79,84.07 84.61,84.07 84.61,84.07 84.27,83.67 84.09,83.28 84.09,83.28 83.74,83.28 83.57,82.88 83.22,82.88 83.22,82.49 82.87,82.49 82.70,82.09 82.70,82.09 82.18,82.09 82.18,81.70 81.83,81.70 81.83,81.70 81.48,81.31 81.31,81.31 81.31,81.31 80.79,81.31 80.79,80.91 80.61,80.91 80.61,80.91 80.44,80.91 80.44,80.91 80.26,80.91 80.26,80.91 80.09,80.91 79.92,80.91 79.74,80.91 79.57,80.91 79.39,80.52 79.39,80.52 79.05,80.52 78.52,80.91 78.35,80.91 78.35,81.31 78.18,81.70 77.83,81.70 77.31,81.70 77.13,81.31 76.96,80.91 76.96,80.52 76.78,79.73 76.78,79.34 76.78,78.94 76.78,78.55 76.61,78.55 76.44,78.55 76.61,78.55 76.61,78.15 76.44,78.55 76.61,78.55 76.78,78.15 76.26,78.15 76.26,78.15 76.09,77.76 76.09,78.15 76.26,77.76 75.92,77.76 75.74,77.76 75.74,77.76 75.39,77.76 75.39,77.36 75.22,77.36 74.87,77.36 74.87,77.36 74.70,76.97 74.52,76.97 74.52,76.97 74.35,76.58 74.35,76.58 74.18,76.97 74.18,76.97 74.18,76.97 74.18,76.58 74.35,76.58 74.18,76.58 74.18,76.58 74.18,76.58 73.83,76.18 73.83,76.18 73.65,76.18 73.48,76.18 73.48,76.18 73.31,75.79 73.31,76.18 73.31,75.79 73.13,75.79 72.96,75.79 72.78,75.79 72.78,75.79 72.61,75.39 72.61,75.39 72.44,75.39 72.44,75.39 72.26,75.39 72.26,75.39 72.09,75.39 71.91,75.39 71.91,75.39 71.74,75.39 71.57,75.39 71.39,75.39 71.22,75.39 71.04,75.39 71.04,75.39 70.87,75.39 70.87,75.39 70.70,75.39 70.70,75.39 70.52,75.00 70.52,75.00 70.35,75.00 70.35,75.00 70.17,75.00 70.00,75.00" fill="none" stroke="#1f77b4" stroke-width="3" stroke-linejoin="round" stroke-linecap="round"/>
  <circle cx="558.69" cy="505.00" r="7" fill="#2ca02c" stroke="#ffffff" stroke-width="2"/>
  <circle cx="70.00" cy="75.00" r="7" fill="#d62728" stroke="#ffffff" stroke-width="2"/>
  <text x="75" y="525" font-family="Arial, sans-serif" font-size="13" fill="#5d6b78">East/North, meters from first GPS point</text>

  <rect x="650" y="60" width="485" height="225" rx="6" fill="#ffffff" stroke="#d7dde3"/>
  <text x="680" y="88" font-family="Arial, sans-serif" font-size="17" font-weight="700" fill="#17202a">Relative altitude</text>
  <line x1="680" y1="260" x2="1100" y2="260" stroke="#d7dde3"/>
  <polyline points="680.00,95.00 680.28,95.52 680.67,96.03 681.04,96.55 681.43,97.06 681.80,97.58 682.18,97.58 682.56,98.09 682.95,98.09 683.32,98.09 683.71,98.09 684.09,98.09 684.47,98.09 684.85,98.09 685.23,98.09 685.61,98.09 685.99,98.09 686.37,98.61 686.75,98.61 687.13,98.61 687.51,98.61 687.89,98.61 688.26,98.61 688.65,98.61 689.02,98.61 689.41,98.61 689.80,98.61 690.17,98.61 690.56,98.61 690.94,98.61 691.31,98.61 691.70,98.61 692.07,98.61 692.46,98.61 692.84,98.61 693.22,98.61 693.60,98.61 693.98,98.61 694.36,98.61 694.75,98.61 695.12,98.61 695.51,98.61 695.88,98.61 696.27,98.61 696.64,98.61 697.02,98.61 697.41,98.61 697.79,98.61 698.17,98.61 698.56,98.61 698.94,98.61 699.32,98.61 699.69,98.61 700.09,98.61 700.45,98.61 700.84,99.12 701.21,99.12 701.59,99.12 701.97,99.12 702.36,99.12 702.77,101.70 703.14,104.28 703.52,106.86 703.90,109.44 704.28,111.50 704.66,114.08 705.04,116.14 705.42,118.20 705.80,119.75 706.19,121.81 706.57,123.87 706.94,125.42 707.32,127.48 707.71,129.03 708.10,130.58 708.47,132.12 708.85,133.67 709.23,135.22 709.61,136.77 709.99,137.80 710.37,139.34 710.76,140.89 711.13,141.92 711.52,143.47 711.89,144.50 712.28,146.05 712.66,147.08 713.04,148.11 713.42,149.14 713.80,150.17 714.18,151.20 714.56,152.23 714.94,153.27 715.32,154.30 715.70,154.81 716.09,155.84 716.46,156.36 716.84,157.39 717.23,157.91 717.61,158.94 717.99,159.45 718.38,159.97 718.76,161.00 719.13,161.52 719.51,162.03 719.90,162.55 720.27,163.06 720.66,163.58 721.03,164.09 721.42,164.61 721.78,165.12 722.18,165.64 722.56,166.16 722.94,166.67 723.32,167.19 723.70,167.70 724.08,168.22 724.46,168.73 724.84,169.25 725.22,169.77 725.60,169.77 725.98,170.28 726.36,170.80 726.74,171.31 727.13,171.83 727.51,171.83 727.89,172.34 728.27,172.86 728.65,173.38 729.03,173.38 729.42,173.89 729.79,174.41 730.18,174.92 730.56,174.92 730.94,175.44 731.31,175.95 731.69,175.95 732.08,176.47 732.46,176.98 732.84,176.98 733.22,177.50 733.60,178.02 733.98,178.02 734.36,178.53 734.74,179.05 735.12,179.05 735.51,179.56 735.88,179.56 736.27,180.08 736.64,180.59 737.03,180.59 737.41,181.11 737.79,181.11 738.16,181.62 738.56,181.62 738.93,182.14 739.31,182.66 739.69,182.66 740.09,183.17 740.46,183.17 740.84,183.69 741.22,184.20 741.59,184.20 741.98,184.72 742.36,184.72 742.75,185.23 743.12,185.23 743.51,185.23 743.88,185.75 744.26,185.75 744.64,186.27 745.03,186.27 745.41,186.78 745.79,186.78 746.17,186.78 746.54,187.30 746.93,187.30 747.31,187.30 747.69,187.81 748.08,187.81 748.49,188.33 748.84,188.84 749.23,188.84 749.60,189.36 749.99,189.88 750.36,189.88 750.75,190.39 751.13,190.39 751.51,190.91 751.89,190.91 752.27,191.42 752.65,191.94 753.03,191.94 753.41,192.45 753.80,192.45 754.17,192.45 754.56,192.97 754.93,192.97 755.32,193.48 755.70,193.48 756.18,194.00 756.47,194.00 756.86,194.52 757.24,194.52 757.63,195.03 758.00,195.55 758.39,195.55 758.76,196.06 759.16,196.06 759.53,196.58 759.91,196.58 760.29,197.09 760.68,197.61 761.05,197.61 761.43,198.12 761.81,198.12 762.20,198.64 762.58,199.16 762.96,199.16 763.34,199.67 763.73,199.67 764.10,200.19 764.49,200.19 764.86,200.70 765.25,200.70 765.62,201.22 766.01,201.22 766.37,201.73 766.76,202.25 767.14,202.25 767.53,202.77 767.91,202.77 768.29,203.28 768.67,203.80 769.05,203.80 769.43,204.31 769.81,204.31 770.19,204.83 770.57,204.83 770.95,204.83 771.33,205.34 771.72,205.34 772.10,205.86 772.48,205.86 772.86,205.86 773.24,205.86 773.62,206.37 774.01,206.37 774.38,206.37 774.76,206.89 775.15,206.89 775.53,206.89 775.90,207.41 776.30,207.41 776.67,207.92 777.05,207.92 777.43,208.44 777.81,208.44 778.19,208.95 778.58,208.95 778.96,209.47 779.33,209.47 779.71,209.98 780.10,209.98 780.48,210.50 780.85,210.50 781.23,211.02 781.61,211.02 782.00,211.53 782.38,211.53 782.76,211.53 783.15,211.53 783.52,211.02 783.91,211.02 784.28,211.02 784.67,211.02 785.04,211.02 785.43,211.02 785.80,211.02 786.18,211.02 786.57,211.02 786.95,211.02 787.33,211.02 787.71,211.02 788.09,211.02 788.48,210.50 788.85,211.02 789.24,211.02 789.61,210.50 790.00,211.02 790.37,211.02 790.76,211.02 791.12,211.02 791.52,210.50 791.90,211.02 792.28,211.02 792.66,211.02 793.05,211.02 793.42,211.53 793.81,211.53 794.20,211.53 794.57,211.53 794.95,211.02 795.33,211.02 795.71,211.02 796.09,211.02 796.47,211.02 796.86,211.02 797.23,211.02 797.62,211.02 797.99,211.02 798.38,211.02 798.75,211.02 799.14,211.02 799.52,211.02 799.90,211.02 800.28,211.02 800.67,211.02 801.03,211.02 801.42,211.02 801.80,211.53 802.18,211.53 802.57,211.53 802.94,211.53 803.33,211.53 803.70,211.53 804.09,211.53 804.47,212.05 804.85,212.05 805.23,212.05 805.61,212.05 805.98,212.56 806.37,212.56 806.75,212.56 807.13,212.56 807.52,213.08 807.90,213.08 808.27,213.08 808.66,213.08 809.04,213.59 809.43,213.59 809.80,213.59 810.18,213.59 810.56,213.59 810.94,214.11 811.32,214.11 811.70,214.11 812.08,214.11 812.47,214.11 812.84,214.62 813.23,214.62 813.60,214.62 813.99,214.62 814.37,214.62 814.76,214.62 815.13,215.14 815.51,215.14 815.89,215.14 816.28,215.14 816.66,215.14 817.04,215.14 817.43,215.14 817.80,215.66 818.18,215.66 818.56,215.66 818.94,215.66 819.32,215.66 819.70,216.17 820.09,216.17 820.47,216.17 820.84,216.17 821.23,216.69 821.60,216.69 821.99,216.69 822.37,217.20 822.75,217.20 823.14,217.20 823.51,217.72 823.90,217.72 824.27,217.72 824.66,218.23 825.03,218.23 825.42,218.23 825.79,218.23 826.18,218.75 826.55,218.75 826.94,218.75 827.32,218.75 827.70,219.27 828.08,219.27 828.47,219.27 828.85,219.27 829.23,219.78 829.60,219.78 829.99,219.78 830.37,219.78 830.75,220.30 831.13,220.30 831.51,220.30 831.89,220.30 832.27,220.81 832.65,220.81 833.04,220.81 833.41,220.81 833.80,221.33 834.17,221.33 834.56,221.33 834.94,221.84 835.32,221.84 835.69,221.84 836.08,221.84 836.46,221.84 836.84,222.36 837.22,222.36 837.60,222.36 837.98,222.36 838.37,222.88 838.74,222.88 839.13,222.88 839.50,222.88 839.90,223.39 840.27,223.39 840.64,223.39 841.03,223.91 841.41,223.91 841.79,223.91 842.17,224.42 842.55,224.42 842.94,224.42 843.32,224.94 843.70,224.94 844.08,224.94 844.46,225.45 844.84,225.45 845.22,225.45 845.59,225.97 845.98,225.97 846.37,225.97 846.74,225.97 847.13,225.97 847.50,226.48 847.89,225.97 848.26,226.48 848.65,226.48 849.02,227.00 849.41,227.00 849.79,227.52 850.17,227.52 850.54,228.03 850.93,228.03 851.31,228.03 851.70,228.55 852.07,228.55 852.46,228.55 852.84,228.55 853.23,229.06 853.60,229.06 853.98,229.06 854.36,229.06 854.74,229.06 855.12,229.58 855.49,229.58 855.89,229.58 856.27,230.09 856.64,230.09 857.03,230.09 857.41,230.61 857.79,230.61 858.17,230.61 858.55,230.61 858.93,231.13 859.32,231.13 859.70,231.13 860.07,231.13 860.45,231.13 860.84,231.64 861.22,231.64 861.60,231.64 861.97,232.16 862.36,232.16 862.74,232.16 863.12,232.16 863.50,232.16 863.88,232.67 864.26,232.67 864.64,232.67 865.02,232.67 865.40,232.67 865.78,233.19 866.17,233.19 866.54,233.19 866.93,233.19 867.31,233.19 867.69,233.70 868.06,233.70 868.45,233.70 868.83,233.70 869.21,234.22 869.59,234.22 869.97,234.22 870.34,234.22 870.74,234.22 871.11,234.73 871.50,234.73 871.87,234.73 872.26,234.73 872.64,234.73 873.02,235.25 873.40,235.25 873.78,235.25 874.16,235.25 874.54,235.25 874.92,235.25 875.30,235.77 875.68,235.77 876.07,235.77 876.44,235.77 876.83,236.28 877.21,236.28 877.59,236.28 877.97,236.28 878.35,236.28 878.73,236.80 879.11,236.80 879.49,236.80 879.87,236.80 880.25,237.31 880.63,237.31 881.02,237.31 881.39,237.31 881.78,237.83 882.16,237.83 882.54,237.83 882.92,238.34 883.30,238.34 883.68,238.86 884.07,238.86 884.44,238.86 884.82,238.86 885.19,239.38 885.59,239.38 885.96,239.38 886.35,239.38 886.73,239.38 887.11,239.89 887.49,239.89 887.87,239.89 888.25,240.41 888.63,240.41 889.01,240.41 889.40,240.92 889.78,240.92 890.15,240.92 890.53,241.44 890.92,241.44 891.30,241.44 891.68,241.44 892.06,241.44 892.44,241.44 892.83,240.92 893.20,240.92 893.59,240.41 893.96,240.41 894.35,240.41 894.74,240.41 895.10,240.92 895.49,240.92 895.88,240.92 896.25,240.41 896.63,240.41 897.01,240.41 897.39,240.41 897.77,240.41 898.15,239.89 898.54,239.89 898.91,239.89 899.30,240.41 899.68,240.41 900.05,240.41 900.43,240.41 900.82,239.89 901.19,239.89 901.58,239.89 901.96,239.89 902.34,239.89 902.72,239.89 903.11,239.89 903.48,239.89 903.87,239.89 904.25,239.89 904.63,240.41 905.00,240.41 905.39,240.41 905.77,240.41 906.15,240.92 906.53,240.92 906.91,240.92 907.29,240.92 907.68,241.44 908.05,241.44 908.45,241.44 908.82,241.95 909.20,241.95 909.58,241.95 909.96,241.95 910.34,241.95 910.72,242.47 911.10,242.47 911.48,242.47 911.86,242.47 912.25,242.47 912.62,242.98 913.01,242.98 913.38,242.98 913.77,242.98 914.15,243.50 914.53,243.50 914.90,243.50 915.29,244.02 915.66,244.02 916.05,244.02 916.43,244.53 916.81,244.53 917.19,244.53 917.58,244.53 917.96,245.05 918.33,245.05 918.72,245.05 919.10,245.05 919.48,245.56 919.85,245.56 920.24,245.56 920.62,245.56 921.00,245.56 921.38,245.56 921.76,245.56 922.14,246.08 922.53,246.08 922.90,246.08 923.29,246.08 923.67,246.08 924.05,246.08 924.43,246.08 924.81,246.08 925.19,246.08 925.57,246.59 925.95,246.59 926.33,246.59 926.71,246.59 927.10,247.11 927.47,247.11 927.86,247.11 928.23,247.11 928.62,247.62 929.00,247.62 929.39,248.14 929.75,248.14 930.14,248.14 930.52,248.14 930.90,248.66 931.30,248.66 931.66,248.66 932.05,248.66 932.44,249.17 932.81,249.17 933.20,249.17 933.57,249.17 933.95,249.17 934.34,249.17 934.71,249.17 935.10,249.17 935.47,249.17 935.86,249.17 936.23,249.17 936.62,249.17 937.00,249.17 937.37,249.17 937.76,249.69 938.13,249.69 938.52,249.69 938.90,249.69 939.28,249.69 939.65,249.69 940.05,250.20 940.42,250.20 940.81,250.20 941.18,250.20 941.57,250.20 941.94,250.72 942.33,250.72 942.70,250.72 943.16,250.72 943.54,250.72 943.93,251.23 944.30,251.23 944.61,251.23 944.99,251.75 945.38,251.75 945.75,251.75 946.14,251.75 946.52,251.75 946.90,252.27 947.28,252.27 947.67,252.27 948.04,252.27 948.43,252.78 948.80,252.78 949.19,252.78 949.56,252.78 949.95,252.78 950.33,253.30 950.72,253.30 951.09,253.30 951.48,253.30 951.85,253.81 952.23,253.81 952.61,253.81 953.00,253.81 953.37,253.81 953.76,253.81 954.14,253.81 954.51,253.81 954.89,253.81 955.28,253.81 955.65,253.81 956.03,253.81 956.41,253.81 956.80,253.81 957.17,253.81 957.56,253.81 957.94,253.81 958.32,253.81 958.70,253.81 959.08,253.81 959.45,253.81 959.85,253.81 960.22,253.81 960.60,253.81 960.98,253.81 961.36,253.81 961.75,253.81 962.13,253.81 962.51,253.81 962.89,253.81 963.27,253.81 963.65,253.81 964.03,253.81 964.40,253.81 964.80,253.81 965.17,254.33 965.56,254.33 965.94,254.33 966.32,254.33 966.70,254.33 967.08,254.33 967.46,254.33 967.85,254.33 968.22,254.33 968.60,254.33 968.98,254.33 969.38,254.33 969.75,254.33 970.13,254.33 970.51,254.33 970.90,254.33 971.27,254.33 971.66,254.33 972.04,254.33 972.42,254.33 972.80,254.33 973.19,254.33 973.57,254.84 973.94,254.84 974.32,254.84 974.70,254.84 975.09,254.84 975.47,254.84 975.85,254.84 976.22,255.36 976.60,255.36 976.99,255.36 977.37,255.36 977.74,255.36 978.13,255.36 978.51,255.36 978.89,255.36 979.27,255.36 979.65,255.36 980.04,255.88 980.41,255.88 980.80,255.88 981.17,255.88 981.56,255.88 981.94,255.88 982.33,255.88 982.70,255.88 983.09,255.88 983.46,255.88 983.85,255.88 984.21,255.88 984.64,255.88 984.99,256.39 985.37,256.39 985.75,256.39 986.14,256.39 986.51,256.39 986.90,256.39 987.27,256.39 987.66,256.39 988.04,256.91 988.42,256.91 988.80,256.91 989.17,256.91 989.56,257.42 989.94,257.42 990.32,257.42 990.71,257.94 991.08,257.94 991.47,257.94 991.84,257.94 992.24,257.94 992.60,257.94 992.99,257.94 993.37,257.94 993.75,257.94 994.12,257.94 994.52,257.94 994.89,257.94 995.28,257.94 995.65,257.94 996.04,257.94 996.42,257.94 996.80,257.94 997.17,257.94 997.56,257.94 997.94,257.94 998.32,257.94 998.70,257.94 999.07,257.94 999.46,257.94 999.85,257.94 1000.22,257.94 1000.61,257.94 1000.98,257.94 1001.36,257.94 1001.74,257.94 1002.12,257.94 1002.51,258.45 1002.88,258.45 1003.27,258.45 1003.65,258.45 1004.02,258.45 1004.41,258.45 1004.79,258.45 1005.17,258.45 1005.57,258.45 1005.93,258.45 1006.32,258.45 1006.70,258.45 1007.07,258.45 1007.47,258.45 1007.83,258.45 1008.23,258.45 1008.60,258.45 1008.97,258.45 1009.38,258.45 1009.74,258.45 1010.13,258.45 1010.50,258.45 1010.88,258.45 1011.27,257.94 1011.64,257.94 1012.03,257.94 1012.41,257.94 1012.80,257.94 1013.17,257.94 1013.56,257.94 1013.92,257.94 1014.32,258.45 1014.69,258.45 1015.08,258.45 1015.45,258.45 1015.84,258.45 1016.21,258.45 1016.60,258.45 1016.97,258.45 1017.36,258.45 1017.74,258.45 1018.12,258.45 1018.50,258.45 1018.88,258.45 1019.26,258.45 1019.65,258.45 1020.02,258.45 1020.41,258.45 1020.78,258.45 1021.17,258.45 1021.55,258.45 1021.93,258.45 1022.31,258.45 1022.71,258.45 1023.06,258.45 1023.44,258.45 1023.82,258.45 1024.21,258.45 1024.59,258.97 1024.98,258.97 1025.35,258.97 1025.74,258.97 1026.11,258.97 1026.50,258.97 1026.88,258.97 1027.26,258.97 1027.64,258.97 1028.03,258.97 1028.40,258.97 1028.78,258.97 1029.16,258.97 1029.54,258.97 1029.92,258.45 1030.31,258.97 1030.69,258.97 1031.07,258.97 1031.45,258.97 1031.83,258.97 1032.21,258.97 1032.59,258.97 1032.97,258.97 1033.35,258.97 1033.73,258.97 1034.11,258.97 1034.49,258.97 1034.88,258.97 1035.26,258.97 1035.64,258.97 1036.01,258.97 1036.39,258.97 1036.78,258.97 1037.16,258.97 1037.54,258.97 1037.93,258.97 1038.31,258.97 1038.68,258.97 1039.06,258.97 1039.44,258.97 1039.83,258.97 1040.20,258.97 1040.59,258.97 1040.97,258.97 1041.35,258.97 1041.73,258.97 1042.11,258.97 1042.49,258.97 1042.88,258.97 1043.25,258.45 1043.65,258.97 1044.00,258.97 1044.40,258.97 1044.78,258.45 1045.16,258.45 1045.55,258.45 1045.92,258.45 1046.30,258.45 1046.68,258.45 1047.08,258.45 1047.44,258.97 1047.82,258.97 1048.22,258.97 1048.58,258.97 1048.96,258.97 1049.34,258.97 1049.73,258.97 1050.11,258.97 1050.49,258.97 1050.88,258.97 1051.24,258.97 1051.64,258.97 1052.01,258.97 1052.40,258.97 1052.77,258.97 1053.17,258.97 1053.53,258.97 1053.91,258.97 1054.29,258.97 1054.68,258.97 1055.06,258.97 1055.44,258.97 1055.81,258.97 1056.20,259.48 1056.57,259.48 1056.96,259.48 1057.33,259.48 1057.72,259.48 1058.10,259.48 1058.48,259.48 1058.85,259.48 1059.24,259.48 1059.62,259.48 1060.01,259.48 1060.38,259.48 1060.77,259.48 1061.15,259.48 1061.53,260.00 1061.91,260.00 1062.29,260.00 1062.66,260.00 1063.05,260.00 1063.43,260.00 1063.80,260.00 1064.19,260.00 1064.58,260.00 1064.95,260.00 1065.34,260.00 1065.71,260.00 1066.10,260.00 1066.48,260.00 1066.86,260.00 1067.24,260.00 1067.62,260.00 1068.00,260.00 1068.40,260.00 1068.76,260.00 1069.15,259.48 1069.53,259.48 1069.91,259.48 1070.28,258.97 1070.67,258.97 1071.05,258.97 1071.43,258.97 1071.81,258.97 1072.19,258.97 1072.57,258.97 1072.95,258.97 1073.33,258.97 1073.71,259.48 1074.09,258.97 1074.48,258.97 1074.86,258.97 1075.24,258.97 1075.61,258.97 1075.99,259.48 1076.39,258.97 1076.76,258.97 1077.14,258.97 1077.52,258.97 1077.90,258.97 1078.29,258.97 1078.66,258.97 1079.05,258.97 1079.43,258.97 1079.81,258.97 1080.19,258.97 1080.58,258.97 1080.95,258.97 1081.33,258.97 1081.71,258.97 1082.10,258.97 1082.48,258.97 1082.86,258.97 1083.24,258.97 1083.62,258.97 1084.00,258.97 1084.39,258.97 1084.76,258.45 1085.15,258.45 1085.52,258.45 1085.90,258.45 1086.29,258.45 1086.67,258.45 1087.05,257.94 1087.43,257.94 1087.81,257.94 1088.18,257.94 1088.57,257.94 1088.96,257.94 1089.33,257.42 1089.71,257.42 1090.09,257.42 1090.47,257.42 1090.86,257.42 1091.23,257.42 1091.62,256.91 1092.00,256.91 1092.38,256.91 1092.75,256.91 1093.14,256.91 1093.51,256.91 1093.90,256.91 1094.28,256.91 1094.67,256.91 1095.04,256.91 1095.43,256.91 1095.80,256.91 1096.18,256.91 1096.56,256.91 1096.95,256.91 1097.33,256.91 1097.71,256.91 1098.08,256.91 1098.46,256.91 1098.87,256.91 1099.23,256.39 1099.61,256.39 1100.00,256.39" fill="none" stroke="#9467bd" stroke-width="2.5" stroke-linejoin="round" stroke-linecap="round"/>
  <text x="680" y="277" font-family="Arial, sans-serif" font-size="13" fill="#5d6b78">-32.0..0.0 m relative to start</text>

  <rect x="650" y="305" width="485" height="200" rx="6" fill="#ffffff" stroke="#d7dde3"/>
  <text x="680" y="333" font-family="Arial, sans-serif" font-size="17" font-weight="700" fill="#17202a">Speed</text>
  <line x1="680" y1="475" x2="1100" y2="475" stroke="#d7dde3"/>
  <polyline points="680.00,475.00 680.28,330.00 680.67,465.09 681.04,468.98 681.43,475.00 681.80,471.35 682.18,467.61 682.56,473.39 682.95,471.42 683.32,471.74 683.71,475.00 684.09,475.00 684.47,471.42 684.85,473.36 685.23,475.00 685.61,471.74 685.99,475.00 686.37,473.35 686.75,473.39 687.13,471.35 687.51,473.39 687.89,473.38 688.26,475.00 688.65,475.00 689.02,475.00 689.41,475.00 689.80,475.00 690.17,473.35 690.56,475.00 690.94,475.00 691.31,475.00 691.70,471.42 692.07,475.00 692.46,475.00 692.84,473.38 693.22,473.38 693.60,471.77 693.98,473.38 694.36,473.38 694.75,473.41 695.12,471.71 695.51,473.39 695.88,471.72 696.27,473.41 696.64,471.31 697.02,475.00 697.41,475.00 697.79,475.00 698.17,475.00 698.56,473.41 698.94,475.00 699.32,475.00 699.69,475.00 700.09,473.43 700.45,475.00 700.84,475.00 701.21,475.00 701.59,473.38 701.97,473.35 702.36,475.00 702.77,446.91 703.14,442.47 703.52,444.10 703.90,446.50 704.28,447.55 704.66,449.49 705.04,447.82 705.42,449.72 705.80,450.70 706.19,448.09 706.57,449.46 706.94,450.20 707.32,452.57 707.71,453.20 708.10,452.57 708.47,451.66 708.85,455.52 709.23,454.27 709.61,453.02 709.99,455.47 710.37,454.09 710.76,454.90 711.13,453.65 711.52,454.50 711.89,457.28 712.28,457.23 712.66,455.07 713.04,457.06 713.42,455.12 713.80,456.88 714.18,456.51 714.56,456.88 714.94,457.64 715.32,455.71 715.70,461.14 716.09,460.51 716.46,457.28 716.84,463.21 717.23,456.88 717.61,460.65 717.99,455.32 718.38,462.32 718.76,454.27 719.13,466.75 719.51,465.85 719.90,470.51 720.27,466.58 720.66,470.51 721.03,466.75 721.42,469.28 721.78,466.58 722.18,469.39 722.56,465.76 722.94,469.16 723.32,466.92 723.70,466.92 724.08,470.42 724.46,466.92 724.84,469.22 725.22,466.84 725.60,467.75 725.98,465.85 726.36,466.92 726.74,469.10 727.13,467.00 727.51,467.75 727.89,466.92 728.27,469.16 728.65,465.85 729.03,465.94 729.42,467.90 729.79,466.75 730.18,466.27 730.56,466.92 730.94,465.85 731.31,465.76 731.69,465.76 732.08,466.03 732.46,465.85 732.84,464.53 733.22,464.74 733.60,465.76 733.98,464.74 734.36,463.21 734.74,465.94 735.12,461.14 735.51,463.55 735.88,460.99 736.27,464.74 736.64,460.85 737.03,470.56 737.41,469.16 737.79,471.39 738.16,471.31 738.56,468.05 738.93,473.35 739.31,471.35 739.69,468.41 740.09,470.56 740.46,471.28 740.84,469.16 741.22,471.39 741.59,470.38 741.98,470.51 742.36,470.33 742.75,470.56 743.12,469.04 743.51,470.51 743.88,470.33 744.26,470.42 744.64,470.42 745.03,470.42 745.41,467.78 745.79,471.76 746.17,469.16 746.54,470.33 746.93,469.28 747.31,470.42 747.69,469.16 748.08,467.00 748.49,466.92 748.84,465.62 749.23,466.36 749.60,464.53 749.99,467.83 750.36,464.53 750.75,467.90 751.13,464.64 751.51,463.09 751.89,466.36 752.27,464.64 752.65,464.53 753.03,466.36 753.41,463.21 753.80,465.94 754.17,464.65 754.56,464.74 754.93,464.53 755.32,466.36 755.70,464.53 756.18,466.90 756.47,463.52 756.86,464.94 757.24,467.68 757.63,466.36 758.00,465.76 758.39,467.83 758.76,464.53 759.16,466.53 759.53,467.61 759.91,467.83 760.29,466.18 760.68,467.83 761.05,467.68 761.43,464.75 761.81,469.16 762.20,466.36 762.58,466.27 762.96,465.94 763.34,466.73 763.73,464.84 764.10,466.18 764.49,467.90 764.86,466.00 765.25,464.74 765.62,466.18 766.01,466.44 766.37,464.09 766.76,466.53 767.14,468.45 767.53,467.83 767.91,467.75 768.29,466.27 768.67,467.75 769.05,467.68 769.43,467.75 769.81,466.36 770.19,466.27 770.57,467.75 770.95,464.75 771.33,467.68 771.72,464.95 772.10,466.18 772.48,465.85 772.86,467.75 773.24,464.64 773.62,467.75 774.01,466.03 774.38,466.10 774.76,467.83 775.15,462.37 775.53,466.36 775.90,462.11 776.30,464.94 776.67,466.18 777.05,460.08 777.43,467.61 777.81,464.64 778.19,467.75 778.58,466.03 778.96,467.75 779.33,465.66 779.71,467.75 780.10,467.90 780.48,464.53 780.85,466.84 781.23,466.27 781.61,465.85 782.00,466.27 782.38,466.03 782.76,466.10 783.15,467.90 783.52,467.61 783.91,466.03 784.28,466.18 784.67,466.36 785.04,467.61 785.43,464.74 785.80,466.18 786.18,466.18 786.57,464.95 786.95,464.74 787.33,466.10 787.71,466.44 788.09,463.21 788.48,467.83 788.85,467.68 789.24,469.22 789.61,467.61 790.00,470.23 790.37,466.67 790.76,467.90 791.12,470.23 791.52,469.39 791.90,466.92 792.28,467.75 792.66,466.84 793.05,467.90 793.42,467.61 793.81,467.08 794.20,466.44 794.57,466.18 794.95,465.76 795.33,466.36 795.71,467.61 796.09,466.27 796.47,464.74 796.86,466.36 797.23,467.68 797.62,464.74 797.99,466.10 798.38,464.84 798.75,467.61 799.14,467.83 799.52,465.85 799.90,467.83 800.28,467.68 800.67,469.22 801.03,468.92 801.42,467.90 801.80,469.22 802.18,467.75 802.57,467.75 802.94,468.45 803.33,467.00 803.70,467.68 804.09,467.83 804.47,466.18 804.85,470.14 805.23,465.94 805.61,468.51 805.98,467.61 806.37,467.83 806.75,469.22 807.13,467.68 807.52,467.83 807.90,467.75 808.27,466.18 808.66,467.90 809.04,467.68 809.43,470.51 809.80,466.64 810.18,469.22 810.56,467.68 810.94,467.83 811.32,467.68 811.70,469.22 812.08,467.68 812.47,468.58 812.84,469.10 813.23,470.51 813.60,471.69 813.99,469.22 814.37,471.76 814.76,470.51 815.13,470.28 815.51,470.18 815.89,470.42 816.28,470.47 816.66,470.18 817.04,465.85 817.43,469.28 817.80,467.61 818.18,469.10 818.56,467.75 818.94,469.16 819.32,467.75 819.70,465.85 820.09,467.90 820.47,466.84 820.84,468.98 821.23,466.20 821.60,470.28 821.99,469.16 822.37,471.82 822.75,467.63 823.14,470.23 823.51,470.38 823.90,469.22 824.27,469.04 824.66,470.56 825.03,470.28 825.42,470.28 825.79,470.23 826.18,471.85 826.55,471.69 826.94,469.28 827.32,470.04 827.70,470.51 828.08,470.38 828.47,469.22 828.85,470.14 829.23,471.76 829.60,470.38 829.99,469.28 830.37,471.72 830.75,469.10 831.13,470.18 831.51,469.16 831.89,471.76 832.27,470.42 832.65,470.04 833.04,473.41 833.41,470.33 833.80,471.82 834.17,469.04 834.56,473.43 834.94,471.69 835.32,469.22 835.69,471.66 836.08,469.33 836.46,470.38 836.84,473.39 837.22,471.69 837.60,471.82 837.98,471.72 838.37,471.82 838.74,471.28 839.13,471.82 839.50,471.69 839.90,469.49 840.27,469.93 840.64,470.33 841.03,469.28 841.41,471.76 841.79,471.76 842.17,469.16 842.55,470.42 842.94,470.14 843.32,473.39 843.70,471.35 844.08,471.77 844.46,473.38 844.84,471.42 845.22,469.10 845.59,466.75 845.98,471.79 846.37,471.85 846.74,462.96 847.13,454.13 847.50,445.49 847.89,465.37 848.26,459.75 848.65,466.97 849.02,470.09 849.41,470.47 849.79,471.72 850.17,471.42 850.54,468.21 850.93,460.79 851.31,463.21 851.70,461.89 852.07,458.30 852.46,471.80 852.84,464.53 853.23,470.60 853.60,457.78 853.98,471.77 854.36,468.41 854.74,466.89 855.12,471.77 855.49,468.98 855.89,471.85 856.27,469.16 856.64,471.72 857.03,471.46 857.41,469.10 857.79,471.72 858.17,470.47 858.55,467.75 858.93,469.16 859.32,470.51 859.70,470.09 860.07,470.38 860.45,470.09 860.84,467.90 861.22,470.38 861.60,471.76 861.97,469.10 862.36,471.79 862.74,469.10 863.12,471.82 863.50,467.61 863.88,471.79 864.26,469.10 864.64,470.18 865.02,469.10 865.40,470.42 865.78,470.14 866.17,467.83 866.54,469.10 866.93,471.79 867.31,470.09 867.69,470.47 868.06,471.69 868.45,469.28 868.83,471.72 869.21,469.22 869.59,471.72 869.97,469.22 870.34,471.66 870.74,469.33 871.11,471.72 871.50,470.47 871.87,469.10 872.26,470.14 872.64,470.42 873.02,469.22 873.40,469.10 873.78,469.16 874.16,473.39 874.54,470.42 874.92,470.09 875.30,471.72 875.68,469.22 876.07,471.79 876.44,470.38 876.83,470.42 877.21,470.14 877.59,469.16 877.97,470.42 878.35,470.14 878.73,470.14 879.11,469.16 879.49,475.00 879.87,467.75 880.25,470.38 880.63,471.79 881.02,471.79 881.39,471.35 881.78,471.79 882.16,467.68 882.54,471.79 882.92,471.35 883.30,470.47 883.68,469.10 884.07,467.08 884.44,469.04 884.82,471.77 885.19,468.98 885.59,468.10 885.96,471.28 886.35,470.51 886.73,471.35 887.11,471.79 887.49,471.74 887.87,470.47 888.25,470.09 888.63,471.42 889.01,470.42 889.40,471.42 889.78,471.72 890.15,471.72 890.53,468.34 890.92,470.51 891.30,467.70 891.68,471.72 892.06,471.80 892.44,467.68 892.83,467.92 893.20,467.70 893.59,465.47 893.96,464.91 894.35,464.99 894.74,468.48 895.10,464.67 895.49,467.99 895.88,465.41 896.25,473.35 896.63,471.39 897.01,471.74 897.39,468.41 897.77,468.34 898.15,468.34 898.54,468.61 898.91,468.28 899.30,470.51 899.68,467.63 900.05,468.28 900.43,468.55 900.82,471.80 901.19,470.38 901.58,468.48 901.96,470.38 902.34,470.47 902.72,471.35 903.11,470.47 903.48,470.38 903.87,473.41 904.25,471.35 904.63,471.79 905.00,470.28 905.39,468.48 905.77,473.38 906.15,470.42 906.53,470.38 906.91,471.42 907.29,470.38 907.68,470.51 908.05,470.33 908.45,470.64 908.82,468.92 909.20,469.22 909.58,470.33 909.96,466.92 910.34,467.75 910.72,470.47 911.10,466.84 911.48,465.94 911.86,469.10 912.25,467.00 912.62,469.10 913.01,469.22 913.38,471.72 913.77,467.00 914.15,470.14 914.53,467.70 914.90,469.04 915.29,469.28 915.66,470.38 916.05,470.42 916.43,467.08 916.81,470.38 917.19,469.16 917.58,467.85 917.96,469.16 918.33,467.70 918.72,469.22 919.10,466.92 919.48,469.16 919.85,466.75 920.24,469.22 920.62,467.00 921.00,469.10 921.38,466.92 921.76,466.92 922.14,469.16 922.53,466.03 922.90,470.33 923.29,466.03 923.67,467.75 924.05,466.92 924.43,465.66 924.81,469.16 925.19,465.85 925.57,467.00 925.95,463.23 926.33,469.22 926.71,466.84 927.10,467.00 927.47,466.84 927.86,469.22 928.23,465.76 928.62,467.85 929.00,467.75 929.39,466.12 929.75,466.40 930.14,466.03 930.52,469.16 930.90,466.92 931.30,466.28 931.66,466.58 932.05,466.92 932.44,467.15 932.81,466.84 933.20,464.16 933.57,465.76 933.95,464.53 934.34,466.12 934.71,465.47 935.10,463.57 935.47,463.23 935.86,466.12 936.23,465.47 936.62,462.50 937.00,465.85 937.37,464.06 937.76,465.94 938.13,465.76 938.52,467.08 938.90,463.35 939.28,466.92 939.65,465.57 940.05,466.12 940.42,464.06 940.81,465.94 941.18,469.10 941.57,465.94 941.94,465.66 942.33,467.08 942.70,467.61 943.16,468.32 943.54,466.84 943.93,467.00 944.30,467.61 944.61,465.14 944.99,469.16 945.38,464.84 945.75,470.33 946.14,467.00 946.52,469.16 946.90,468.41 947.28,469.04 947.67,467.08 948.04,470.38 948.43,467.00 948.80,466.75 949.19,467.08 949.56,467.53 949.95,465.18 950.33,465.66 950.72,464.38 951.09,465.66 951.48,467.08 951.85,466.67 952.23,463.46 952.61,465.76 953.00,466.03 953.37,465.66 953.76,463.57 954.14,465.94 954.51,466.67 954.89,465.85 955.28,467.08 955.65,465.66 956.03,469.16 956.41,463.23 956.80,469.22 957.17,465.76 957.56,467.00 957.94,467.75 958.32,466.92 958.70,466.92 959.08,465.85 959.45,469.04 959.85,466.12 960.22,466.84 960.60,467.68 960.98,465.85 961.36,465.85 961.75,469.22 962.13,464.16 962.51,467.83 962.89,466.75 963.27,467.92 963.65,471.35 964.03,465.94 964.40,466.67 964.80,467.15 965.17,470.38 965.56,467.08 965.94,466.84 966.32,467.00 966.70,465.76 967.08,466.92 967.46,465.85 967.85,466.03 968.22,468.98 968.60,467.78 968.98,469.16 969.38,470.60 969.75,467.55 970.13,470.42 970.51,470.47 970.90,470.47 971.27,466.84 971.66,469.28 972.04,470.42 972.42,466.92 972.80,470.33 973.19,467.92 973.57,471.76 973.94,470.38 974.32,467.68 974.70,469.22 975.09,465.46 975.47,466.73 975.85,468.55 976.22,469.10 976.60,470.14 976.99,471.42 977.37,471.35 977.74,470.38 978.13,471.42 978.51,473.38 978.89,470.42 979.27,468.51 979.65,468.58 980.04,471.42 980.41,471.31 980.80,470.51 981.17,470.04 981.56,470.51 981.94,471.35 982.33,470.23 982.70,470.33 983.09,470.47 983.46,470.38 983.85,471.46 984.21,470.18 984.64,468.55 984.99,466.12 985.37,471.46 985.75,470.38 986.14,464.85 986.51,458.62 986.90,450.08 987.27,458.50 987.66,468.64 988.04,466.89 988.42,470.14 988.80,473.36 989.17,471.74 989.56,467.83 989.94,464.85 990.32,465.08 990.71,467.08 991.08,470.33 991.47,467.92 991.84,475.00 992.24,469.39 992.60,471.64 992.99,473.39 993.37,471.72 993.75,475.00 994.12,471.66 994.52,475.00 994.89,471.69 995.28,473.41 995.65,473.36 996.04,471.79 996.42,473.36 996.80,471.79 997.17,471.31 997.56,473.41 997.94,471.69 998.32,473.39 998.70,471.72 999.07,473.36 999.46,471.82 999.85,473.39 1000.22,473.35 1000.61,473.39 1000.98,473.35 1001.36,473.38 1001.74,471.79 1002.12,475.00 1002.51,473.39 1002.88,471.35 1003.27,475.00 1003.65,475.00 1004.02,473.36 1004.41,475.00 1004.79,473.41 1005.17,475.00 1005.57,473.46 1005.93,471.20 1006.32,475.00 1006.70,471.35 1007.07,470.33 1007.47,473.44 1007.83,471.24 1008.23,471.91 1008.60,471.28 1008.97,471.28 1009.38,471.97 1009.74,471.20 1010.13,473.41 1010.50,470.33 1010.88,471.39 1011.27,471.79 1011.64,471.35 1012.03,473.41 1012.41,469.04 1012.80,471.49 1013.17,471.69 1013.56,470.47 1013.92,470.28 1014.32,470.56 1014.69,470.33 1015.08,471.46 1015.45,471.31 1015.84,471.46 1016.21,471.69 1016.60,471.82 1016.97,470.33 1017.36,469.28 1017.74,473.35 1018.12,469.28 1018.50,471.69 1018.88,471.77 1019.26,471.77 1019.65,471.46 1020.02,471.69 1020.41,471.82 1020.78,470.33 1021.17,473.41 1021.55,471.74 1021.93,473.38 1022.31,471.35 1022.71,475.00 1023.06,471.57 1023.44,471.39 1023.82,471.35 1024.21,467.83 1024.59,461.63 1024.98,457.23 1025.35,464.98 1025.74,471.42 1026.11,468.28 1026.50,467.05 1026.88,471.72 1027.26,468.41 1027.64,471.69 1028.03,470.51 1028.40,471.31 1028.78,471.76 1029.16,471.35 1029.54,475.00 1029.92,470.42 1030.31,471.46 1030.69,475.00 1031.07,471.39 1031.45,473.38 1031.83,471.74 1032.21,473.38 1032.59,471.42 1032.97,473.36 1033.35,471.42 1033.73,473.36 1034.11,470.42 1034.49,473.39 1034.88,470.47 1035.26,471.35 1035.64,473.39 1036.01,470.33 1036.39,473.38 1036.78,471.82 1037.16,471.31 1037.54,471.82 1037.93,471.39 1038.31,473.38 1038.68,470.33 1039.06,473.38 1039.44,473.36 1039.83,470.51 1040.20,471.35 1040.59,471.79 1040.97,469.16 1041.35,471.42 1041.73,470.04 1042.11,471.80 1042.49,470.38 1042.88,471.82 1043.25,471.31 1043.65,471.56 1044.00,471.51 1044.40,470.60 1044.78,473.36 1045.16,470.47 1045.55,470.51 1045.92,470.33 1046.30,473.36 1046.68,473.36 1047.08,470.64 1047.44,473.33 1047.82,473.36 1048.22,470.60 1048.58,473.31 1048.96,473.38 1049.34,470.38 1049.73,471.79 1050.11,473.39 1050.49,471.35 1050.88,471.85 1051.24,470.23 1051.64,473.44 1052.01,473.33 1052.40,470.56 1052.77,471.66 1053.17,473.46 1053.53,471.16 1053.91,471.76 1054.29,471.72 1054.68,470.56 1055.06,473.36 1055.44,471.79 1055.81,473.35 1056.20,475.00 1056.57,470.28 1056.96,471.42 1057.33,475.00 1057.72,471.82 1058.10,471.31 1058.48,471.79 1058.85,471.71 1059.24,471.82 1059.62,471.39 1060.01,475.00 1060.38,470.04 1060.77,471.80 1061.15,471.72 1061.53,475.00 1061.91,470.42 1062.29,473.38 1062.66,475.00 1063.05,470.18 1063.43,471.74 1063.80,473.36 1064.19,475.00 1064.58,473.41 1064.95,475.00 1065.34,473.41 1065.71,475.00 1066.10,473.41 1066.48,473.35 1066.86,473.39 1067.24,473.36 1067.62,471.42 1068.00,475.00 1068.40,471.94 1068.76,468.72 1069.15,473.44 1069.53,471.71 1069.91,471.42 1070.28,471.69 1070.67,470.23 1071.05,471.31 1071.43,471.42 1071.81,471.74 1072.19,468.41 1072.57,471.77 1072.95,471.77 1073.33,471.77 1073.71,473.36 1074.09,473.38 1074.48,473.39 1074.86,471.77 1075.24,471.39 1075.61,473.36 1075.99,471.35 1076.39,470.32 1076.76,475.00 1077.14,471.42 1077.52,471.77 1077.90,471.39 1078.29,471.82 1078.66,473.31 1079.05,475.00 1079.43,471.79 1079.81,471.80 1080.19,473.35 1080.58,471.82 1080.95,475.00 1081.33,471.42 1081.71,473.36 1082.10,475.00 1082.48,471.31 1082.86,475.00 1083.24,471.35 1083.62,475.00 1084.00,475.00 1084.39,471.90 1084.76,473.31 1085.15,473.43 1085.52,475.00 1085.90,475.00 1086.29,470.51 1086.67,475.00 1087.05,473.41 1087.43,473.36 1087.81,475.00 1088.18,471.35 1088.57,471.84 1088.96,471.80 1089.33,473.35 1089.71,473.36 1090.09,473.38 1090.47,475.00 1090.86,471.42 1091.23,475.00 1091.62,473.41 1092.00,475.00 1092.38,473.39 1092.75,475.00 1093.14,473.41 1093.51,473.31 1093.90,475.00 1094.28,473.36 1094.67,473.41 1095.04,473.35 1095.43,473.41 1095.80,473.35 1096.18,475.00 1096.56,473.36 1096.95,475.00 1097.33,473.38 1097.71,475.00 1098.08,471.31 1098.46,475.00 1098.87,473.47 1099.23,475.00 1099.61,473.36 1100.00,473.41" fill="none" stroke="#ff7f0e" stroke-width="2.5" stroke-linejoin="round" stroke-linecap="round"/>
  <text x="680" y="492" font-family="Arial, sans-serif" font-size="13" fill="#5d6b78">max 8.33 m/s</text>
</svg>
