<svg xmlns="http://www.w3.org/2000/svg" width="1180" height="590" viewBox="0 0 1180 590">
  <rect width="1180" height="590" fill="#f7f8fa"/>
  <text x="45" y="42" font-family="Arial, sans-serif" font-size="24" font-weight="700" fill="#17202a">GPS flight path</text>
  <text x="45" y="560" font-family="Arial, sans-serif" font-size="14" fill="#5d6b78">Distance: 31.0 m | Duration: 02:47.4 | Points: 1675</text>

  <rect x="45" y="60" width="550" height="470" rx="6" fill="#ffffff" stroke="#d7dde3"/>
  <line x1="70" y1="505" x2="570" y2="505" stroke="#d7dde3"/>
  <line x1="70" y1="75" x2="70" y2="505" stroke="#d7dde3"/>
  <polyline points="497.15,492.82 497.15,493.29 497.15,493.29 497.15,493.76 497.91,493.76 498.68,493.76 499.45,494.23 500.21,494.69 500.98,495.16 501.75,495.16 502.52,495.63 502.52,496.10 504.05,495.63 504.05,495.16 504.05,495.63 505.58,495.16 505.58,495.16 506.35,495.63 506.35,494.69 506.35,494.23 507.12,494.69 507.12,495.16 507.88,494.69 507.88,494.69 507.12,494.23 507.88,493.76 507.88,493.76 509.42,493.76 510.18,493.76 510.95,493.29 511.72,493.29 512.48,493.29 512.48,493.29 513.25,493.76 514.02,493.29 514.02,493.76 514.79,493.76 514.79,494.23 516.32,494.69 516.32,494.69 517.85,495.16 518.62,495.63 519.39,496.10 520.15,497.04 520.15,496.57 520.92,496.57 520.92,497.04 520.15,496.57 520.92,497.04 521.69,497.97 523.22,498.91 524.75,500.32 524.75,500.32 525.52,500.32 526.29,501.25 527.82,502.19 528.59,502.66 529.36,503.59 530.12,503.59 530.89,505.00 527.82,495.16 526.29,485.80 523.99,478.77 521.69,471.27 520.92,465.65 519.39,459.10 517.85,451.60 515.55,444.11 514.02,438.02 512.48,431.46 511.72,425.84 510.18,419.75 508.65,415.07 507.88,409.44 507.12,405.23 507.12,401.95 506.35,398.20 505.58,395.39 505.58,391.18 505.58,386.96 504.82,383.21 504.05,379.93 504.82,377.12 504.82,375.72 505.58,373.85 506.35,373.38 506.35,371.50 507.12,371.03 507.88,369.63 508.65,369.16 509.42,368.22 509.42,367.76 510.18,366.82 509.42,365.41 510.18,364.95 510.95,364.48 510.95,363.54 510.95,362.60 511.72,361.67 511.72,360.73 511.72,360.26 513.25,359.79 512.48,358.86 514.02,358.86 514.02,358.39 514.79,358.39 514.79,357.45 515.55,357.45 515.55,356.98 517.09,356.51 517.09,356.05 517.85,355.58 517.85,354.64 518.62,354.64 519.39,354.17 519.39,354.17 520.92,354.64 521.69,355.58 522.45,356.05 522.45,356.05 523.99,356.98 523.99,357.92 525.52,358.39 525.52,358.86 526.29,359.79 527.06,359.79 527.06,359.79 527.82,359.79 528.59,359.32 528.59,358.86 529.36,358.39 529.36,358.39 530.12,357.92 530.89,357.92 531.66,358.39 533.19,358.86 533.19,358.86 534.72,359.32 534.72,359.32 535.49,358.86 536.26,359.32 537.79,359.79 538.56,359.32 539.33,359.79 540.09,359.79 540.86,360.26 542.39,360.73 543.16,360.73 543.93,361.20 544.69,361.20 546.23,361.20 546.23,361.20 546.99,361.20 547.76,361.20 548.53,361.67 549.29,361.67 550.06,361.67 550.83,362.14 551.60,362.60 552.36,362.60 552.36,362.60 553.90,363.07 553.13,363.07 554.66,363.54 554.66,363.54 554.66,364.01 556.20,364.01 556.20,363.54 556.20,364.01 556.96,364.48 556.96,364.48 557.73,364.48 557.73,364.48 557.73,364.48 558.50,364.95 558.50,364.48 559.26,364.48 559.26,364.48 559.26,364.48 560.03,364.48 560.03,364.48 560.80,364.48 561.56,364.95 560.80,364.48 561.56,364.48 561.56,364.48 562.33,364.48 562.33,364.48 563.10,364.95 563.10,365.41 563.10,365.41 563.87,365.41 563.87,364.95 563.87,365.41 564.63,364.95 564.63,364.95 564.63,365.41 565.40,365.41 565.40,364.95 566.17,364.95 565.40,364.95 566.17,364.95 566.17,364.48 566.17,364.48 566.17,364.48 566.93,364.01 566.93,364.01 566.93,363.54 566.93,363.54 567.70,364.01 566.93,363.54 567.70,363.54 568.47,363.54 567.70,363.07 568.47,363.54 568.47,363.54 568.47,363.07 569.23,363.54 569.23,363.07 570.00,363.54 566.17,360.73 562.33,358.86 558.50,356.51 554.66,354.17 549.29,351.36 544.69,348.08 539.33,344.80 534.72,342.46 530.12,339.18 524.75,335.90 519.39,332.63 513.25,329.81 508.65,326.54 504.05,324.19 500.21,321.38 495.61,319.04 491.78,316.70 487.94,314.83 484.88,312.95 481.04,310.61 477.98,308.74 474.91,307.33 471.84,304.99 468.77,303.12 465.71,301.24 462.64,299.37 459.57,297.49 457.27,296.09 454.20,294.22 451.90,293.28 448.83,291.41 446.53,290.00 445.00,289.06 441.17,287.19 439.63,286.25 436.56,284.85 435.03,282.97 431.20,281.10 428.90,279.69 425.83,277.82 422.76,276.42 419.69,275.01 417.39,273.14 415.09,271.73 412.79,270.33 410.49,268.92 407.42,267.52 405.89,266.11 403.59,265.17 402.06,263.77 400.52,262.36 398.22,260.96 396.69,260.02 394.39,258.62 392.85,257.68 391.32,256.27 389.79,255.34 387.48,253.46 385.18,252.53 382.88,251.12 380.58,250.19 379.05,249.25 377.52,247.84 375.98,247.37 375.21,246.91 373.68,245.97 372.15,245.03 370.61,244.10 369.85,243.16 367.55,242.22 367.55,241.75 366.01,240.82 363.71,239.88 362.94,238.94 361.41,238.01 359.88,237.54 359.11,236.60 358.34,236.13 356.81,235.20 355.28,234.73 355.28,234.26 353.74,233.79 352.21,232.85 351.44,232.39 350.67,231.45 349.14,230.98 348.37,230.04 346.84,229.11 345.31,228.17 343.01,227.23 342.24,226.76 341.47,225.83 339.94,224.89 338.40,223.95 337.64,223.02 336.10,222.08 334.57,221.61 334.57,220.68 332.27,219.27 331.50,218.80 330.74,217.86 329.97,216.93 328.44,215.99 327.67,215.52 326.90,214.59 326.13,214.12 326.13,213.18 324.60,212.24 323.83,211.78 322.30,210.84 321.53,209.90 320.77,208.97 319.23,208.03 319.23,207.09 317.70,206.15 316.93,205.22 316.17,204.75 314.63,203.34 313.87,202.41 313.10,201.94 312.33,201.00 311.56,200.07 310.03,199.13 309.26,198.19 307.73,197.25 306.96,196.32 306.20,195.85 305.43,194.91 304.66,194.44 303.13,193.51 302.36,193.04 301.60,192.10 300.83,191.63 299.29,190.70 298.53,190.23 297.76,188.82 296.99,188.36 296.23,187.42 294.69,186.48 293.93,185.54 292.39,184.61 291.63,184.14 290.86,182.73 289.33,182.27 288.56,181.33 287.02,180.39 287.02,179.92 285.49,178.99 284.72,178.52 283.96,178.05 283.19,177.11 283.19,176.64 283.19,176.18 282.42,175.71 281.66,175.71 281.66,175.24 280.89,174.30 280.12,174.30 279.36,173.83 279.36,173.37 278.59,172.90 277.82,172.43 277.06,171.96 277.06,171.96 276.29,171.02 276.29,171.02 275.52,171.02 274.75,170.09 274.75,169.62 273.22,169.62 273.22,168.68 273.99,168.68 273.22,168.21 273.22,167.28 272.45,166.81 271.69,166.34 271.69,165.87 270.92,164.93 270.15,164.93 269.39,164.00 268.62,163.53 268.62,163.06 267.85,162.59 267.85,161.66 267.09,161.19 266.32,160.25 265.55,159.78 264.79,159.31 264.02,158.85 264.02,158.38 263.25,157.44 262.48,156.97 261.72,156.50 261.72,156.03 260.95,155.57 260.18,155.10 259.42,154.63 258.65,154.16 257.88,153.69 257.12,152.76 256.35,152.29 256.35,152.29 254.82,151.82 254.82,151.35 254.05,151.35 253.28,150.41 252.52,149.95 251.75,149.95 252.52,149.48 251.75,149.01 250.98,149.01 250.21,148.54 250.98,148.54 250.21,148.54 250.21,148.07 249.45,148.07 249.45,147.60 250.21,147.60 250.21,147.60 250.21,147.14 249.45,147.14 249.45,147.14 248.68,146.67 248.68,146.67 249.45,146.67 248.68,145.73 249.45,145.73 248.68,145.73 248.68,145.26 248.68,144.79 248.68,144.79 248.68,144.32 247.91,144.32 247.91,143.86 247.91,144.32 247.15,143.86 246.38,143.86 247.15,143.39 246.38,143.39 246.38,143.39 246.38,143.39 245.61,142.92 244.85,143.39 244.85,143.39 244.85,142.92 244.08,142.92 243.31,142.92 243.31,142.92 243.31,142.92 243.31,142.92 242.55,142.92 241.78,142.45 241.78,142.45 241.78,142.45 241.01,142.45 241.01,142.92 241.01,142.45 240.25,142.45 240.25,142.45 239.48,142.45 239.48,142.45 239.48,142.45 239.48,141.98 238.71,141.98 238.71,141.98 238.71,142.45 238.71,141.98 237.94,141.98 238.71,141.98 238.71,141.98 238.71,141.98 238.71,141.98 237.94,141.98 238.71,141.98 238.71,141.51 237.94,141.98 238.71,141.98 238.71,141.51 237.94,141.51 238.71,141.51 238.71,141.51 237.94,141.51 238.71,141.51 238.71,141.51 237.94,141.51 238.71,141.98 238.71,141.51 238.71,141.98 238.71,141.51 237.94,141.51 238.71,141.98 237.94,141.98 237.94,141.98 238.71,141.98 237.94,141.98 238.71,141.98 237.94,141.98 237.94,141.98 237.94,141.98 237.94,141.98 237.94,141.98 237.94,141.98 237.94,141.51 237.94,141.98 237.94,141.98 237.94,141.98 237.94,141.98 237.94,141.98 237.18,141.51 237.94,141.51 237.94,141.51 237.94,141.51 237.94,141.51 237.94,141.51 237.18,141.51 237.94,141.51 237.94,141.51 237.18,141.05 237.18,141.05 237.18,141.05 237.18,141.05 236.41,140.58 236.41,140.58 235.64,140.58 235.64,140.58 235.64,140.58 235.64,140.58 235.64,140.11 234.88,139.64 234.88,139.64 234.11,139.64 234.11,139.17 233.34,139.17 233.34,138.70 232.58,138.70 232.58,138.24 231.81,138.24 231.81,137.77 231.04,137.77 230.28,137.30 229.51,137.30 228.74,137.30 227.98,136.83 227.98,136.36 227.98,136.36 227.21,136.36 227.98,136.36 226.44,135.89 225.67,135.42 225.67,135.42 226.44,135.89 225.67,135.42 224.91,134.96 224.91,134.96 224.91,134.96 224.14,134.96 223.37,134.49 223.37,134.49 222.61,134.49 221.07,134.02 221.84,134.02 221.07,133.55 220.31,133.55 220.31,133.55 220.31,133.08 218.77,133.08 218.77,133.08 219.54,132.61 218.01,133.08 218.01,132.61 218.01,132.61 218.01,132.61 217.24,132.15 217.24,132.15 217.24,132.15 216.47,132.15 216.47,131.68 216.47,131.68 214.94,131.68 215.71,131.21 214.94,131.21 214.94,131.21 214.17,130.74 214.17,130.74 213.40,130.74 213.40,130.74 213.40,130.74 211.87,130.27 212.64,130.74 211.10,130.74 211.10,130.27 211.10,130.27 209.57,130.27 209.57,129.80 209.57,129.80 208.80,129.80 208.80,129.34 208.04,129.34 207.27,129.34 207.27,129.34 206.50,128.87 206.50,128.87 205.74,128.87 206.50,128.40 205.74,128.40 204.97,128.40 204.97,128.40 204.20,128.40 204.20,128.40 203.44,127.93 203.44,127.93 202.67,127.46 202.67,127.46 202.67,127.46 201.13,127.46 201.90,126.99 200.37,126.99 201.13,126.53 200.37,126.53 200.37,126.06 199.60,126.06 198.83,126.06 198.83,125.59 198.07,125.59 198.07,125.59 198.07,125.12 197.30,124.65 197.30,124.65 197.30,124.65 195.77,124.65 196.53,124.18 195.77,124.18 195.00,124.18 195.00,124.18 194.23,123.71 193.47,123.71 193.47,123.71 193.47,123.25 192.70,123.25 192.70,123.25 192.70,122.78 191.93,122.78 191.17,123.25 189.63,123.25 189.63,123.25 189.63,122.78 188.10,122.78 188.10,122.78 188.10,122.78 187.33,122.78 187.33,122.31 187.33,122.31 186.56,122.31 185.80,121.84 186.56,121.84 186.56,121.37 186.56,121.37 185.80,121.37 185.80,120.90 185.03,121.37 185.80,120.90 184.26,120.90 184.26,120.44 184.26,120.44 183.50,120.44 182.73,120.44 181.96,119.97 181.96,119.97 181.96,119.50 181.20,119.50 181.20,119.50 180.43,119.03 179.66,119.03 178.90,119.03 179.66,119.03 177.36,118.56 177.36,118.56 178.90,117.63 178.13,117.63 178.13,117.63 178.13,117.16 177.36,117.16 176.60,117.16 177.36,116.69 175.83,117.16 175.83,116.69 174.29,116.69 174.29,116.69 175.06,116.69 174.29,116.69 175.83,116.22 175.06,116.22 175.06,115.75 174.29,115.75 173.53,115.75 173.53,115.75 173.53,115.75 173.53,115.75 173.53,115.28 172.76,115.28 172.76,115.75 171.23,115.75 171.23,115.28 171.99,115.28 170.46,115.28 169.69,115.28 170.46,114.81 169.69,114.81 170.46,114.35 168.93,114.35 168.93,114.35 168.93,114.35 168.16,114.35 168.93,114.35 168.16,113.88 167.39,113.41 167.39,113.88 167.39,113.41 166.63,113.88 165.86,113.88 165.86,113.41 165.86,113.41 165.09,113.41 164.33,113.41 164.33,113.41 163.56,112.94 163.56,112.94 162.79,113.41 162.02,113.41 161.26,112.94 161.26,112.94 160.49,112.94 159.72,112.94 158.96,112.94 158.96,112.94 158.96,112.94 157.42,112.94 157.42,112.94 157.42,113.41 156.66,112.94 155.12,112.94 154.36,113.41 154.36,113.41 152.82,113.88 152.06,113.88 151.29,113.41 151.29,113.41 150.52,113.41 150.52,112.47 149.75,112.94 149.75,113.41 148.99,112.94 148.22,112.47 148.22,112.47 147.45,112.47 148.99,112.47 148.22,112.00 147.45,111.07 145.92,112.00 146.69,111.54 145.92,111.54 145.92,111.54 145.15,111.54 145.15,111.54 144.39,111.07 143.62,111.07 143.62,110.60 142.85,111.07 142.85,110.60 142.09,110.60 141.32,110.60 141.32,110.13 140.55,110.13 139.79,110.13 139.02,110.13 139.02,109.66 139.02,109.19 137.48,109.66 136.72,110.13 135.95,109.66 135.95,109.19 135.95,109.19 135.18,109.19 134.42,108.73 134.42,108.73 133.65,108.73 133.65,108.73 133.65,108.26 132.88,108.26 132.12,108.26 132.12,108.26 131.35,108.26 131.35,108.26 130.58,108.26 130.58,107.79 130.58,107.79 129.05,107.79 130.58,107.79 129.82,107.32 129.05,107.32 128.28,107.79 128.28,107.79 127.52,107.32 127.52,107.79 127.52,107.79 127.52,107.32 126.75,107.79 126.75,107.79 126.75,107.79 125.98,107.79 125.98,107.32 125.98,107.79 125.21,107.32 125.21,107.32 124.45,107.32 123.68,107.32 124.45,107.32 122.91,107.32 122.91,107.32 122.91,107.32 122.15,107.32 121.38,107.32 120.61,107.32 119.85,107.32 119.85,107.32 119.08,107.79 119.08,107.32 119.08,107.32 118.31,107.32 117.55,107.32 117.55,107.79 117.55,107.32 116.78,106.85 116.78,106.85 116.01,106.85 114.48,107.32 114.48,107.32 113.71,107.32 112.94,106.85 113.71,106.85 112.94,106.85 112.18,106.85 112.18,106.38 112.18,106.38 111.41,106.38 111.41,106.38 110.64,106.85 110.64,106.38 109.88,106.38 109.88,106.38 109.11,106.38 109.11,105.92 109.11,105.92 108.34,106.38 107.58,106.38 107.58,105.92 107.58,105.92 106.81,106.38 106.04,105.92 106.04,105.92 105.28,105.92 105.28,106.38 104.51,105.92 105.28,105.45 103.74,105.45 103.74,105.45 102.98,105.92 102.98,105.45 102.21,105.45 101.44,105.45 101.44,104.98 101.44,105.45 100.67,105.45 99.91,104.98 99.91,104.98 99.14,104.98 98.37,105.45 98.37,104.98 98.37,104.98 98.37,104.98 96.84,104.51 96.84,104.51 96.07,104.98 96.07,104.51 95.31,104.51 95.31,104.51 95.31,104.51 94.54,104.51 93.77,104.51 94.54,104.51 93.77,104.51 93.77,104.51 93.01,104.51 93.01,104.51 93.01,104.04 92.24,104.04 91.47,104.51 92.24,104.51 91.47,104.51 91.47,104.04 91.47,104.51 90.71,104.51 91.47,104.04 90.71,104.51 90.71,104.51 90.71,104.51 90.71,104.51 89.94,104.04 89.94,104.51 89.94,104.04 89.94,104.51 89.94,104.04 89.94,104.04 89.17,104.04 89.17,104.51 89.17,104.04 89.17,104.04 88.40,104.04 88.40,104.04 88.40,104.04 88.40,104.04 88.40,104.04 88.40,104.04 87.64,104.04 87.64,103.57 87.64,103.57 87.64,103.57 87.64,103.57 86.87,103.57 86.87,103.57 86.10,103.57 86.10,103.57 86.10,103.57 85.34,103.57 85.34,103.57 85.34,103.57 85.34,103.57 85.34,103.57 85.34,103.57 85.34,103.57 85.34,103.57 85.34,103.10 85.34,102.64 85.34,103.10 85.34,103.10 85.34,102.64 85.34,103.10 85.34,102.64 86.10,102.64 85.34,102.17 86.10,102.17 86.10,102.17 86.10,102.17 86.87,102.17 86.87,102.17 86.87,102.17 86.87,102.17 86.87,102.17 86.87,101.70 86.87,101.70 86.87,101.70 87.64,101.70 87.64,101.23 87.64,101.23 88.40,101.23 88.40,100.76 89.17,100.76 89.17,100.76 89.17,100.29 89.94,100.29 89.94,100.29 90.71,100.29 90.71,99.83 91.47,99.36 92.24,99.36 92.24,98.89 92.24,98.42 93.01,98.42 93.01,98.42 93.77,97.95 94.54,97.95 94.54,97.48 95.31,97.48 95.31,97.02 95.31,97.48 95.31,97.02 96.07,96.55 95.31,96.55 96.07,96.55 96.07,96.08 96.07,96.08 96.84,95.61 97.61,95.61 97.61,95.61 97.61,95.61 98.37,95.61 98.37,95.61 98.37,95.61 99.14,95.61 99.91,95.14 99.14,95.61 99.91,95.14 99.14,94.67 99.14,95.14 99.14,94.67 99.14,93.74 98.37,94.20 99.14,93.74 99.14,93.74 99.14,93.27 99.14,92.80 100.67,92.33 99.14,92.33 99.91,92.33 99.91,91.86 99.91,91.39 99.91,91.39 99.91,91.39 99.14,91.39 99.91,90.93 99.91,90.46 99.91,89.99 100.67,89.99 99.91,89.52 100.67,89.52 100.67,89.52 100.67,89.05 100.67,89.05 100.67,89.05 100.67,88.58 101.44,88.58 100.67,88.58 100.67,88.58 101.44,88.12 101.44,88.12 101.44,88.12 101.44,87.65 101.44,87.65 101.44,87.18 101.44,87.65 102.21,87.18 102.21,87.18 101.44,87.18 101.44,86.71 101.44,86.71 101.44,86.71 101.44,86.71 101.44,86.71 101.44,86.24 101.44,86.24 101.44,86.24 101.44,86.24 101.44,86.24 101.44,86.24 102.21,85.77 101.44,85.77 102.21,85.77 101.44,85.77 101.44,85.77 101.44,85.77 102.21,85.31 101.44,85.31 101.44,85.31 102.21,85.31 102.21,84.84 101.44,84.84 102.21,84.84 102.21,84.84 101.44,84.84 101.44,84.84 101.44,84.84 101.44,84.37 102.21,84.37 102.21,84.37 102.21,84.37 102.98,83.90 102.21,83.90 102.21,83.90 102.98,83.90 102.21,83.90 102.98,83.43 102.98,83.43 102.21,83.90 102.98,83.43 102.98,83.43 102.98,83.43 102.98,82.96 103.74,82.96 103.74,82.96 103.74,82.96 103.74,82.96 102.98,82.96 103.74,82.96 103.74,82.96 103.74,82.96 103.74,82.96 102.98,82.96 103.74,82.96 103.74,82.96 103.74,82.96 103.74,82.96 102.98,82.96 103.74,82.49 104.51,82.49 103.74,82.49 103.74,82.96 103.74,82.49 103.74,82.03 104.51,82.03 103.74,82.03 104.51,82.03 103.74,82.03 103.74,82.03 103.74,82.03 103.74,82.03 104.51,82.03 105.28,82.03 106.04,81.56 106.04,81.56 106.81,81.09 108.34,81.09 108.34,81.09 108.34,80.62 108.34,80.62 108.34,80.62 108.34,80.62 108.34,80.62 107.58,80.62 107.58,80.62 107.58,81.09 107.58,80.62 107.58,81.09 107.58,81.09 107.58,81.09 107.58,81.09 106.81,81.09 106.81,81.09 106.81,81.09 106.81,81.56 106.04,81.09 106.04,81.09 106.04,81.09 106.81,81.09 106.04,81.09 106.04,81.09 105.28,81.09 105.28,81.09 105.28,81.56 104.51,81.56 104.51,81.56 104.51,81.56 103.74,81.56 103.74,82.03 103.74,81.56 103.74,82.03 102.98,81.56 102.21,82.03 102.21,82.03 101.44,82.03 101.44,82.03 101.44,82.03 100.67,82.03 99.91,82.03 99.14,82.49 99.14,82.03 99.14,82.03 99.14,82.03 98.37,82.03 98.37,82.03 98.37,82.03 98.37,82.03 97.61,81.56 97.61,81.56 98.37,81.56 96.84,81.56 96.84,81.56 96.84,82.03 96.07,81.56 96.84,82.03 96.07,81.56 96.07,82.03 96.07,82.03 96.07,82.03 96.07,81.56 96.07,82.03 96.07,81.56 96.07,81.56 96.07,81.56 96.07,81.56 96.07,81.09 96.07,81.56 95.31,81.56 95.31,81.56 95.31,81.56 95.31,81.56 94.54,82.03 93.77,82.03 94.54,81.56 93.77,82.03 93.01,82.96 92.24,82.49 93.01,82.03 93.01,82.49 92.24,82.03 91.47,82.49 90.71,82.03 91.47,82.03 91.47,81.56 89.94,82.03 90.71,82.49 89.17,82.03 89.17,82.03 89.17,81.56 89.17,82.03 88.40,81.56 88.40,81.56 88.40,81.56 87.64,81.56 87.64,81.56 87.64,81.56 87.64,81.56 87.64,81.09 87.64,81.09 87.64,81.09 86.87,81.09 86.87,81.09 86.87,81.56 86.87,81.56 86.10,81.56 86.10,81.56 86.10,81.56 85.34,82.03 84.57,81.56 84.57,82.03 84.57,82.03 84.57,82.03 85.34,81.56 84.57,81.56 85.34,81.56 85.34,81.56 85.34,81.56 86.10,82.03 86.10,82.03 86.87,82.03 87.64,82.49 87.64,82.03 87.64,82.03 88.40,82.03 88.40,82.49 89.17,82.03 89.17,82.03 89.94,82.03 89.17,82.96 89.94,82.49 89.94,82.96 89.94,82.96 89.94,82.96 89.94,82.96 89.94,83.43 90.71,83.43 90.71,83.43 90.71,83.90 89.94,84.37 89.94,84.37 89.94,83.90 90.71,84.37 90.71,84.84 89.94,84.84 90.71,84.37 90.71,84.37 89.94,84.84 90.71,84.37 90.71,84.84 90.71,84.84 90.71,84.84 91.47,84.84 91.47,84.84 91.47,84.37 91.47,84.84 91.47,84.84 92.24,84.84 91.47,84.84 92.24,84.84 92.24,84.84 92.24,84.84 92.24,84.84 92.24,84.84 93.01,84.84 93.01,84.84 93.01,84.84 93.77,85.31 93.01,84.84 93.01,84.37 93.01,84.84 93.77,84.84 93.77,84.84 93.77,84.37 94.54,84.37 94.54,84.37 94.54,84.37 95.31,84.37 95.31,84.37 94.54,83.90 95.31,83.90 96.07,84.37 96.07,84.37 96.07,83.90 96.07,83.90 96.84,83.90 96.84,83.90 96.84,83.90 96.84,83.90 96.84,83.90 96.84,83.90 97.61,83.90 97.61,83.90 97.61,83.90 97.61,83.90 97.61,83.90 97.61,83.90 97.61,83.90 97.61,83.90 97.61,83.90 98.37,83.43 97.61,83.90 98.37,83.90 98.37,83.90 98.37,83.90 98.37,83.90 98.37,83.90 98.37,83.90 99.14,84.37 98.37,83.90 99.14,83.90 99.14,84.37 99.14,84.37 99.14,83.90 99.91,84.37 99.91,84.37 100.67,84.37 99.91,83.90 99.91,83.90 99.91,84.37 99.91,84.37 100.67,84.37 101.44,84.84 100.67,83.90 101.44,83.90 101.44,84.37 101.44,84.37 100.67,84.37 100.67,84.37 99.91,84.84 99.91,84.37 99.14,84.84 99.14,84.84 99.14,84.84 97.61,85.77 98.37,85.77 98.37,85.31 98.37,85.31 98.37,84.37 98.37,84.37 98.37,83.90 98.37,83.90 97.61,83.43 97.61,82.96 97.61,82.49 97.61,82.49 96.84,82.49 96.84,82.03 96.07,81.56 96.07,81.56 96.07,81.09 96.07,81.09 95.31,80.62 96.07,80.62 95.31,80.15 95.31,79.68 95.31,79.68 95.31,78.75 94.54,78.75 94.54,78.28 94.54,78.28 94.54,78.28 94.54,77.81 93.77,77.34 93.77,77.34 94.54,76.87 93.77,76.87 93.77,76.87 93.77,76.87 93.01,76.41 93.01,76.41 92.24,76.41 93.01,75.94 92.24,75.94 91.47,75.94 92.24,75.94 91.47,75.94 91.47,75.94 91.47,75.47 90.71,75.47 90.71,75.47 90.71,75.94 90.71,75.47 89.94,75.47 89.17,75.47 89.94,75.47 89.17,75.47 88.40,75.47 88.40,75.47 88.40,75.94 88.40,75.94 87.64,75.47 87.64,75.94 86.87,75.94 86.87,75.47 86.87,75.94 86.87,75.94 86.87,75.94 86.87,75.94 86.10,75.94 86.10,75.94 86.10,75.94 86.10,75.94 86.10,75.94 86.10,75.94 86.10,75.94 85.34,75.94 85.34,75.94 85.34,75.94 85.34,75.47 85.34,75.47 85.34,75.47 85.34,75.47 84.57,75.47 84.57,75.47 84.57,75.47 84.57,75.47 84.57,75.47 83.80,75.47 83.80,75.00 83.80,75.00 83.80,75.47 83.80,75.47 83.80,75.00 83.80,75.47 83.04,75.47 83.04,75.47 83.04,75.47 83.04,75.94 83.04,75.94 82.27,75.94 82.27,75.94 83.04,75.47 82.27,75.94 82.27,75.94 82.27,75.94 82.27,76.41 82.27,76.41 82.27,76.41 82.27,76.41 81.50,76.41 81.50,76.87 82.27,76.87 80.74,77.34 81.50,77.34 81.50,77.34 81.50,77.81 81.50,77.81 81.50,77.81 80.74,78.28 80.74,78.28 80.74,78.28 80.74,78.28 80.74,78.75 80.74,78.75 79.97,79.22 79.97,79.22 79.97,79.22 79.97,79.22 79.97,79.68 79.97,80.15 79.97,79.68 79.20,80.15 79.97,80.15 79.20,80.62 79.20,80.62 79.20,80.62 79.20,80.62 79.20,81.09 78.44,81.09 79.20,81.56 78.44,81.56 78.44,82.03 77.67,82.03 77.67,82.03 77.67,82.49 76.90,82.49 76.90,82.96 76.90,82.96 76.90,82.96 76.90,83.43 76.13,83.43 76.13,83.90 76.13,83.90 76.13,83.90 75.37,83.90 75.37,83.90 74.60,83.90 75.37,83.90 75.37,84.37 75.37,84.37 75.37,84.84 75.37,84.84 75.37,85.31 75.37,85.31 75.37,85.31 75.37,85.31 74.60,85.77 75.37,86.24 75.37,86.24 74.60,86.24 75.37,86.24 75.37,86.71 74.60,86.71 74.60,87.18 74.60,87.18 75.37,87.18 75.37,87.18 75.37,87.65 74.60,88.12 74.60,88.12 73.83,88.58 74.60,88.58 74.60,89.05 74.60,89.05 74.60,89.99 74.60,89.99 73.83,89.99 73.83,89.99 73.83,90.46 73.83,90.93 73.83,90.93 73.83,91.39 73.83,91.39 73.83,91.86 73.83,91.86 73.83,92.33 73.83,92.33 73.83,92.80 73.83,92.80 73.83,92.80 74.60,93.27 74.60,93.27 74.60,93.27 73.83,93.27 73.83,93.74 74.60,94.20 73.83,94.67 73.83,94.67 73.83,94.20 73.83,94.20 74.60,94.67 74.60,94.67 74.60,95.14 73.83,95.14 74.60,95.14 73.83,95.14 73.83,95.61 73.83,95.61 73.83,95.61 73.83,96.08 73.07,96.08 73.83,96.08 73.07,96.08 73.07,96.55 73.07,97.02 73.07,97.02 73.83,97.02 73.07,97.02 73.83,97.48 73.83,97.02 73.83,97.48 73.83,97.48 73.83,97.95 73.83,97.95 73.83,97.95 73.83,97.95 73.07,98.42 73.83,98.42 73.83,98.42 73.83,98.89 73.83,98.89 73.83,99.36 73.07,99.83 73.83,99.83 73.83,100.29 73.07,100.29 73.07,100.76 73.07,100.76 73.07,101.23 73.07,101.23 73.07,101.70 73.07,101.70 73.07,102.17 73.07,102.64 72.30,103.10 72.30,103.57 72.30,103.57 72.30,104.04 71.53,104.04 72.30,104.51 72.30,104.51 71.53,104.51 71.53,104.98 72.30,104.98 71.53,105.45 70.77,105.45 71.53,105.45 70.77,105.92 70.77,105.92 70.77,105.92 70.77,105.92 70.77,106.38 70.77,106.38 70.77,106.85 70.77,106.38 70.77,106.85 70.77,106.85 70.77,106.85 70.77,106.85 70.00,107.32 70.77,107.32 70.77,107.32 70.00,107.32 70.77,107.32 70.77,107.79 70.77,107.79 70.77,108.26 70.77,107.79 70.00,108.26 70.00,108.26 70.77,108.26 70.77,108.26 70.00,108.73 70.77,108.73 70.77,108.73 70.77,108.73 70.77,108.73 70.77,109.19 71.53,109.19 71.53,108.73 70.77,108.73" fill="none" stroke="#1f77b4" stroke-width="3" stroke-linejoin="round" stroke-linecap="round"/>
  <circle cx="497.15" cy="492.82" r="7" fill="#2ca02c" stroke="#ffffff" stroke-width="2"/>
  <circle cx="70.77" cy="108.73" r="7" fill="#d62728" stroke="#ffffff" stroke-width="2"/>
  <text x="75" y="525" font-family="Arial, sans-serif" font-size="13" fill="#5d6b78">East/North, meters from first GPS point</text>

  <rect x="650" y="60" width="485" height="225" rx="6" fill="#ffffff" stroke="#d7dde3"/>
  <text x="680" y="88" font-family="Arial, sans-serif" font-size="17" font-weight="700" fill="#17202a">Relative altitude</text>
  <line x1="680" y1="260" x2="1100" y2="260" stroke="#d7dde3"/>
  <polyline points="680.00,95.00 680.18,95.00 680.42,95.00 680.67,95.00 680.92,95.00 681.17,96.35 681.42,96.35 681.67,96.35 681.92,96.35 682.18,96.35 682.42,96.35 682.68,96.35 682.93,96.35 683.18,96.35 683.43,96.35 683.68,97.70 683.93,97.70 684.19,97.70 684.43,97.70 684.69,97.70 684.94,97.70 685.19,99.06 685.43,99.06 685.69,99.06 685.95,100.41 686.20,100.41 686.44,100.41 686.69,101.76 686.94,101.76 687.20,101.76 687.45,103.11 687.69,103.11 687.95,104.47 688.20,104.47 688.45,104.47 688.70,104.47 688.95,105.82 689.20,105.82 689.45,105.82 689.70,105.82 689.95,105.82 690.21,105.82 690.46,105.82 690.70,104.47 690.95,104.47 691.21,105.82 691.46,105.82 691.71,105.82 691.97,105.82 692.22,105.82 692.46,105.82 692.71,105.82 692.97,105.82 693.22,105.82 693.47,105.82 693.72,105.82 693.97,105.82 694.21,105.82 694.47,105.82 694.72,105.82 694.98,109.88 695.23,113.93 695.48,116.64 695.73,120.70 695.98,123.40 696.23,126.11 696.48,130.16 696.73,132.87 696.99,135.57 697.23,138.28 697.48,140.98 697.74,143.69 697.99,146.39 698.24,149.10 698.49,150.45 698.74,151.80 698.99,153.16 699.24,155.86 699.49,157.21 699.74,158.57 699.99,161.27 700.25,162.62 700.49,163.98 700.75,165.33 701.00,165.33 701.25,166.68 701.50,166.68 701.75,168.03 702.00,168.03 702.26,169.39 702.50,169.39 702.76,169.39 703.00,170.74 703.26,170.74 703.51,170.74 703.76,172.09 704.01,172.09 704.27,172.09 704.51,173.44 704.77,173.44 705.01,173.44 705.27,173.44 705.52,174.80 705.77,174.80 706.01,174.80 706.27,174.80 706.52,174.80 706.77,174.80 707.02,174.80 707.26,176.15 707.52,176.15 707.77,176.15 708.02,176.15 708.28,176.15 708.52,176.15 708.77,176.15 709.03,176.15 709.28,176.15 709.53,176.15 709.78,176.15 710.04,176.15 710.29,174.80 710.53,174.80 710.78,174.80 711.03,174.80 711.28,174.80 711.54,174.80 711.79,174.80 712.04,174.80 712.29,174.80 712.54,174.80 712.79,174.80 713.05,176.15 713.29,176.15 713.55,174.80 713.79,174.80 714.05,174.80 714.30,174.80 714.55,174.80 714.80,174.80 715.05,174.80 715.30,174.80 715.55,174.80 715.80,174.80 716.06,173.44 716.31,174.80 716.56,173.44 716.80,173.44 717.05,173.44 717.31,173.44 717.56,173.44 717.81,173.44 718.06,173.44 718.31,173.44 718.56,172.09 718.81,172.09 719.06,172.09 719.32,172.09 719.57,172.09 719.82,172.09 720.07,172.09 720.32,172.09 720.57,172.09 720.82,170.74 721.07,170.74 721.32,170.74 721.57,170.74 721.82,170.74 722.08,170.74 722.34,170.74 722.57,170.74 722.83,170.74 723.08,170.74 723.33,170.74 723.58,169.39 723.83,169.39 724.08,169.39 724.34,169.39 724.58,169.39 724.84,169.39 725.08,169.39 725.34,169.39 725.59,169.39 725.84,169.39 726.09,169.39 726.35,169.39 726.59,169.39 726.84,168.03 727.09,168.03 727.34,168.03 727.59,168.03 727.85,168.03 728.10,168.03 728.35,168.03 728.60,168.03 728.85,168.03 729.10,168.03 729.35,166.68 729.60,166.68 729.85,166.68 730.17,166.68 730.37,166.68 730.62,166.68 730.87,166.68 731.12,166.68 731.37,166.68 731.63,166.68 731.88,166.68 732.12,166.68 732.38,166.68 732.63,166.68 732.88,166.68 733.13,166.68 733.38,166.68 733.63,166.68 733.89,165.33 734.14,165.33 734.38,165.33 734.64,165.33 734.89,165.33 735.16,165.33 735.39,166.68 735.64,166.68 735.89,168.03 736.14,168.03 736.40,169.39 736.64,170.74 736.89,170.74 737.15,172.09 737.40,172.09 737.65,173.44 737.90,174.80 738.15,174.80 738.40,176.15 738.65,176.15 738.90,177.50 739.16,177.50 739.40,178.85 739.65,178.85 739.90,178.85 740.16,178.85 740.41,180.20 740.67,180.20 740.91,180.20 741.16,181.56 741.41,181.56 741.67,181.56 741.92,182.91 742.17,182.91 742.41,182.91 742.67,182.91 742.92,182.91 743.17,184.26 743.43,184.26 743.67,184.26 743.92,184.26 744.17,184.26 744.43,185.61 744.68,185.61 744.92,185.61 745.18,185.61 745.43,186.97 745.68,186.97 745.93,186.97 746.19,186.97 746.43,186.97 746.69,188.32 746.93,188.32 747.19,188.32 747.44,188.32 747.69,189.67 747.94,189.67 748.19,189.67 748.44,189.67 748.69,189.67 748.95,189.67 749.20,191.02 749.44,191.02 749.69,191.02 749.94,191.02 750.20,191.02 750.45,192.38 750.70,192.38 750.95,192.38 751.20,192.38 751.45,192.38 751.70,192.38 751.95,192.38 752.21,192.38 752.45,192.38 752.70,192.38 752.95,192.38 753.21,192.38 753.46,192.38 753.71,193.73 753.96,193.73 754.21,193.73 754.47,193.73 754.71,193.73 754.97,193.73 755.22,193.73 755.46,193.73 755.72,193.73 755.97,193.73 756.21,193.73 756.47,193.73 756.72,193.73 756.97,195.08 757.22,195.08 757.48,195.08 757.72,195.08 757.98,195.08 758.22,196.43 758.48,196.43 758.73,196.43 758.98,196.43 759.23,196.43 759.48,197.79 759.73,197.79 759.99,197.79 760.23,197.79 760.49,199.14 760.74,199.14 760.99,199.14 761.24,199.14 761.49,199.14 761.74,200.49 761.99,200.49 762.24,200.49 762.50,200.49 762.74,200.49 763.00,201.84 763.24,201.84 763.50,201.84 763.75,201.84 764.00,203.20 764.25,203.20 764.50,203.20 764.75,203.20 765.00,204.55 765.26,204.55 765.51,204.55 765.76,205.90 766.01,205.90 766.26,205.90 766.51,205.90 766.76,207.25 767.01,207.25 767.26,207.25 767.52,207.25 767.76,208.61 768.02,208.61 768.27,208.61 768.52,208.61 768.77,209.96 769.02,209.96 769.26,209.96 769.53,209.96 769.78,211.31 770.03,211.31 770.28,211.31 770.53,212.66 770.79,212.66 771.03,212.66 771.29,214.02 771.54,214.02 771.79,214.02 772.04,214.02 772.29,215.37 772.53,215.37 772.79,215.37 773.05,215.37 773.29,216.72 773.55,216.72 773.79,216.72 774.04,216.72 774.30,216.72 774.54,216.72 774.80,218.07 775.05,218.07 775.30,218.07 775.55,218.07 775.80,218.07 776.05,219.43 776.30,219.43 776.55,219.43 776.80,219.43 777.05,220.78 777.31,220.78 777.56,220.78 777.81,222.13 778.06,222.13 778.31,222.13 778.56,222.13 778.81,222.13 779.06,223.48 779.32,223.48 779.56,224.84 779.81,224.84 780.07,224.84 780.31,226.19 780.57,226.19 780.82,226.19 781.07,227.54 781.32,227.54 781.57,227.54 781.82,228.89 782.07,228.89 782.31,228.89 782.58,230.25 782.82,230.25 783.08,230.25 783.33,230.25 783.58,231.60 783.83,231.60 784.08,231.60 784.33,232.95 784.58,232.95 784.83,232.95 785.08,232.95 785.34,234.30 785.59,234.30 785.84,234.30 786.09,235.66 786.34,235.66 786.60,235.66 786.84,235.66 787.10,237.01 787.34,237.01 787.60,237.01 787.84,237.01 788.10,238.36 788.34,238.36 788.60,238.36 788.84,238.36 789.10,238.36 789.35,239.71 789.60,239.71 789.85,239.71 790.11,239.71 790.35,239.71 790.61,239.71 790.86,241.07 791.11,241.07 791.36,241.07 791.61,241.07 791.86,241.07 792.11,241.07 792.36,241.07 792.61,242.42 792.86,242.42 793.11,242.42 793.36,242.42 793.62,242.42 793.87,242.42 794.12,242.42 794.37,242.42 794.62,242.42 794.87,242.42 795.12,242.42 795.38,243.77 795.63,243.77 795.88,243.77 796.13,243.77 796.38,243.77 796.63,243.77 796.88,243.77 797.13,243.77 797.38,243.77 797.64,243.77 797.88,243.77 798.14,243.77 798.39,243.77 798.63,243.77 798.89,243.77 799.14,243.77 799.39,243.77 799.64,243.77 799.89,243.77 800.14,243.77 800.40,243.77 800.65,243.77 800.89,243.77 801.14,243.77 801.40,243.77 801.65,243.77 801.89,243.77 802.15,242.42 802.40,242.42 802.65,242.42 802.90,242.42 803.15,242.42 803.40,242.42 803.65,242.42 803.91,242.42 804.16,242.42 804.41,242.42 804.66,242.42 804.91,242.42 805.16,242.42 805.41,242.42 805.66,242.42 805.91,242.42 806.17,242.42 806.41,242.42 806.67,242.42 806.92,242.42 807.17,242.42 807.42,242.42 807.67,242.42 807.92,242.42 808.17,242.42 808.41,242.42 808.68,241.07 808.92,241.07 809.18,241.07 809.43,241.07 809.68,241.07 809.93,241.07 810.18,241.07 810.43,241.07 810.68,241.07 810.93,241.07 811.18,241.07 811.44,241.07 811.68,241.07 811.94,241.07 812.19,239.71 812.44,239.71 812.69,239.71 812.94,239.71 813.19,239.71 813.44,239.71 813.69,239.71 813.94,239.71 814.19,239.71 814.44,239.71 814.69,239.71 814.94,239.71 815.20,239.71 815.45,239.71 815.70,239.71 815.95,238.36 816.20,238.36 816.45,238.36 816.70,238.36 816.95,238.36 817.20,238.36 817.45,238.36 817.71,238.36 817.96,238.36 818.20,238.36 818.46,238.36 818.71,238.36 818.96,238.36 819.21,238.36 819.46,238.36 819.71,238.36 819.97,238.36 820.21,238.36 820.47,238.36 820.72,238.36 820.97,238.36 821.22,238.36 821.46,238.36 821.73,237.01 821.98,237.01 822.22,237.01 822.48,238.36 822.72,237.01 822.97,237.01 823.23,237.01 823.48,237.01 823.73,237.01 823.98,237.01 824.23,237.01 824.48,237.01 824.73,235.66 824.98,237.01 825.24,237.01 825.49,235.66 825.74,237.01 825.99,235.66 826.23,235.66 826.49,235.66 826.74,235.66 826.99,235.66 827.24,235.66 827.49,235.66 827.74,235.66 827.99,235.66 828.24,235.66 828.50,235.66 828.75,235.66 829.00,234.30 829.25,234.30 829.50,234.30 829.75,234.30 830.00,234.30 830.25,234.30 830.51,234.30 830.75,234.30 831.01,234.30 831.25,234.30 831.51,234.30 831.76,234.30 832.01,234.30 832.26,234.30 832.51,234.30 832.76,234.30 833.01,234.30 833.26,232.95 833.52,232.95 833.76,232.95 834.02,232.95 834.26,232.95 834.51,232.95 834.77,232.95 835.02,232.95 835.27,232.95 835.52,232.95 835.77,232.95 836.02,232.95 836.27,232.95 836.52,232.95 836.77,232.95 837.02,232.95 837.27,232.95 837.53,231.60 837.77,232.95 838.03,231.60 838.28,232.95 838.53,231.60 838.78,232.95 839.04,231.60 839.28,231.60 839.54,232.95 839.79,232.95 840.04,232.95 840.29,232.95 840.54,232.95 840.79,232.95 841.03,232.95 841.29,232.95 841.54,232.95 841.80,232.95 842.04,232.95 842.30,232.95 842.55,232.95 842.80,232.95 843.05,232.95 843.30,232.95 843.55,232.95 843.80,232.95 844.05,232.95 844.30,232.95 844.56,232.95 844.80,232.95 845.06,232.95 845.31,232.95 845.56,232.95 845.82,232.95 846.06,232.95 846.31,232.95 846.56,232.95 846.81,232.95 847.07,232.95 847.31,232.95 847.56,232.95 847.82,232.95 848.07,232.95 848.32,232.95 848.57,232.95 848.82,232.95 849.07,232.95 849.32,232.95 849.57,232.95 849.83,232.95 850.07,232.95 850.33,232.95 850.58,232.95 850.82,232.95 851.08,232.95 851.33,232.95 851.58,232.95 851.83,232.95 852.08,232.95 852.33,232.95 852.58,232.95 852.84,232.95 853.08,232.95 853.34,232.95 853.58,232.95 853.84,232.95 854.08,232.95 854.34,232.95 854.59,232.95 854.84,232.95 855.09,232.95 855.34,232.95 855.59,232.95 855.85,234.30 856.10,232.95 856.35,234.30 856.60,234.30 856.86,234.30 857.10,234.30 857.35,234.30 857.60,234.30 857.86,234.30 858.11,234.30 858.36,234.30 858.60,234.30 858.86,234.30 859.11,234.30 859.36,234.30 859.61,234.30 859.86,234.30 860.11,235.66 860.36,235.66 860.61,235.66 860.86,235.66 861.12,235.66 861.36,235.66 861.62,235.66 861.87,235.66 862.12,235.66 862.37,235.66 862.62,235.66 862.87,235.66 863.12,235.66 863.37,235.66 863.62,237.01 863.87,235.66 864.12,237.01 864.38,237.01 864.63,237.01 864.88,237.01 865.13,237.01 865.38,237.01 865.64,237.01 865.88,237.01 866.14,237.01 866.38,237.01 866.64,237.01 866.88,237.01 867.13,237.01 867.39,237.01 867.64,237.01 867.89,237.01 868.14,237.01 868.39,237.01 868.64,237.01 868.89,237.01 869.15,237.01 869.39,237.01 869.65,238.36 869.90,238.36 870.15,238.36 870.39,238.36 870.66,238.36 870.90,238.36 871.15,238.36 871.40,238.36 871.65,238.36 871.91,238.36 872.15,238.36 872.40,238.36 872.66,238.36 872.91,237.01 873.16,237.01 873.41,237.01 873.65,237.01 873.91,237.01 874.16,237.01 874.41,237.01 874.66,237.01 874.92,238.36 875.17,237.01 875.42,238.36 875.67,237.01 875.92,237.01 876.17,238.36 876.42,238.36 876.68,238.36 876.92,238.36 877.17,238.36 877.42,238.36 877.68,238.36 877.92,238.36 878.18,238.36 878.43,238.36 878.68,238.36 878.93,238.36 879.18,238.36 879.43,238.36 879.69,238.36 879.93,238.36 880.18,238.36 880.43,238.36 880.69,238.36 880.94,238.36 881.19,238.36 881.44,238.36 881.69,238.36 881.94,238.36 882.19,238.36 882.44,238.36 882.69,238.36 882.94,238.36 883.20,238.36 883.44,238.36 883.70,238.36 883.95,238.36 884.20,238.36 884.45,238.36 884.70,238.36 884.95,238.36 885.21,238.36 885.45,238.36 885.71,238.36 885.95,238.36 886.20,238.36 886.46,238.36 886.70,237.01 886.96,237.01 887.21,237.01 887.46,237.01 887.71,237.01 887.96,237.01 888.21,237.01 888.46,235.66 888.71,235.66 888.96,235.66 889.21,235.66 889.47,235.66 889.72,235.66 889.96,235.66 890.22,235.66 890.47,235.66 890.72,234.30 890.97,234.30 891.22,234.30 891.47,234.30 891.73,234.30 891.98,234.30 892.23,234.30 892.48,234.30 892.73,232.95 892.98,232.95 893.23,232.95 893.48,232.95 893.73,232.95 893.99,232.95 894.23,232.95 894.49,232.95 894.74,231.60 894.99,231.60 895.24,231.60 895.49,231.60 895.74,231.60 895.99,231.60 896.25,231.60 896.48,231.60 896.74,231.60 897.00,230.25 897.25,230.25 897.50,230.25 897.75,230.25 898.00,230.25 898.25,230.25 898.50,230.25 898.76,228.89 899.01,228.89 899.26,228.89 899.50,228.89 899.75,228.89 900.01,228.89 900.26,227.54 900.51,227.54 900.76,227.54 901.01,227.54 901.26,227.54 901.51,227.54 901.76,227.54 902.01,227.54 902.26,227.54 902.52,227.54 902.77,227.54 903.01,227.54 903.27,226.19 903.52,226.19 903.77,226.19 904.02,226.19 904.27,226.19 904.53,226.19 904.77,226.19 905.03,226.19 905.27,224.84 905.53,224.84 905.78,224.84 906.03,224.84 906.28,224.84 906.53,224.84 906.78,224.84 907.04,224.84 907.29,223.48 907.54,223.48 907.79,223.48 908.04,223.48 908.29,223.48 908.54,223.48 908.79,223.48 909.05,223.48 909.29,222.13 909.54,222.13 909.80,222.13 910.05,222.13 910.30,222.13 910.55,222.13 910.80,220.78 911.05,220.78 911.30,220.78 911.55,220.78 911.81,220.78 912.06,219.43 912.31,219.43 912.56,219.43 912.80,219.43 913.06,219.43 913.31,219.43 913.56,218.07 913.81,218.07 914.07,218.07 914.31,218.07 914.57,218.07 914.81,218.07 915.07,218.07 915.32,218.07 915.57,216.72 915.82,216.72 916.07,216.72 916.32,216.72 916.57,216.72 916.82,216.72 917.08,216.72 917.32,216.72 917.58,216.72 917.82,216.72 918.08,216.72 918.33,216.72 918.58,216.72 918.83,216.72 919.08,215.37 919.32,215.37 919.58,215.37 919.84,215.37 920.08,215.37 920.33,215.37 920.59,215.37 920.84,215.37 921.09,215.37 921.34,215.37 921.60,215.37 921.84,215.37 922.09,214.02 922.35,214.02 922.59,214.02 922.85,214.02 923.10,214.02 923.35,214.02 923.60,214.02 923.85,214.02 924.10,214.02 924.35,214.02 924.60,214.02 924.86,214.02 925.10,214.02 925.35,214.02 925.61,215.37 925.85,214.02 926.11,215.37 926.36,215.37 926.61,215.37 926.86,215.37 927.11,215.37 927.36,215.37 927.62,215.37 927.86,215.37 928.12,215.37 928.37,215.37 928.62,215.37 928.87,215.37 929.11,216.72 929.37,216.72 929.62,216.72 929.87,216.72 930.12,216.72 930.37,216.72 930.62,216.72 930.87,216.72 931.13,218.07 931.38,218.07 931.63,218.07 931.88,218.07 932.13,218.07 932.37,218.07 932.64,218.07 932.88,218.07 933.14,219.43 933.38,219.43 933.64,219.43 933.89,219.43 934.14,219.43 934.39,219.43 934.64,219.43 934.89,219.43 935.14,219.43 935.39,220.78 935.63,220.78 935.90,219.43 936.15,220.78 936.39,220.78 936.65,220.78 936.89,220.78 937.15,220.78 937.39,220.78 937.65,220.78 937.90,220.78 938.15,220.78 938.40,220.78 938.65,222.13 938.90,222.13 939.15,222.13 939.41,222.13 939.66,222.13 939.90,222.13 940.16,223.48 940.40,223.48 940.66,223.48 940.91,223.48 941.16,223.48 941.41,223.48 941.67,224.84 941.91,224.84 942.16,224.84 942.41,224.84 942.67,224.84 942.92,224.84 943.17,226.19 943.42,226.19 943.67,226.19 943.92,226.19 944.18,226.19 944.42,226.19 944.67,226.19 944.92,226.19 945.18,226.19 945.42,227.54 945.68,227.54 945.93,227.54 946.18,227.54 946.43,227.54 946.68,227.54 946.93,227.54 947.19,227.54 947.43,227.54 947.68,227.54 947.93,227.54 948.19,227.54 948.43,227.54 948.68,227.54 948.94,227.54 949.19,227.54 949.44,228.89 949.69,228.89 949.95,228.89 950.20,228.89 950.45,228.89 950.70,230.25 950.95,230.25 951.20,230.25 951.45,230.25 951.70,230.25 951.95,230.25 952.20,230.25 952.46,231.60 952.70,231.60 952.96,231.60 953.21,231.60 953.46,231.60 953.71,231.60 953.96,231.60 954.21,231.60 954.46,231.60 954.71,231.60 954.96,231.60 955.20,231.60 955.47,231.60 955.71,231.60 955.97,231.60 956.21,231.60 956.47,231.60 956.72,231.60 956.97,231.60 957.22,231.60 957.47,231.60 957.72,231.60 957.98,231.60 958.22,231.60 958.47,231.60 958.72,231.60 958.98,231.60 959.23,231.60 959.48,231.60 959.73,231.60 959.98,231.60 960.23,231.60 960.48,231.60 960.73,231.60 960.98,231.60 961.23,231.60 961.49,231.60 961.73,231.60 961.99,231.60 962.24,231.60 962.49,232.95 962.74,232.95 962.99,232.95 963.24,234.30 963.50,234.30 963.74,234.30 963.99,234.30 964.24,235.66 964.49,235.66 964.75,235.66 964.99,237.01 965.25,237.01 965.50,237.01 965.75,237.01 966.00,237.01 966.25,237.01 966.50,238.36 966.76,238.36 967.00,238.36 967.26,238.36 967.51,239.71 967.76,239.71 968.01,239.71 968.25,241.07 968.51,241.07 968.76,241.07 969.01,241.07 969.26,241.07 969.51,242.42 969.76,242.42 970.01,242.42 970.27,242.42 970.52,242.42 970.77,242.42 971.03,242.42 971.27,242.42 971.52,242.42 971.77,242.42 972.02,242.42 972.28,242.42 972.53,243.77 972.78,243.77 973.03,243.77 973.28,243.77 973.53,243.77 973.78,243.77 974.03,243.77 974.29,243.77 974.54,243.77 974.78,243.77 975.04,245.12 975.29,245.12 975.54,245.12 975.79,245.12 976.04,245.12 976.29,245.12 976.55,245.12 976.79,245.12 977.05,245.12 977.29,245.12 977.54,245.12 977.80,245.12 978.04,246.48 978.29,246.48 978.55,246.48 978.80,246.48 979.05,246.48 979.30,246.48 979.55,246.48 979.80,246.48 980.06,246.48 980.30,246.48 980.55,246.48 980.80,246.48 981.07,246.48 981.31,246.48 981.56,246.48 981.82,246.48 982.06,246.48 982.32,246.48 982.56,247.83 982.82,247.83 983.07,247.83 983.32,247.83 983.57,247.83 983.82,247.83 984.07,247.83 984.33,247.83 984.57,247.83 984.83,247.83 985.07,247.83 985.33,247.83 985.58,247.83 985.83,247.83 986.08,247.83 986.34,247.83 986.58,247.83 986.84,247.83 987.08,247.83 987.34,247.83 987.59,247.83 987.83,247.83 988.09,247.83 988.34,247.83 988.59,247.83 988.84,247.83 989.09,247.83 989.34,247.83 989.59,247.83 989.84,247.83 990.09,246.48 990.35,246.48 990.59,246.48 990.85,246.48 991.10,246.48 991.35,246.48 991.60,246.48 991.86,246.48 992.11,246.48 992.36,246.48 992.61,246.48 992.86,246.48 993.11,246.48 993.36,246.48 993.61,246.48 993.86,246.48 994.11,246.48 994.36,246.48 994.61,246.48 994.87,245.12 995.12,245.12 995.37,245.12 995.62,245.12 995.88,245.12 996.12,245.12 996.37,245.12 996.63,245.12 996.88,245.12 997.13,243.77 997.38,243.77 997.62,243.77 997.88,243.77 998.13,243.77 998.38,243.77 998.63,243.77 998.89,243.77 999.13,242.42 999.39,243.77 999.63,242.42 999.89,242.42 1000.13,242.42 1000.39,242.42 1000.64,242.42 1000.88,242.42 1001.15,242.42 1001.39,242.42 1001.65,242.42 1001.90,242.42 1002.15,242.42 1002.40,241.07 1002.65,241.07 1002.90,241.07 1003.15,241.07 1003.40,241.07 1003.65,241.07 1003.94,241.07 1004.18,241.07 1004.44,239.71 1004.69,239.71 1004.94,239.71 1005.19,239.71 1005.44,239.71 1005.69,239.71 1005.94,239.71 1006.17,239.71 1006.41,239.71 1006.67,238.36 1006.92,238.36 1007.20,238.36 1007.45,238.36 1007.70,238.36 1007.95,238.36 1008.20,238.36 1008.45,237.01 1008.70,237.01 1008.96,237.01 1009.20,237.01 1009.46,237.01 1009.71,237.01 1009.96,237.01 1010.21,237.01 1010.46,235.66 1010.70,235.66 1010.96,235.66 1011.21,235.66 1011.47,235.66 1011.71,235.66 1011.97,235.66 1012.22,234.30 1012.47,234.30 1012.72,234.30 1012.97,234.30 1013.19,234.30 1013.44,234.30 1013.69,234.30 1013.93,232.95 1014.19,232.95 1014.45,232.95 1014.69,232.95 1014.95,232.95 1015.19,232.95 1015.45,232.95 1015.70,231.60 1015.95,231.60 1016.20,231.60 1016.45,231.60 1016.70,231.60 1016.96,231.60 1017.20,231.60 1017.46,230.25 1017.71,230.25 1017.96,230.25 1018.21,230.25 1018.46,230.25 1018.71,230.25 1018.97,228.89 1019.21,228.89 1019.46,228.89 1019.75,228.89 1020.00,228.89 1020.24,228.89 1020.49,228.89 1020.75,227.54 1021.00,227.54 1021.25,227.54 1021.50,227.54 1021.75,227.54 1022.01,227.54 1022.25,226.19 1022.51,226.19 1022.75,226.19 1023.01,226.19 1023.26,226.19 1023.51,226.19 1023.76,224.84 1024.01,224.84 1024.26,224.84 1024.52,224.84 1024.77,224.84 1025.01,224.84 1025.27,224.84 1025.51,224.84 1025.77,224.84 1026.02,224.84 1026.27,224.84 1026.52,224.84 1026.77,224.84 1027.02,224.84 1027.27,224.84 1027.52,224.84 1027.77,224.84 1028.02,224.84 1028.27,224.84 1028.53,224.84 1028.78,224.84 1029.03,224.84 1029.28,224.84 1029.53,224.84 1029.78,224.84 1030.03,226.19 1030.28,226.19 1030.53,226.19 1030.78,226.19 1031.03,226.19 1031.29,226.19 1031.53,226.19 1031.79,226.19 1032.04,226.19 1032.29,226.19 1032.54,226.19 1032.79,226.19 1033.04,226.19 1033.29,227.54 1033.54,227.54 1033.79,227.54 1034.04,227.54 1034.30,227.54 1034.54,227.54 1034.80,227.54 1035.05,227.54 1035.30,227.54 1035.55,227.54 1035.80,227.54 1036.05,227.54 1036.31,227.54 1036.55,227.54 1036.80,227.54 1037.05,227.54 1037.31,227.54 1037.56,227.54 1037.81,227.54 1038.06,227.54 1038.31,227.54 1038.56,227.54 1038.81,227.54 1039.06,227.54 1039.31,227.54 1039.56,227.54 1039.81,227.54 1040.06,227.54 1040.32,227.54 1040.57,227.54 1040.82,227.54 1041.07,227.54 1041.32,227.54 1041.58,227.54 1041.82,228.89 1042.08,228.89 1042.32,228.89 1042.58,228.89 1042.83,228.89 1043.08,228.89 1043.32,228.89 1043.58,228.89 1043.83,228.89 1044.08,228.89 1044.33,228.89 1044.58,228.89 1044.83,228.89 1045.09,228.89 1045.33,228.89 1045.59,230.25 1045.84,230.25 1046.09,230.25 1046.34,230.25 1046.58,230.25 1046.84,230.25 1047.10,230.25 1047.34,230.25 1047.60,230.25 1047.85,230.25 1048.10,230.25 1048.34,230.25 1048.60,231.60 1048.85,231.60 1049.10,231.60 1049.35,231.60 1049.60,231.60 1049.84,231.60 1050.10,231.60 1050.35,231.60 1050.61,231.60 1050.85,231.60 1051.11,231.60 1051.36,231.60 1051.61,231.60 1051.86,231.60 1052.11,231.60 1052.36,231.60 1052.62,231.60 1052.86,231.60 1053.11,232.95 1053.36,232.95 1053.62,232.95 1053.86,232.95 1054.12,232.95 1054.37,232.95 1054.62,232.95 1054.87,232.95 1055.12,232.95 1055.37,232.95 1055.63,232.95 1055.87,232.95 1056.13,232.95 1056.37,232.95 1056.63,232.95 1056.88,232.95 1057.13,232.95 1057.38,234.30 1057.63,234.30 1057.88,234.30 1058.14,234.30 1058.39,234.30 1058.63,234.30 1058.88,234.30 1059.13,234.30 1059.38,234.30 1059.63,234.30 1059.89,234.30 1060.14,234.30 1060.39,234.30 1060.64,234.30 1060.89,234.30 1061.14,234.30 1061.39,235.66 1061.65,235.66 1061.89,235.66 1062.15,235.66 1062.40,235.66 1062.65,235.66 1062.89,235.66 1063.15,235.66 1063.40,235.66 1063.65,235.66 1063.90,235.66 1064.15,235.66 1064.38,237.01 1064.62,237.01 1064.88,237.01 1065.13,237.01 1065.38,237.01 1065.63,237.01 1065.88,237.01 1066.12,237.01 1066.39,237.01 1066.63,238.36 1066.89,238.36 1067.13,238.36 1067.39,238.36 1067.64,238.36 1067.89,238.36 1068.14,238.36 1068.39,238.36 1068.64,238.36 1068.89,239.71 1069.14,239.71 1069.38,239.71 1069.64,239.71 1069.89,239.71 1070.14,239.71 1070.39,239.71 1070.65,239.71 1070.90,239.71 1071.15,239.71 1071.40,241.07 1071.65,241.07 1071.91,241.07 1072.15,241.07 1072.41,241.07 1072.65,241.07 1072.91,241.07 1073.15,241.07 1073.41,241.07 1073.66,241.07 1073.91,241.07 1074.16,241.07 1074.42,241.07 1074.67,242.42 1074.91,242.42 1075.16,242.42 1075.42,242.42 1075.66,242.42 1075.91,242.42 1076.17,242.42 1076.43,242.42 1076.67,242.42 1076.92,243.77 1077.17,243.77 1077.42,243.77 1077.67,243.77 1077.92,243.77 1078.17,243.77 1078.42,243.77 1078.68,243.77 1078.93,245.12 1079.17,245.12 1079.43,245.12 1079.68,245.12 1079.93,245.12 1080.19,245.12 1080.43,246.48 1080.69,246.48 1080.94,246.48 1081.19,246.48 1081.44,246.48 1081.69,246.48 1081.93,246.48 1082.19,247.83 1082.43,247.83 1082.69,247.83 1082.95,247.83 1083.19,247.83 1083.45,247.83 1083.70,247.83 1083.94,249.18 1084.21,249.18 1084.45,249.18 1084.70,249.18 1084.95,249.18 1085.20,249.18 1085.45,249.18 1085.69,249.18 1085.96,249.18 1086.20,250.53 1086.46,250.53 1086.70,250.53 1086.96,250.53 1087.21,250.53 1087.45,250.53 1087.71,250.53 1087.96,250.53 1088.21,250.53 1088.47,250.53 1088.71,250.53 1088.96,251.89 1089.21,250.53 1089.47,251.89 1089.72,251.89 1089.97,251.89 1090.22,251.89 1090.47,251.89 1090.72,253.24 1090.97,253.24 1091.22,253.24 1091.47,253.24 1091.72,253.24 1091.98,253.24 1092.22,254.59 1092.48,254.59 1092.73,254.59 1092.98,254.59 1093.23,254.59 1093.49,254.59 1093.73,254.59 1093.99,255.94 1094.23,255.94 1094.49,255.94 1094.73,255.94 1094.99,255.94 1095.23,255.94 1095.48,255.94 1095.74,255.94 1095.99,257.30 1096.24,257.30 1096.50,257.30 1096.74,257.30 1096.99,257.30 1097.25,257.30 1097.50,257.30 1097.75,258.65 1098.00,258.65 1098.25,258.65 1098.50,258.65 1098.74,258.65 1099.00,258.65 1099.25,258.65 1099.51,260.00 1099.76,260.00 1100.00,260.00" fill="none" stroke="#9467bd" stroke-width="2.5" stroke-linejoin="round" stroke-linecap="round"/>
  <text x="680" y="277" font-family="Arial, sans-serif" font-size="13" fill="#5d6b78">-12.2..0.0 m relative to start</text>

  <rect x="650" y="305" width="485" height="200" rx="6" fill="#ffffff" stroke="#d7dde3"/>
  <text x="680" y="333" font-family="Arial, sans-serif" font-size="17" font-weight="700" fill="#17202a">Speed</text>
  <line x1="680" y1="475" x2="1100" y2="475" stroke="#d7dde3"/>
  <polyline points="680.00,475.00 680.18,465.13 680.42,475.00 680.67,468.13 680.92,471.44 681.17,471.44 681.42,467.23 681.67,467.15 681.92,467.07 682.18,471.55 682.42,466.99 682.68,468.06 682.93,465.06 683.18,468.06 683.43,467.85 683.68,465.16 683.93,475.00 684.19,467.38 684.43,460.39 684.69,468.19 684.94,467.07 685.19,467.99 685.43,467.07 685.69,475.00 685.95,467.31 686.20,467.15 686.44,475.00 686.69,468.02 686.94,471.41 687.20,467.31 687.45,471.48 687.69,471.37 687.95,475.00 688.20,467.15 688.45,467.07 688.70,468.06 688.95,471.48 689.20,467.99 689.45,465.06 689.70,475.00 689.95,465.06 690.21,467.23 690.46,467.07 690.70,460.40 690.95,467.92 691.21,471.55 691.46,467.99 691.71,467.23 691.97,467.31 692.22,460.40 692.46,458.99 692.71,452.82 692.97,475.00 693.22,471.44 693.47,460.69 693.72,459.15 693.97,467.23 694.21,460.10 694.47,471.55 694.72,453.67 694.98,330.00 695.23,333.19 695.48,371.38 695.73,360.03 695.98,392.45 696.23,375.60 696.48,361.47 696.73,362.33 696.99,385.38 697.23,374.59 697.48,389.95 697.74,385.38 697.99,405.92 698.24,389.95 698.49,410.51 698.74,426.89 698.99,417.66 699.24,433.62 699.49,411.27 699.74,411.90 699.99,418.24 700.25,426.29 700.49,432.36 700.75,453.97 701.00,446.74 701.25,467.23 701.50,446.67 701.75,467.23 702.00,453.46 702.26,467.38 702.50,460.10 702.76,468.06 703.00,460.40 703.26,453.89 703.51,467.07 703.76,467.31 704.01,460.84 704.27,461.25 704.51,460.10 704.77,461.25 705.01,467.85 705.27,465.26 705.52,460.40 705.77,467.95 706.01,467.92 706.27,471.55 706.52,460.69 706.77,471.48 707.02,467.99 707.26,464.86 707.52,468.13 707.77,467.15 708.02,460.98 708.28,471.51 708.52,467.07 708.77,475.00 709.03,465.06 709.28,460.54 709.53,467.15 709.78,475.00 710.04,459.62 710.29,460.84 710.53,464.65 710.78,468.13 711.03,460.54 711.28,471.48 711.54,475.00 711.79,471.41 712.04,467.31 712.29,467.85 712.54,467.31 712.79,475.00 713.05,467.31 713.29,471.44 713.55,467.23 713.79,464.65 714.05,475.00 714.30,464.96 714.55,475.00 714.80,466.99 715.05,467.31 715.30,464.86 715.55,467.23 715.80,467.15 716.06,471.58 716.31,467.07 716.56,464.96 716.80,471.41 717.05,467.15 717.31,471.48 717.56,468.16 717.81,475.00 718.06,471.48 718.31,471.48 718.56,467.15 718.81,471.48 719.06,471.51 719.32,467.23 719.57,467.15 719.82,471.48 720.07,475.00 720.32,465.06 720.57,471.55 720.82,464.86 721.07,475.00 721.32,467.85 721.57,467.95 721.82,468.06 722.08,468.13 722.34,467.31 722.57,475.00 722.83,471.55 723.08,475.00 723.33,475.00 723.58,466.91 723.83,468.13 724.08,471.44 724.34,475.00 724.58,475.00 724.84,471.55 725.08,475.00 725.34,471.55 725.59,466.99 725.84,467.31 726.09,471.44 726.35,475.00 726.59,471.37 726.84,475.00 727.09,467.23 727.34,468.06 727.59,475.00 727.85,471.58 728.10,467.99 728.35,467.99 728.60,466.91 728.85,475.00 729.10,467.85 729.35,471.55 729.60,467.92 729.85,471.48 730.17,472.20 730.37,470.65 730.62,467.85 730.87,475.00 731.12,475.00 731.37,467.23 731.63,475.00 731.88,467.99 732.12,475.00 732.38,467.31 732.63,466.99 732.88,471.51 733.13,471.44 733.38,467.07 733.63,467.23 733.89,475.00 734.14,467.99 734.38,466.99 734.64,468.06 734.89,467.15 735.16,433.54 735.39,438.20 735.64,435.77 735.89,435.77 736.14,426.24 736.40,422.10 736.64,418.38 736.89,434.87 737.15,421.57 737.40,420.08 737.65,420.08 737.90,424.37 738.15,421.57 738.40,434.07 738.65,429.85 738.90,433.65 739.16,436.16 739.40,441.55 739.65,443.62 739.90,434.97 740.16,444.82 740.41,449.17 740.67,438.32 740.91,442.98 741.16,443.62 741.41,443.62 741.67,444.53 741.92,450.73 742.17,443.62 742.41,457.26 742.67,443.93 742.92,451.46 743.17,459.15 743.43,442.85 743.67,458.82 743.92,449.93 744.17,446.09 744.43,442.21 744.68,451.46 744.92,442.98 745.18,450.18 745.43,449.43 745.68,445.33 745.93,451.46 746.19,451.69 746.43,450.48 746.69,450.66 746.93,452.37 747.19,457.79 747.44,452.59 747.69,453.04 747.94,451.46 748.19,459.31 748.44,451.46 748.69,459.31 748.95,452.82 749.20,459.46 749.44,444.10 749.69,457.26 749.94,451.69 750.20,457.79 750.45,458.99 750.70,453.04 750.95,464.96 751.20,467.23 751.45,459.31 751.70,459.15 751.95,459.31 752.21,460.69 752.45,457.26 752.70,467.99 752.95,459.15 753.21,457.79 753.46,460.83 753.71,458.99 753.96,465.16 754.21,460.25 754.47,467.31 754.71,458.99 754.97,465.26 755.22,468.06 755.46,464.75 755.72,459.62 755.97,466.99 756.21,460.40 756.47,465.35 756.72,460.25 756.97,459.31 757.22,459.31 757.48,457.79 757.72,466.99 757.98,460.83 758.22,458.99 758.48,459.76 758.73,460.10 758.98,459.62 759.23,464.86 759.48,460.84 759.73,451.92 759.99,467.23 760.23,460.40 760.49,460.69 760.74,459.31 760.99,467.15 761.24,460.40 761.49,467.23 761.74,460.69 761.99,459.62 762.24,467.07 762.50,459.62 762.74,459.94 763.00,461.10 763.24,458.82 763.50,461.39 763.75,458.99 764.00,460.69 764.25,466.99 764.50,453.25 764.75,460.40 765.00,467.23 765.26,460.83 765.51,460.54 765.76,459.15 766.01,460.25 766.26,459.46 766.51,460.69 766.76,467.07 767.01,460.69 767.26,467.07 767.52,459.62 767.76,466.99 768.02,460.96 768.27,466.99 768.52,459.46 768.77,467.07 769.02,453.67 769.26,466.91 769.53,461.23 769.78,459.15 770.03,460.69 770.28,459.46 770.53,467.07 770.79,453.89 771.03,464.96 771.29,460.69 771.54,459.15 771.79,467.99 772.04,459.31 772.29,467.15 772.53,466.99 772.79,460.83 773.05,468.13 773.29,467.92 773.55,467.15 773.79,471.41 774.04,467.99 774.30,460.69 774.54,471.44 774.80,467.23 775.05,467.92 775.30,467.31 775.55,466.99 775.80,467.15 776.05,475.00 776.30,460.69 776.55,475.00 776.80,471.51 777.05,460.40 777.31,468.13 777.56,467.95 777.81,460.98 778.06,471.48 778.31,467.15 778.56,460.84 778.81,467.23 779.06,466.83 779.32,468.26 779.56,460.25 779.81,471.48 780.07,460.69 780.31,467.07 780.57,468.13 780.82,466.99 781.07,461.25 781.32,466.99 781.57,460.69 781.82,467.07 782.07,467.23 782.31,466.83 782.58,468.32 782.82,460.25 783.08,467.23 783.33,467.07 783.58,468.06 783.83,467.15 784.08,467.15 784.33,467.07 784.58,467.23 784.83,467.07 785.08,460.69 785.34,467.23 785.59,475.00 785.84,465.06 786.09,468.13 786.34,471.41 786.60,460.83 786.84,466.99 787.10,471.55 787.34,466.99 787.60,467.31 787.84,471.37 788.10,467.31 788.34,471.41 788.60,471.51 788.84,467.77 789.10,471.61 789.35,467.92 789.60,471.51 789.85,475.00 790.11,468.06 790.35,471.41 790.61,475.00 790.86,467.07 791.11,475.00 791.36,471.44 791.61,460.69 791.86,471.44 792.11,471.44 792.36,468.06 792.61,468.06 792.86,475.00 793.11,468.06 793.36,471.44 793.62,468.13 793.87,467.99 794.12,467.15 794.37,471.48 794.62,466.99 794.87,471.55 795.12,475.00 795.38,475.00 795.63,466.91 795.88,467.15 796.13,475.00 796.38,467.99 796.63,471.44 796.88,471.51 797.13,475.00 797.38,475.00 797.64,475.00 797.88,471.44 798.14,467.23 798.39,475.00 798.63,475.00 798.89,471.58 799.14,467.99 799.39,467.99 799.64,471.51 799.89,475.00 800.14,471.44 800.40,475.00 800.65,475.00 800.89,467.92 801.14,471.44 801.40,475.00 801.65,468.06 801.89,467.70 802.15,471.64 802.40,471.44 802.65,475.00 802.90,475.00 803.15,475.00 803.40,471.48 803.65,471.48 803.91,467.99 804.16,467.23 804.41,471.44 804.66,468.13 804.91,471.37 805.16,471.44 805.41,475.00 805.66,471.51 805.91,471.44 806.17,475.00 806.41,471.44 806.67,467.23 806.92,467.92 807.17,468.06 807.42,467.92 807.67,471.51 807.92,467.07 808.17,471.51 808.41,475.00 808.68,471.61 808.92,471.44 809.18,471.55 809.43,471.41 809.68,475.00 809.93,475.00 810.18,475.00 810.43,475.00 810.68,475.00 810.93,467.99 811.18,467.99 811.44,475.00 811.68,475.00 811.94,475.00 812.19,475.00 812.44,466.99 812.69,471.51 812.94,475.00 813.19,475.00 813.44,475.00 813.69,475.00 813.94,471.44 814.19,471.48 814.44,475.00 814.69,467.07 814.94,475.00 815.20,475.00 815.45,475.00 815.70,467.15 815.95,475.00 816.20,471.48 816.45,475.00 816.70,475.00 816.95,475.00 817.20,467.99 817.45,467.15 817.71,475.00 817.96,471.44 818.20,467.77 818.46,471.55 818.71,468.06 818.96,471.51 819.21,467.92 819.46,471.51 819.71,467.92 819.97,471.61 820.21,466.83 820.47,471.58 820.72,471.44 820.97,467.07 821.22,468.06 821.46,475.00 821.73,471.64 821.98,471.48 822.22,464.86 822.48,467.23 822.72,475.00 822.97,467.15 823.23,467.15 823.48,467.15 823.73,475.00 823.98,475.00 824.23,471.44 824.48,467.23 824.73,475.00 824.98,471.51 825.24,465.16 825.49,471.48 825.74,467.07 825.99,471.51 826.23,475.00 826.49,468.13 826.74,467.88 826.99,475.00 827.24,466.99 827.49,465.26 827.74,467.85 827.99,475.00 828.24,475.00 828.50,467.31 828.75,475.00 829.00,475.00 829.25,471.41 829.50,468.13 829.75,475.00 830.00,468.02 830.25,467.07 830.51,471.61 830.75,475.00 831.01,467.23 831.25,475.00 831.51,471.58 831.76,475.00 832.01,475.00 832.26,464.96 832.51,467.23 832.76,467.88 833.01,468.06 833.26,475.00 833.52,468.02 833.76,467.92 834.02,475.00 834.26,471.41 834.51,467.92 834.77,471.55 835.02,471.51 835.27,475.00 835.52,467.15 835.77,475.00 836.02,471.48 836.27,467.15 836.52,471.44 836.77,471.48 837.02,475.00 837.27,471.48 837.53,475.00 837.77,466.99 838.03,475.00 838.28,467.23 838.53,475.00 838.78,475.00 839.04,468.02 839.28,467.07 839.54,467.95 839.79,467.23 840.04,471.44 840.29,468.06 840.54,471.51 840.79,471.44 841.03,467.70 841.29,471.61 841.54,475.00 841.80,468.06 842.04,467.07 842.30,475.00 842.55,475.00 842.80,468.02 843.05,467.07 843.30,471.51 843.55,471.41 843.80,475.00 844.05,467.07 844.30,471.44 844.56,475.00 844.80,467.85 845.06,471.55 845.31,475.00 845.56,467.85 845.82,471.58 846.06,466.91 846.31,468.02 846.56,475.00 846.81,467.92 847.07,468.02 847.31,475.00 847.56,475.00 847.82,471.55 848.07,468.06 848.32,475.00 848.57,471.44 848.82,467.31 849.07,471.41 849.32,468.06 849.57,475.00 849.83,471.55 850.07,467.77 850.33,467.31 850.58,467.15 850.82,467.74 851.08,468.13 851.33,475.00 851.58,471.41 851.83,471.55 852.08,467.07 852.33,475.00 852.58,467.85 852.84,471.55 853.08,475.00 853.34,467.23 853.58,471.41 853.84,471.55 854.08,471.33 854.34,462.69 854.59,475.00 854.84,459.31 855.09,471.44 855.34,475.00 855.59,467.99 855.85,471.51 856.10,471.44 856.35,467.31 856.60,464.86 856.86,468.19 857.10,467.74 857.35,475.00 857.60,471.51 857.86,471.55 858.11,464.96 858.36,471.51 858.60,467.85 858.86,471.51 859.11,471.48 859.36,475.00 859.61,475.00 859.86,475.00 860.11,468.06 860.36,471.48 860.61,467.85 860.86,468.09 861.12,468.06 861.36,471.44 861.62,467.95 861.87,471.48 862.12,467.15 862.37,471.48 862.62,467.15 862.87,467.95 863.12,475.00 863.37,475.00 863.62,471.48 863.87,471.41 864.12,467.31 864.38,467.15 864.63,467.99 864.88,467.99 865.13,467.23 865.38,471.44 865.64,468.19 865.88,475.00 866.14,471.55 866.38,471.41 866.64,475.00 866.88,466.99 867.13,475.00 867.39,467.31 867.64,471.51 867.89,466.99 868.14,475.00 868.39,471.44 868.64,471.48 868.89,471.44 869.15,475.00 869.39,475.00 869.65,468.09 869.90,475.00 870.15,467.85 870.39,467.07 870.66,468.23 870.90,466.91 871.15,475.00 871.40,465.06 871.65,471.51 871.91,467.15 872.15,475.00 872.40,471.48 872.66,460.98 872.91,467.15 873.16,468.06 873.41,467.07 873.65,466.99 873.91,475.00 874.16,471.55 874.41,467.95 874.66,467.07 874.92,460.83 875.17,459.15 875.42,467.15 875.67,471.48 875.92,475.00 876.17,471.55 876.42,475.00 876.68,467.23 876.92,471.33 877.17,468.19 877.42,467.07 877.68,468.13 877.92,471.41 878.18,471.51 878.43,467.92 878.68,471.51 878.93,471.44 879.18,471.51 879.43,467.92 879.69,468.13 879.93,464.86 880.18,466.99 880.43,467.31 880.69,468.06 880.94,475.00 881.19,471.51 881.44,467.07 881.69,475.00 881.94,471.44 882.19,475.00 882.44,467.99 882.69,471.48 882.94,471.44 883.20,475.00 883.44,471.33 883.70,475.00 883.95,471.44 884.20,468.13 884.45,475.00 884.70,468.09 884.95,467.81 885.21,467.31 885.45,471.41 885.71,467.23 885.95,475.00 886.20,467.15 886.46,467.99 886.70,475.00 886.96,468.26 887.21,467.07 887.46,475.00 887.71,475.00 887.96,471.48 888.21,467.99 888.46,467.99 888.71,467.15 888.96,475.00 889.21,471.44 889.47,471.51 889.72,471.48 889.96,467.74 890.22,475.00 890.47,475.00 890.72,471.48 890.97,471.44 891.22,471.48 891.47,471.48 891.73,475.00 891.98,467.07 892.23,467.99 892.48,475.00 892.73,471.51 892.98,471.44 893.23,467.92 893.48,468.13 893.73,467.15 893.99,475.00 894.23,471.44 894.49,465.26 894.74,475.00 894.99,471.51 895.24,467.07 895.49,471.48 895.74,471.51 895.99,471.44 896.25,468.13 896.48,475.00 896.74,471.58 897.00,475.00 897.25,467.07 897.50,468.13 897.75,471.44 898.00,475.00 898.25,471.48 898.50,467.85 898.76,475.00 899.01,467.15 899.26,471.48 899.50,467.85 899.75,475.00 900.01,467.23 900.26,467.15 900.51,475.00 900.76,471.44 901.01,468.13 901.26,466.99 901.51,467.23 901.76,467.88 902.01,475.00 902.26,467.07 902.52,468.13 902.77,471.44 903.01,471.41 903.27,468.19 903.52,467.92 903.77,471.48 904.02,467.23 904.27,475.00 904.53,471.51 904.77,467.07 905.03,467.99 905.27,475.00 905.53,475.00 905.78,465.06 906.03,475.00 906.28,466.83 906.53,468.19 906.78,471.48 907.04,475.00 907.29,475.00 907.54,471.55 907.79,471.41 908.04,471.51 908.29,471.44 908.54,475.00 908.79,471.44 909.05,475.00 909.29,467.85 909.54,471.44 909.80,467.31 910.05,471.51 910.30,471.44 910.55,468.06 910.80,467.92 911.05,471.51 911.30,467.07 911.55,467.23 911.81,475.00 912.06,475.00 912.31,475.00 912.56,467.23 912.80,467.77 913.06,468.19 913.31,467.92 913.56,468.06 913.81,475.00 914.07,471.51 914.31,467.92 914.57,467.99 914.81,475.00 915.07,471.55 915.32,475.00 915.57,475.00 915.82,475.00 916.07,475.00 916.32,475.00 916.57,471.51 916.82,467.92 917.08,475.00 917.32,475.00 917.58,475.00 917.82,471.44 918.08,475.00 918.33,471.44 918.58,475.00 918.83,475.00 919.08,471.48 919.32,475.00 919.58,475.00 919.84,475.00 920.08,475.00 920.33,475.00 920.59,475.00 920.84,475.00 921.09,468.06 921.34,467.92 921.60,468.32 921.84,475.00 922.09,467.92 922.35,468.06 922.59,467.77 922.85,471.55 923.10,467.15 923.35,471.55 923.60,475.00 923.85,475.00 924.10,471.44 924.35,475.00 924.60,475.00 924.86,475.00 925.10,475.00 925.35,467.92 925.61,475.00 925.85,475.00 926.11,471.48 926.36,467.99 926.61,475.00 926.86,471.44 927.11,468.06 927.36,471.44 927.62,475.00 927.86,467.85 928.12,471.55 928.37,475.00 928.62,471.48 928.87,467.92 929.11,466.99 929.37,471.55 929.62,468.13 929.87,467.85 930.12,471.51 930.37,475.00 930.62,467.15 930.87,471.44 931.13,468.13 931.38,471.44 931.63,468.06 931.88,467.92 932.13,468.06 932.37,466.74 932.64,471.68 932.88,471.37 933.14,468.19 933.38,475.00 933.64,467.23 933.89,471.44 934.14,475.00 934.39,475.00 934.64,471.55 934.89,475.00 935.14,475.00 935.39,471.44 935.63,466.99 935.90,467.46 936.15,467.15 936.39,466.99 936.65,468.06 936.89,467.92 937.15,461.12 937.39,466.99 937.65,467.31 937.90,475.00 938.15,467.99 938.40,467.99 938.65,465.06 938.90,467.81 939.15,471.55 939.41,468.06 939.66,468.06 939.90,475.00 940.16,475.00 940.40,471.44 940.66,467.31 940.91,467.92 941.16,468.13 941.41,471.41 941.67,467.31 941.91,471.41 942.16,475.00 942.41,468.06 942.67,475.00 942.92,475.00 943.17,468.06 943.42,471.44 943.67,471.51 943.92,475.00 944.18,467.31 944.42,475.00 944.67,475.00 944.92,467.92 945.18,475.00 945.42,467.77 945.68,468.06 945.93,467.15 946.18,475.00 946.43,471.55 946.68,467.77 946.93,475.00 947.19,475.00 947.43,475.00 947.68,475.00 947.93,467.99 948.19,475.00 948.43,475.00 948.68,475.00 948.94,475.00 949.19,475.00 949.44,466.99 949.69,471.51 949.95,471.58 950.20,471.44 950.45,475.00 950.70,475.00 950.95,467.07 951.20,471.51 951.45,475.00 951.70,471.44 951.95,467.85 952.20,471.55 952.46,471.51 952.70,475.00 952.96,471.51 953.21,475.00 953.46,475.00 953.71,467.92 953.96,471.55 954.21,475.00 954.46,475.00 954.71,466.99 954.96,471.51 955.20,475.00 955.47,471.68 955.71,471.37 955.97,467.31 956.21,475.00 956.47,467.23 956.72,467.07 956.97,475.00 957.22,475.00 957.47,468.13 957.72,471.41 957.98,475.00 958.22,475.00 958.47,475.00 958.72,471.51 958.98,471.55 959.23,475.00 959.48,475.00 959.73,475.00 959.98,471.51 960.23,471.44 960.48,475.00 960.73,475.00 960.98,475.00 961.23,471.41 961.49,467.31 961.73,471.33 961.99,471.64 962.24,467.85 962.49,468.13 962.74,467.85 962.99,471.48 963.24,471.48 963.50,471.55 963.74,471.41 963.99,475.00 964.24,475.00 964.49,475.00 964.75,471.48 964.99,471.41 965.25,467.31 965.50,475.00 965.75,467.23 966.00,467.88 966.25,475.00 966.50,467.99 966.76,475.00 967.00,475.00 967.26,475.00 967.51,475.00 967.76,471.44 968.01,475.00 968.25,467.54 968.51,468.32 968.76,467.85 969.01,475.00 969.26,475.00 969.51,475.00 969.76,471.48 970.01,475.00 970.27,475.00 970.52,468.06 970.77,467.23 971.03,475.00 971.27,475.00 971.52,471.44 971.77,471.51 972.02,475.00 972.28,471.51 972.53,475.00 972.78,467.99 973.03,471.41 973.28,475.00 973.53,475.00 973.78,471.55 974.03,467.85 974.29,468.19 974.54,467.92 974.78,466.91 975.04,467.31 975.29,475.00 975.54,471.48 975.79,475.00 976.04,475.00 976.29,471.37 976.55,471.58 976.79,466.91 977.05,468.13 977.29,475.00 977.54,475.00 977.80,471.48 978.04,475.00 978.29,475.00 978.55,475.00 978.80,466.99 979.05,475.00 979.30,471.41 979.55,468.09 979.80,475.00 980.06,468.13 980.30,466.91 980.55,467.15 980.80,467.15 981.07,468.39 981.31,475.00 981.56,475.00 981.82,467.99 982.06,467.85 982.32,468.13 982.56,475.00 982.82,475.00 983.07,475.00 983.32,468.13 983.57,467.92 983.82,471.51 984.07,475.00 984.33,475.00 984.57,475.00 984.83,467.46 985.07,471.41 985.33,467.31 985.58,466.99 985.83,460.83 986.08,467.07 986.34,467.31 986.58,467.85 986.84,467.23 987.08,466.99 987.34,467.23 987.59,471.48 987.83,467.77 988.09,465.26 988.34,467.23 988.59,464.96 988.84,475.00 989.09,467.85 989.34,467.99 989.59,467.15 989.84,475.00 990.09,475.00 990.35,471.51 990.59,475.00 990.85,475.00 991.10,475.00 991.35,468.19 991.60,475.00 991.86,475.00 992.11,471.44 992.36,475.00 992.61,467.99 992.86,475.00 993.11,471.41 993.36,475.00 993.61,475.00 993.86,467.31 994.11,467.07 994.36,467.92 994.61,475.00 994.87,475.00 995.12,466.99 995.37,471.55 995.62,471.44 995.88,475.00 996.12,475.00 996.37,467.07 996.63,475.00 996.88,471.41 997.13,467.23 997.38,467.85 997.62,475.00 997.88,471.58 998.13,467.85 998.38,467.15 998.63,475.00 998.89,471.51 999.13,460.10 999.39,467.31 999.63,467.92 999.89,475.00 1000.13,475.00 1000.39,475.00 1000.64,467.85 1000.88,471.37 1001.15,475.00 1001.39,467.85 1001.65,467.23 1001.90,475.00 1002.15,467.92 1002.40,467.15 1002.65,467.99 1002.90,471.48 1003.15,467.07 1003.40,475.00 1003.65,467.15 1003.94,468.18 1004.18,467.62 1004.44,475.00 1004.69,475.00 1004.94,471.48 1005.19,475.00 1005.44,467.99 1005.69,468.06 1005.94,475.00 1006.17,471.04 1006.41,471.44 1006.67,471.48 1006.92,475.00 1007.20,475.00 1007.45,475.00 1007.70,475.00 1007.95,471.55 1008.20,475.00 1008.45,475.00 1008.70,467.07 1008.96,467.31 1009.20,467.85 1009.46,468.13 1009.71,471.41 1009.96,475.00 1010.21,467.92 1010.46,471.55 1010.70,475.00 1010.96,475.00 1011.21,471.48 1011.47,475.00 1011.71,467.07 1011.97,471.55 1012.22,466.99 1012.47,475.00 1012.72,467.92 1012.97,475.00 1013.19,470.90 1013.44,475.00 1013.69,475.00 1013.93,475.00 1014.19,475.00 1014.45,475.00 1014.69,471.41 1014.95,475.00 1015.19,475.00 1015.45,475.00 1015.70,475.00 1015.95,475.00 1016.20,475.00 1016.45,475.00 1016.70,475.00 1016.96,467.31 1017.20,466.83 1017.46,471.64 1017.71,475.00 1017.96,475.00 1018.21,475.00 1018.46,475.00 1018.71,475.00 1018.97,467.31 1019.21,466.91 1019.46,471.55 1019.75,468.74 1020.00,475.00 1020.24,467.92 1020.49,467.07 1020.75,475.00 1021.00,471.51 1021.25,467.07 1021.50,475.00 1021.75,467.92 1022.01,475.00 1022.25,471.41 1022.51,467.23 1022.75,460.40 1023.01,471.55 1023.26,467.99 1023.51,475.00 1023.76,471.44 1024.01,475.00 1024.26,467.07 1024.52,468.06 1024.77,467.15 1025.01,475.00 1025.27,475.00 1025.51,458.99 1025.77,471.51 1026.02,467.99 1026.27,475.00 1026.52,460.54 1026.77,475.00 1027.02,467.85 1027.27,475.00 1027.52,467.23 1027.77,467.85 1028.02,467.99 1028.27,475.00 1028.53,471.48 1028.78,468.06 1029.03,467.07 1029.28,475.00 1029.53,467.92 1029.78,475.00 1030.03,467.07 1030.28,471.44 1030.53,467.23 1030.78,467.99 1031.03,475.00 1031.29,461.39 1031.53,471.37 1031.79,468.13 1032.04,475.00 1032.29,475.00 1032.54,468.13 1032.79,467.07 1033.04,475.00 1033.29,467.07 1033.54,471.44 1033.79,475.00 1034.04,475.00 1034.30,467.23 1034.54,475.00 1034.80,471.55 1035.05,466.99 1035.30,471.51 1035.55,471.44 1035.80,471.55 1036.05,471.41 1036.31,475.00 1036.55,467.85 1036.80,471.41 1037.05,475.00 1037.31,468.06 1037.56,467.99 1037.81,471.44 1038.06,471.48 1038.31,471.44 1038.56,471.55 1038.81,471.44 1039.06,475.00 1039.31,467.92 1039.56,475.00 1039.81,467.07 1040.06,467.92 1040.32,471.55 1040.57,468.06 1040.82,467.92 1041.07,475.00 1041.32,475.00 1041.58,475.00 1041.82,471.44 1042.08,475.00 1042.32,475.00 1042.58,475.00 1042.83,475.00 1043.08,475.00 1043.32,475.00 1043.58,471.61 1043.83,475.00 1044.08,475.00 1044.33,467.85 1044.58,475.00 1044.83,475.00 1045.09,475.00 1045.33,471.41 1045.59,475.00 1045.84,475.00 1046.09,475.00 1046.34,475.00 1046.58,471.25 1046.84,468.26 1047.10,475.00 1047.34,467.85 1047.60,475.00 1047.85,467.99 1048.10,467.85 1048.34,471.44 1048.60,475.00 1048.85,475.00 1049.10,467.92 1049.35,475.00 1049.60,471.51 1049.84,475.00 1050.10,467.38 1050.35,467.23 1050.61,475.00 1050.85,475.00 1051.11,468.06 1051.36,475.00 1051.61,475.00 1051.86,475.00 1052.11,471.55 1052.36,467.92 1052.62,471.51 1052.86,464.96 1053.11,471.44 1053.36,475.00 1053.62,468.13 1053.86,475.00 1054.12,475.00 1054.37,467.07 1054.62,475.00 1054.87,475.00 1055.12,475.00 1055.37,467.92 1055.63,475.00 1055.87,467.07 1056.13,475.00 1056.37,475.00 1056.63,475.00 1056.88,467.92 1057.13,467.99 1057.38,467.92 1057.63,467.23 1057.88,471.44 1058.14,467.31 1058.39,475.00 1058.63,475.00 1058.88,475.00 1059.13,467.99 1059.38,471.48 1059.63,466.99 1059.89,471.55 1060.14,468.13 1060.39,471.37 1060.64,475.00 1060.89,467.99 1061.14,471.51 1061.39,467.92 1061.65,475.00 1061.89,475.00 1062.15,468.13 1062.40,471.44 1062.65,467.99 1062.89,475.00 1063.15,475.00 1063.40,471.44 1063.65,475.00 1063.90,471.48 1064.15,471.44 1064.38,467.21 1064.62,475.00 1064.88,468.13 1065.13,475.00 1065.38,468.13 1065.63,475.00 1065.88,475.00 1066.12,475.00 1066.39,467.67 1066.63,466.83 1066.89,475.00 1067.13,471.37 1067.39,471.58 1067.64,467.99 1067.89,471.41 1068.14,467.99 1068.39,475.00 1068.64,471.48 1068.89,475.00 1069.14,468.13 1069.38,466.83 1069.64,475.00 1069.89,467.07 1070.14,471.51 1070.39,467.99 1070.65,475.00 1070.90,460.98 1071.15,475.00 1071.40,471.55 1071.65,475.00 1071.91,467.99 1072.15,467.77 1072.41,475.00 1072.65,467.62 1072.91,475.00 1073.15,467.77 1073.41,475.00 1073.66,467.99 1073.91,475.00 1074.16,467.77 1074.42,475.00 1074.67,475.00 1074.91,466.91 1075.16,475.00 1075.42,475.00 1075.66,471.41 1075.91,467.92 1076.17,467.53 1076.43,467.23 1076.67,475.00 1076.92,467.92 1077.17,475.00 1077.42,467.07 1077.67,475.00 1077.92,467.99 1078.17,471.41 1078.42,471.48 1078.68,471.55 1078.93,467.92 1079.17,475.00 1079.43,475.00 1079.68,467.99 1079.93,471.44 1080.19,471.51 1080.43,471.44 1080.69,468.06 1080.94,467.92 1081.19,475.00 1081.44,471.44 1081.69,471.55 1081.93,466.83 1082.19,467.99 1082.43,467.85 1082.69,475.00 1082.95,468.19 1083.19,475.00 1083.45,475.00 1083.70,475.00 1083.94,466.91 1084.21,471.61 1084.45,475.00 1084.70,468.13 1084.95,475.00 1085.20,467.99 1085.45,467.38 1085.69,471.29 1085.96,468.32 1086.20,471.37 1086.46,468.19 1086.70,475.00 1086.96,468.13 1087.21,475.00 1087.45,467.92 1087.71,475.00 1087.96,468.19 1088.21,467.77 1088.47,467.38 1088.71,467.85 1088.96,475.00 1089.21,468.13 1089.47,471.55 1089.72,466.99 1089.97,475.00 1090.22,471.41 1090.47,468.13 1090.72,471.37 1090.97,467.15 1091.22,471.55 1091.47,471.48 1091.72,467.15 1091.98,475.00 1092.22,475.00 1092.48,475.00 1092.73,467.85 1092.98,475.00 1093.23,467.92 1093.49,468.13 1093.73,467.92 1093.99,475.00 1094.23,475.00 1094.49,475.00 1094.73,466.91 1094.99,471.55 1095.23,475.00 1095.48,471.44 1095.74,471.55 1095.99,468.13 1096.24,475.00 1096.50,468.19 1096.74,467.77 1096.99,467.23 1097.25,475.00 1097.50,471.48 1097.75,475.00 1098.00,466.99 1098.25,471.48 1098.50,475.00 1098.74,475.00 1099.00,475.00 1099.25,467.99 1099.51,471.48 1099.76,467.99 1100.00,471.37" fill="none" stroke="#ff7f0e" stroke-width="2.5" stroke-linejoin="round" stroke-linecap="round"/>
  <text x="680" y="492" font-family="Arial, sans-serif" font-size="13" fill="#5d6b78">max 3.83 m/s</text>
</svg>
